<svg width="97" height="97" viewBox="0 0 97 97" fill="none" xmlns="http://www.w3.org/2000/svg">
<path d="M47.9832 10.8828C45.5576 10.8828 43.5859 12.8415 43.5859 15.2671C43.5859 17.6928 45.5576 19.6644 47.9832 19.6644C50.4089 19.6644 52.3805 17.6928 52.3805 15.2671C52.3805 12.8415 50.4089 10.8828 47.9832 10.8828ZM47.9832 17.5501C46.725 17.5501 45.6873 16.5383 45.6873 15.2541C45.6873 13.97 46.712 12.9712 47.9832 12.9712C49.2544 12.9712 50.2791 13.983 50.2791 15.2541C50.2791 16.5253 49.2544 17.5501 47.9832 17.5501Z" fill="#273B70"/>
<path d="M81.5013 24.2827C79.0757 24.2827 77.104 26.2544 77.104 28.693C77.104 31.1316 79.0757 33.0773 81.5013 33.0773C83.9269 33.0773 85.8986 31.1186 85.8986 28.693C85.8986 26.2673 83.9269 24.2827 81.5013 24.2827ZM81.5013 30.9759C80.2431 30.9759 79.2054 29.9512 79.2054 28.68C79.2054 27.4088 80.2301 26.3841 81.5013 26.3841C82.7725 26.3841 83.7972 27.4088 83.7972 28.68C83.7972 29.9512 82.7725 30.9759 81.5013 30.9759Z" fill="#273B70"/>
<path d="M14.4654 24.2827C12.0397 24.2827 10.0811 26.2544 10.0811 28.693C10.0811 31.1316 12.0397 33.0773 14.4654 33.0773C16.891 33.0773 18.8626 31.1056 18.8626 28.693C18.8626 26.2803 16.891 24.2827 14.4654 24.2827ZM14.4654 30.9759C13.1812 30.9759 12.1694 29.9512 12.1694 28.68C12.1694 27.4088 13.1812 26.3841 14.4654 26.3841C15.7495 26.3841 16.7353 27.3958 16.7353 28.68C16.7353 29.9641 15.7236 30.9759 14.4654 30.9759Z" fill="#273B70"/>
<path d="M61.3827 33.5181H58.0231C55.0008 33.5181 52.2509 34.7374 50.2662 36.696V40.0815C51.8487 37.3835 54.7673 35.6324 58.0231 35.6324H60.306L60.1504 36.3847C59.3073 40.5615 55.5975 43.5968 51.3299 43.5968H50.2662V45.6852H51.3299C57.4394 45.6852 62.4333 40.7042 62.4333 34.5687C62.4333 33.998 61.9664 33.5181 61.3827 33.5181ZM46.9326 45.9186C47.218 46.1651 47.5812 46.2948 47.9833 46.2948H49.034V37.1371C48.126 38.2526 47.3866 39.5108 46.9456 40.9117V45.9186H46.9326Z" fill="#273B70"/>
<path d="M47.9833 45.6849C47.3996 45.6849 46.9326 45.2049 46.9326 44.6342V46.6577C47.2439 46.8263 47.5942 46.9301 47.9833 46.9301H49.034V45.6849H47.9833ZM46.9326 39.2771V44.6472C46.9326 42.2215 47.7109 39.9775 49.021 38.1615V36.2158C48.1519 37.1108 47.4644 38.1485 46.9326 39.2771Z" fill="#273B70"/>
<path d="M81.5011 46.9302H78.1416C76.4034 46.9302 74.7301 47.3453 73.2514 48.0717C72.8363 49.1742 72.4342 50.2768 72.058 51.4312C73.6665 49.9395 75.8327 49.0445 78.1416 49.0445H80.4245L80.2688 49.7968C79.4257 53.9736 75.7159 57.0089 71.4484 57.0089H70.3977C70.2161 57.7093 70.0345 58.4098 69.8659 59.0973H71.4484C77.5578 59.0973 82.5518 54.1163 82.5518 47.9809C82.5518 47.4101 82.0848 46.9302 81.5011 46.9302ZM71.9023 48.1235C70.5922 48.9407 69.4637 50.0044 68.5817 51.2626C68.2315 52.3781 67.8812 53.5066 67.5699 54.6481C67.531 54.7519 67.5051 54.8427 67.4921 54.9464C67.4272 55.1929 67.3624 55.4394 67.2975 55.6988C67.0122 56.6587 66.7657 57.6575 66.5322 58.6562C66.7787 59.2659 67.4013 59.7069 68.0888 59.7069H68.452C68.5039 59.5124 68.5298 59.2918 68.6076 59.0973C68.8281 58.1374 69.0616 57.1905 69.3211 56.2566C69.3859 55.9582 69.4767 55.6599 69.5675 55.3615C70.1512 53.2342 70.8128 51.1588 71.5521 49.1353C71.6689 48.7981 71.7856 48.4738 71.9153 48.1365L71.9023 48.1235Z" fill="#273B70"/>
<path d="M68.0888 59.0974C67.5051 59.0974 67.0381 58.6175 67.0381 58.0467C67.0381 57.2555 67.116 56.4642 67.2846 55.6989C66.9992 56.6588 66.7528 57.6576 66.5193 58.6564C66.4544 58.9417 66.3896 59.2271 66.3247 59.4995C66.7398 60.0184 67.3754 60.3297 68.0888 60.3297H68.3223C68.3612 60.1092 68.4001 59.9146 68.452 59.6941C68.5039 59.4995 68.5298 59.279 68.6077 59.0844H68.0888V59.0974ZM69.1525 49.6024C68.9579 50.1472 68.7763 50.705 68.5817 51.2627C68.2315 52.3783 67.8813 53.5068 67.57 54.6482C68.2834 52.4042 69.6972 50.4715 71.5392 49.1095C71.6559 48.7722 71.7727 48.4479 71.9024 48.1107C72.0191 47.7994 72.1359 47.501 72.2526 47.1768C71.0722 47.7864 70.0215 48.6166 69.1395 49.5894L69.1525 49.6024Z" fill="#273B70"/>
<path d="M28.6818 55.8028C28.6688 55.7249 28.6429 55.6471 28.6299 55.5823C28.5261 55.2061 28.4094 54.8169 28.2926 54.4408C27.9943 53.3642 27.683 52.3135 27.3328 51.2498C26.4507 50.0046 25.3222 48.9409 24.0251 48.1238C24.1548 48.461 24.2715 48.7853 24.3883 49.1225C25.1406 51.185 25.8022 53.2604 26.3859 55.3358C26.4248 55.4915 26.4637 55.6341 26.5026 55.7639C26.8139 56.8794 27.0993 57.969 27.3457 59.0845C27.3976 59.2791 27.4495 59.4996 27.5014 59.6942H27.8646C28.565 59.6942 29.1617 59.2661 29.4082 58.6435C29.1747 57.6966 28.9412 56.7367 28.6818 55.7898V55.8028ZM24.518 57.0091C20.2504 57.0091 16.5277 53.9738 15.6975 49.797L15.5418 49.0447H17.7989C20.1077 49.0447 22.248 49.9268 23.8694 51.3925C23.5062 50.277 23.1041 49.1874 22.702 48.0848C21.2233 47.3584 19.5629 46.9434 17.7989 46.9434H14.4393C13.8685 46.9434 13.4146 47.4233 13.4146 47.994C13.4146 54.1295 18.3826 59.1104 24.518 59.1104H26.0745C25.9189 58.41 25.7373 57.7096 25.5557 57.0221H24.505L24.518 57.0091Z" fill="#273B70"/>
<path d="M27.3327 51.25C27.1511 50.6792 26.9695 50.1215 26.7879 49.5767C25.8929 48.6298 24.8422 47.8126 23.6748 47.1899C23.8045 47.5013 23.9213 47.8255 24.025 48.1368C24.1547 48.4741 24.2715 48.7984 24.3882 49.1356C26.1783 50.4457 27.5662 52.2877 28.2926 54.4539C27.9943 53.3773 27.6829 52.3266 27.3327 51.2629V51.25ZM29.4211 58.6695C29.1876 57.7226 28.9541 56.7628 28.6947 55.8159C28.8504 56.5423 28.9282 57.2946 28.9282 58.0599C28.9282 58.6306 28.4483 59.1106 27.8775 59.1106H27.3587C27.4105 59.3051 27.4624 59.5257 27.5143 59.7202C27.5662 59.9407 27.6181 60.1483 27.67 60.3558H27.8905C28.5909 60.3558 29.2136 60.0445 29.6286 59.5386C29.5638 59.2533 29.4989 58.9679 29.4341 58.6695H29.4211Z" fill="#273B70"/>
<path d="M45.6871 51.8074V48.4348C43.6895 46.4761 40.9526 45.2568 37.9303 45.2568H34.5707C33.987 45.2568 33.52 45.7238 33.52 46.3075C33.52 52.4429 38.501 57.411 44.6235 57.411H45.6871V55.3355H44.6235C40.3559 55.3355 36.6461 52.3003 35.803 48.1235L35.6473 47.3712H37.9173C41.1731 47.3712 44.0787 49.1223 45.6741 51.8074H45.6871ZM46.9324 48.8629V58.0336H47.983C48.3851 58.0336 48.7483 57.9039 49.0337 57.6704V52.5986C48.5667 51.2236 47.8533 49.9525 46.9453 48.8629H46.9324Z" fill="#273B70"/>
<path d="M47.9833 57.398H46.9326V58.6432H47.9833C48.3595 58.6432 48.7097 58.5654 49.034 58.3708V56.3603C49.034 56.931 48.567 57.385 47.9833 57.385V57.398ZM46.9326 47.9419V49.8876C48.2427 51.7036 49.021 53.9476 49.021 56.3732V50.9902C48.4892 49.8746 47.7887 48.8499 46.9326 47.9549V47.9419Z" fill="#273B70"/>
<path d="M58.7755 18.4322L58.1399 18.7176L58.4901 19.3143C60.1245 22.168 59.3722 25.774 56.7779 27.7197C55.7791 28.472 54.6377 28.8871 53.4184 28.952L53.1719 28.5758L52.8087 28.926C52.5752 28.926 52.3417 28.8871 52.0953 28.8612C50.6684 28.6407 49.3972 27.9532 48.4244 26.8506L47.9574 26.3318L47.4905 26.8506C46.5306 27.9532 45.2594 28.6407 43.8196 28.8612C42.1852 29.1336 40.5508 28.7055 39.1888 27.7197C36.6464 25.8129 35.8941 22.1031 37.4766 19.2883L37.8268 18.7046L37.1912 18.4193C34.2727 17.0702 32.8069 13.7107 33.8057 10.5716C34.3246 8.92426 35.4271 7.60119 36.9578 6.83588C38.203 6.20029 39.6298 6.00572 40.9918 6.30406L41.6793 6.43377L41.7442 5.74629C42.0814 2.47752 44.7535 0 47.9574 0C48.5282 0 49.0081 0.466964 49.0081 1.05067C49.0081 1.63438 48.5282 2.10135 47.9574 2.10135C45.6875 2.10135 43.8196 4.03408 43.8196 6.39486C43.8196 7.03045 43.9752 7.6401 44.2347 8.22381C44.4552 8.70375 44.3125 9.23557 43.8844 9.53391C43.4823 9.83225 42.8986 9.78037 42.5484 9.43014C42.1333 9.00209 41.6015 8.66483 40.9918 8.44432C39.9801 8.10707 38.9035 8.19787 37.9176 8.67781C36.9059 9.19666 36.1795 10.0917 35.8293 11.2072C35.1158 13.4902 36.3092 15.9158 38.5013 16.6292C39.0721 16.7978 39.6688 16.8627 40.2784 16.7849C40.7584 16.72 41.2642 17.0313 41.4199 17.4983C41.5755 17.9653 41.368 18.4971 40.94 18.7565C40.3562 19.0678 39.8893 19.4829 39.578 19.9758C38.2289 21.9085 38.644 24.6066 40.4989 26.0075C41.3939 26.656 42.4706 26.9155 43.5342 26.7598C44.6368 26.5782 45.5967 25.9815 46.2452 25.0476C46.5954 24.5547 46.8289 23.971 46.9586 23.2835C47.0365 22.7906 47.4775 22.4144 47.9834 22.4144C48.4893 22.4144 48.9303 22.7906 49.0081 23.2965C49.1248 23.945 49.3713 24.5288 49.7215 25.0476C50.3701 25.9556 51.3689 26.5782 52.4196 26.7598C53.4962 26.9284 54.6117 26.656 55.4808 25.9945C57.3227 24.6195 57.7378 21.9085 56.3888 19.9628C56.0256 19.4699 55.5716 19.0678 55.0268 18.7435C54.5728 18.5101 54.3912 17.9782 54.5469 17.4983C54.7155 17.0184 55.1954 16.72 55.6883 16.7849C56.3758 16.8627 56.9466 16.8238 57.4784 16.6292C59.6705 15.8769 60.8509 13.4513 60.1375 11.1942C59.7873 10.0917 59.0349 9.19666 58.0491 8.69078C57.0633 8.19787 55.9737 8.10707 54.9749 8.4573C54.4431 8.62592 53.9242 8.93723 53.4184 9.44311C53.0552 9.79334 52.5104 9.84523 52.0693 9.54689C51.6672 9.24855 51.5245 8.71672 51.7191 8.24975C52.0045 7.6401 52.1342 7.03045 52.1342 6.40783C52.1342 5.82412 52.6141 5.35715 53.1849 5.35715C53.6 5.35715 53.9632 5.60361 54.1448 5.99274L54.3393 6.45971L54.8582 6.34297C56.272 6.00572 57.6989 6.18732 58.996 6.86182C60.5266 7.65308 61.6422 8.98912 62.148 10.6365C63.1339 13.7107 61.6292 17.1481 58.7625 18.4582L58.7755 18.4322Z" fill="#273B70"/>
<path d="M92.2542 31.8446L91.6446 32.13L91.9818 32.7137C93.6032 35.5674 92.8768 39.1994 90.2696 41.1451C89.8026 41.4953 89.1411 41.3915 88.7909 40.9245C88.6222 40.704 88.5574 40.4446 88.5963 40.1592C88.6352 39.8739 88.7779 39.6274 89.0114 39.4588C90.8533 38.0579 91.2684 35.3598 89.9194 33.4271C89.5562 32.9342 89.1022 32.5191 88.5574 32.2078C88.1034 31.9614 87.9088 31.4425 88.0774 30.9496C88.2461 30.4697 88.726 30.1713 89.2189 30.2362C89.8156 30.314 90.4123 30.2751 91.009 30.0805C93.2011 29.3282 94.3815 26.9025 93.6681 24.6585C93.3179 23.543 92.5655 22.6609 91.5797 22.155C90.5939 21.6362 89.5043 21.5584 88.5055 21.9086C87.9737 22.0772 87.4548 22.4015 86.9489 22.8944C86.5857 23.2446 86.0409 23.2965 85.5999 22.9982C85.1848 22.7128 85.0551 22.168 85.2497 21.7011C85.5351 21.1044 85.6648 20.5077 85.6648 19.8591C85.6648 17.4983 83.8229 15.5656 81.5399 15.5656C79.257 15.5656 77.415 17.4983 77.415 19.8591C77.415 20.4947 77.5707 21.1044 77.8301 21.7011C78.0506 22.168 77.895 22.6998 77.4799 22.9982C77.0648 23.2965 76.4941 23.2446 76.1438 22.8944C75.7158 22.4664 75.1969 22.1421 74.5873 21.9086C73.5755 21.5713 72.473 21.6621 71.5131 22.1421C70.5013 22.6609 69.749 23.556 69.4247 24.6715C68.7113 26.9544 69.9046 29.3801 72.0968 30.0935C72.6675 30.2751 73.2642 30.327 73.8739 30.2491C74.3668 30.1973 74.8597 30.4826 75.0024 30.9626C75.171 31.4425 74.9634 31.9614 74.5224 32.2208C73.9517 32.5321 73.4977 32.9731 73.1734 33.4401C71.8244 35.3728 72.2265 38.0708 74.0814 39.4717C74.9764 40.1203 76.053 40.3797 77.1167 40.2241C78.1933 40.0555 79.1791 39.4328 79.8147 38.5119C80.1779 38.0319 80.4114 37.4353 80.5411 36.7607C80.6189 36.2419 81.06 35.8917 81.5658 35.8917C82.0717 35.8917 82.5128 36.2549 82.5906 36.7607C82.7073 37.4223 82.9538 38.006 83.304 38.5119C83.4597 38.7454 83.5245 39.0307 83.4726 39.3031C83.4207 39.5885 83.2781 39.822 83.0446 39.9647C82.7333 40.1981 82.2922 40.2111 81.942 40.0295L81.488 39.796L81.1767 40.1722C80.2168 41.3137 78.9197 42.053 77.441 42.2865C77.1556 42.3384 76.8702 42.3514 76.5589 42.3514H76.3903C75.0672 42.3514 73.796 41.9233 72.7194 41.1191C70.177 39.2123 69.4117 35.5155 71.0072 32.6878L71.3444 32.104L70.7348 31.8187C67.8163 30.4956 66.3505 27.1101 67.3233 23.971C67.8422 22.3237 68.9707 21.0006 70.4754 20.2353C71.3445 19.7813 72.3043 19.5738 73.2512 19.5738C73.6793 19.5738 74.0944 19.6127 74.5095 19.7035L75.1969 19.8332L75.2618 19.1457C75.599 15.8769 78.2711 13.3994 81.475 13.3994C84.679 13.3994 87.3381 15.8769 87.6753 19.1457L87.7402 19.8332L88.4277 19.7035C89.8026 19.4051 91.2035 19.5867 92.4618 20.2223C93.9924 21.0136 95.1209 22.3496 95.6397 23.997C96.5996 27.0712 95.1079 30.5086 92.2283 31.8446H92.2542Z" fill="#273B70"/>
<path d="M95.8736 88.4646L95.8347 88.4257L95.7828 88.1533C95.7699 87.8679 95.6531 87.6085 95.4326 87.401C95.238 87.2323 94.9656 87.1415 94.6803 87.1545C94.0836 87.2064 93.6556 87.6863 93.6815 88.27C93.7593 89.9304 93.8112 91.5648 93.8372 93.2381V93.8737H87.5331V93.264C87.4553 89.4245 87.105 85.6888 86.5083 82.4978V82.394V82.3162C87.3774 73.4957 88.8821 70.4734 89.3361 69.747L89.8549 68.9169L90.3868 69.734C90.9316 70.5512 92.2806 73.3401 93.1626 81.6547C93.2275 82.2384 93.7334 82.6405 94.343 82.6016C94.9138 82.5367 95.3288 82.0179 95.277 81.4342C94.2263 71.9262 92.4233 67.0879 89.8809 67.0879C89.1675 67.0879 86.9753 67.0879 85.3409 75.4674L85.0426 76.998L84.2124 75.6879C82.5391 73.0806 80.2043 73.2233 78.6088 75.9732L77.8046 77.3482L77.4544 75.8046C75.8589 68.7742 73.7965 68.7742 73.122 68.7742C72.2529 68.7742 70.9817 69.1503 69.7494 72.458L69.0879 74.274L68.569 72.4191C67.0903 67.1009 65.4429 67.1009 64.7425 67.1009C64.042 67.1009 62.0704 67.1009 60.449 74.3518L60.0858 75.9992L59.3075 74.5205C58.4384 72.912 57.4915 72.1467 56.363 72.1467C55.2345 72.1467 54.2746 72.912 53.4185 74.5075L52.6403 76.0251L52.2771 74.3648C50.6686 67.1138 48.6581 67.1138 47.9836 67.1138C47.3091 67.1138 45.3115 67.1138 43.703 74.3648L43.3398 76.0122L42.5616 74.5334C41.6925 72.925 40.7456 72.1597 39.6171 72.1597C38.4886 72.1597 37.5287 72.925 36.6726 74.5205L35.8943 76.0381L35.5311 74.3778C33.9227 67.1268 31.9121 67.1268 31.2506 67.1268C30.5501 67.1268 28.9028 67.1268 27.424 72.445L26.9052 74.287L26.2307 72.4969C24.8687 68.8131 23.4159 68.8131 22.8711 68.8131C22.1836 68.8131 20.1341 68.8131 18.5387 75.8435L18.1885 77.3871L17.3972 76.0122C15.7888 73.2363 13.4799 73.1066 11.7936 75.7268L10.9505 77.0369L10.6651 75.5063C9.03071 67.1268 6.83856 67.1268 6.12513 67.1268C3.75138 67.1268 2.00025 71.3814 0.923634 79.7738C0.845807 80.3705 1.26089 80.8894 1.83163 80.9542C2.42831 81.0321 2.94716 80.6429 3.02499 80.0462C3.92001 73.0547 5.11337 70.5512 5.60628 69.8119L6.13811 68.9817L6.65696 69.7989C7.11096 70.4994 8.61562 73.4438 9.53658 82.3422V82.5238C8.92693 85.6758 8.57672 89.3986 8.51186 93.3289V93.9385H2.18185V93.3029C2.24671 90.6049 2.31157 88.5035 2.44129 86.6746C2.45426 86.3892 2.36345 86.1038 2.18185 85.9093C2.00025 85.6888 1.75381 85.572 1.46844 85.559H1.3906C1.14415 85.559 0.897697 85.6369 0.716099 85.8055C0.495586 86.0001 0.365875 86.2595 0.352903 86.5319C0.184276 89.0872 0.106445 91.928 0.106445 94.9762C0.106445 95.5599 0.573409 96.0269 1.15712 96.0269H95.0305C95.6012 96.0269 96.0812 95.5599 96.0812 94.9762C96.0812 92.5635 96.0293 90.4363 95.9125 88.4906L95.8736 88.4646ZM17.3713 82.874C17.021 86.0519 16.8265 89.5412 16.7616 93.277V93.8866H10.4835V93.251C10.5873 89.4893 10.9505 85.7406 11.5471 82.6535C12.507 77.7892 13.6874 76.4013 14.0247 76.103L14.2063 75.9343H14.6862L14.8678 76.09C15.218 76.4013 16.3984 77.7633 17.3583 82.6924V82.7962L17.3713 82.874ZM25.8934 80.7337C25.4654 84.4435 25.193 88.7759 25.1411 93.277V93.8866H18.85V93.251C18.9019 89.632 19.1094 86.026 19.4856 82.8351C20.4195 74.5205 21.8982 71.9132 22.3263 71.3165L22.8192 70.6161L23.3381 71.3165C23.7013 71.8095 24.9724 73.9627 25.8934 80.5781V80.6559V80.7207V80.7337ZM34.5193 81.7585V81.8363C33.9486 85.131 33.6243 89.0613 33.5595 93.251V93.8607H27.2424V93.2251C27.3073 88.7759 27.5797 84.4565 28.0207 80.7078C28.8379 73.6773 30.0183 70.8755 30.602 69.8897V69.4098H32.3661L31.951 70.0713C32.5347 71.1479 33.7411 74.2091 34.5323 81.6547V81.7325L34.5193 81.7585ZM51.9528 93.8607H44.0143V93.251C44.0143 92.3819 44.0273 91.5388 44.0662 90.6957V89.9304C44.1051 89.645 44.0014 89.3985 43.7938 89.178C43.6122 88.9835 43.3398 88.8667 43.0415 88.8408C42.6783 88.8019 42.4448 88.9705 42.3151 89.0872C42.0946 89.2818 41.9778 89.5672 41.9649 89.8655C41.9259 90.9681 41.913 92.0966 41.9 93.251V93.8607H35.6219V93.2251C35.6997 89.0872 36.05 85.1829 36.6337 81.9271C37.5806 76.4532 38.7999 74.8318 39.1371 74.4686L39.5911 74.0016L40.0451 74.4686C40.3953 74.8188 41.5887 76.4013 42.5356 81.7325V81.8363V81.94C42.4967 82.1865 42.4837 82.4589 42.4578 82.7313L42.4189 83.1334C42.38 83.7041 42.821 84.1971 43.4047 84.236C44.0014 84.2489 44.4813 83.8339 44.5332 83.2501C44.5851 82.7702 44.611 82.3422 44.6629 81.8752C45.5579 73.4179 46.9199 70.5642 47.4777 69.7211L47.9965 68.9039L48.5154 69.6951C48.9434 70.3437 50.4092 73.1196 51.3302 81.6806V81.9271C51.6933 85.2348 51.9139 89.1521 51.9787 93.2121V93.8477L51.9528 93.8607ZM60.3322 93.9126H54.0671V93.3029C54.0022 89.1002 53.7817 85.1829 53.4315 81.966V81.8882V81.8103C54.3784 76.4532 55.5718 74.8837 55.922 74.5205L56.376 74.0665L56.83 74.5205C57.1802 74.8837 58.4125 76.4921 59.3335 82.0049L59.4502 82.7313H59.4372C59.9301 85.8185 60.2285 89.4634 60.3322 93.2899V93.9385V93.9126ZM62.4206 93.8996V93.2899C62.3558 89.191 62.0185 85.2348 61.4608 81.8752V81.7714V81.6936C62.2909 73.9367 63.5232 70.9793 64.1199 69.9416V68.0089L65.0798 69.4746H65.871L65.4689 70.1232C66.0526 71.2387 67.1292 74.0665 67.9334 80.7597C68.3874 84.4824 68.6469 88.8148 68.6987 93.277V93.9126H62.4206V93.8996ZM70.8131 93.8996V93.2899C70.7482 88.7759 70.4758 84.4305 70.0478 80.7467V80.591C70.9687 74.2091 72.1361 72.004 72.6031 71.3295L73.122 70.6161L73.6408 71.3295C74.0689 71.9651 75.5476 74.5983 76.4686 82.848C76.8318 86.026 77.0523 89.632 77.1042 93.264V93.8996H70.826H70.8131ZM79.2055 93.8737V93.264C79.1407 89.5283 78.9331 86.039 78.5959 82.874V82.7962V82.6924C79.5557 77.7892 80.7361 76.4143 81.0863 76.09L81.5014 75.7138L81.9165 76.09C82.2538 76.3883 83.3434 77.6725 84.2903 82.1216H84.3032L84.407 82.6146C85.0166 85.7666 85.3928 89.4504 85.4577 93.2381V93.8737H79.2055Z" fill="#273B70"/>
<path d="M72.2527 47.1771C72.1359 47.5143 72.0192 47.8127 71.9024 48.124C71.7727 48.4612 71.656 48.7855 71.5392 49.1227C70.8128 51.1463 70.1383 53.2217 69.5546 55.349C69.4509 55.6473 69.373 55.9457 69.3082 56.244C69.0487 57.1779 68.8153 58.1248 68.5948 59.0847C68.5299 59.2793 68.491 59.4998 68.4391 59.6944C68.3872 59.9149 68.3353 60.1094 68.3094 60.33C68.1926 60.8229 68.0759 61.3288 67.9721 61.8217C67.8684 62.2497 67.5181 62.574 67.0901 62.6389H66.9215C66.9215 62.6389 66.7917 62.6389 66.688 62.6259C66.4026 62.561 66.1691 62.3924 66.0264 62.1589C65.8708 61.9254 65.8319 61.666 65.8967 61.3806C66.0264 60.745 66.1561 60.1354 66.3118 59.4998C66.3767 59.2144 66.4415 58.9291 66.5064 58.6567C66.7399 57.6579 66.9863 56.6591 67.2717 55.6992C67.3365 55.4527 67.4014 55.2063 67.4662 54.9469C67.4792 54.8431 67.5181 54.7523 67.5441 54.6485C67.8554 53.5071 68.2056 52.3656 68.5558 51.263C68.7374 50.6923 68.919 50.1475 69.1266 49.6027C69.4898 48.5261 69.8919 47.4754 70.294 46.4247C70.3978 46.1523 70.5794 45.9578 70.8388 45.841C70.9685 45.7891 71.1112 45.7632 71.2539 45.7632C71.3836 45.7632 71.5263 45.7761 71.63 45.828C71.9024 45.9318 72.097 46.1264 72.2137 46.3728C72.3305 46.6452 72.3305 46.9047 72.2267 47.1641L72.2527 47.1771Z" fill="#273B70"/>
<path d="M25.2576 31.8319L24.6479 32.1172L24.9852 32.7009C26.6195 35.5546 25.8802 39.1866 23.2729 41.1323C22.1963 41.9235 20.9122 42.3646 19.5632 42.3646C19.2259 42.3646 18.9146 42.3257 18.6033 42.2867C17.1635 42.0662 15.8923 41.3787 14.9324 40.2762L14.4654 39.7573L13.9985 40.2762C13.0126 41.3787 11.7544 42.0662 10.3146 42.2867C8.68023 42.5462 7.04584 42.1311 5.69682 41.1453C3.14147 39.2385 2.38913 35.5417 3.98461 32.7139L4.32186 32.1302L3.71221 31.8448C0.780693 30.4958 -0.67209 27.1362 0.300758 23.9972C0.819611 22.3498 1.94812 21.0268 3.45279 20.2614C4.33484 19.8075 5.32065 19.574 6.26756 19.574C6.72156 19.574 7.16258 19.6259 7.61658 19.7296L8.10948 19.8464L8.30406 19.3794C8.48565 19.0162 8.87479 18.7697 9.26393 18.7697C9.84764 18.7697 10.3146 19.2367 10.3146 19.7945C10.3146 20.4301 10.4443 21.0397 10.7297 21.6364C10.9243 22.1034 10.7945 22.6482 10.3795 22.9335C9.96438 23.2319 9.39364 23.18 9.04342 22.8298C8.61537 22.4017 8.09652 22.0774 7.48687 21.844C6.4751 21.5067 5.37254 21.5975 4.41266 22.0774C3.4009 22.5963 2.64857 23.4913 2.29834 24.6068C1.58492 26.8898 2.79125 29.3154 4.97043 30.0288C5.54117 30.2104 6.13785 30.2623 6.7475 30.1845C7.26635 30.1326 7.74629 30.418 7.88897 30.8979C8.0576 31.3649 7.83708 31.8967 7.40903 32.1561C6.83829 32.4675 6.35836 32.9085 6.04705 33.3754C4.69803 35.3082 5.11312 38.0062 6.98099 39.4071C7.86303 40.0557 8.93965 40.3151 10.0163 40.1594C11.1188 39.9908 12.0657 39.3812 12.7013 38.4472C13.0516 37.9673 13.298 37.3706 13.4148 36.6961C13.5185 36.1772 13.9336 35.827 14.4395 35.827C14.9454 35.827 15.3864 36.1902 15.4642 36.6961C15.5939 37.3447 15.8274 37.9284 16.1776 38.4472C16.8392 39.3552 17.825 39.9908 18.8886 40.1594C19.9523 40.341 21.0678 40.0557 21.9239 39.4071C23.7918 38.0062 24.1809 35.3082 22.8449 33.3754C22.4817 32.8825 22.0277 32.4675 21.4829 32.1561C21.0549 31.9097 20.8473 31.3908 21.0159 30.8979C21.1716 30.418 21.6515 30.1196 22.1574 30.1845C22.7411 30.2623 23.3378 30.2234 23.9345 30.0288C26.1266 29.2765 27.32 26.8509 26.5936 24.6068C26.2434 23.4913 25.491 22.6093 24.5052 22.1034C23.5453 21.5845 22.4428 21.5067 21.431 21.8569C20.9122 22.0256 20.3803 22.3498 19.8745 22.8427C19.5242 23.193 18.9535 23.2449 18.5384 22.9465C18.1233 22.6611 17.9677 22.1163 18.1882 21.6494C18.4736 21.0527 18.6033 20.4301 18.6033 19.8075C18.6033 17.4467 16.7484 15.5139 14.4784 15.5139C13.8947 15.5139 13.4277 15.047 13.4277 14.4633C13.4277 13.8796 13.9077 13.4126 14.4784 13.4126C17.6823 13.4126 20.3414 15.8901 20.6787 19.1589L20.7435 19.8593L21.431 19.7037C22.806 19.4183 24.2069 19.5999 25.4651 20.2355C26.9957 21.0138 28.1242 22.3498 28.6171 23.9972C29.603 27.0714 28.0983 30.5088 25.2316 31.8448L25.2576 31.8319Z" fill="#273B70"/>
<path d="M30.0181 61.367C30.07 61.6523 30.0181 61.9118 29.8625 62.1452C29.6938 62.3917 29.4603 62.5474 29.2269 62.5992L28.9804 62.6382C28.4875 62.6382 28.0724 62.3009 27.9687 61.821C27.8649 61.3281 27.7741 60.8351 27.6573 60.3422C27.6055 60.1477 27.5536 59.9272 27.5017 59.7066C27.4498 59.5121 27.3979 59.2916 27.346 59.097C27.0996 57.9815 26.8142 56.8919 26.5029 55.7763C26.464 55.6466 26.4251 55.491 26.3862 55.3483C25.8024 53.2729 25.1409 51.1975 24.3886 49.135C24.2718 48.7978 24.1551 48.4735 24.0254 48.1362C23.9216 47.8249 23.8049 47.5006 23.6751 47.1893C23.4806 46.6186 23.74 46.0219 24.2848 45.8273C24.4015 45.7755 24.5313 45.7495 24.648 45.7495C24.8037 45.7495 24.9463 45.7884 25.0761 45.8533C25.3484 45.97 25.53 46.1646 25.6208 46.437C26.023 47.4877 26.3991 48.5254 26.7623 49.589C26.9439 50.1338 27.1255 50.7046 27.3071 51.2623C27.6573 52.326 27.9687 53.3766 28.267 54.4533C28.3837 54.8294 28.5005 55.2186 28.6042 55.5947C28.6172 55.6596 28.6432 55.7245 28.6561 55.8153C28.9156 56.7622 29.149 57.722 29.3825 58.6689C29.4474 58.9673 29.5122 59.2526 29.5771 59.538C29.7328 60.1477 29.8495 60.7703 29.9792 61.3799L30.0181 61.367Z" fill="#273B70"/>
<path d="M49.0208 33.4271V61.3933C49.0208 61.977 48.5538 62.444 47.9701 62.444C47.3864 62.444 46.9194 61.977 46.9194 61.3933V33.4271C46.9194 32.8434 47.3864 32.3765 47.9701 32.3765C48.5538 32.3765 49.0208 32.8564 49.0208 33.4271Z" fill="#273B70"/>
</svg>
