<svg width="52" height="52" viewBox="0 0 52 52" fill="none" xmlns="http://www.w3.org/2000/svg">
<path d="M10.3447 22.2774C14.4598 30.3601 21.0896 36.9576 29.1767 41.0989L35.4636 34.8156C36.2352 34.0444 37.3782 33.7874 38.3784 34.1301C41.579 35.1869 45.0368 35.7581 48.5803 35.7581C50.152 35.7581 51.4379 37.0433 51.4379 38.6141V48.5819C51.4379 50.1527 50.152 51.4379 48.5803 51.4379C21.7468 51.4379 0 29.7032 0 2.88464C0 1.31379 1.28595 0.0285607 2.85766 0.0285607H12.8595C14.4312 0.0285607 15.7171 1.31379 15.7171 2.88464C15.7171 6.45473 16.2887 9.88202 17.346 13.0808C17.6604 14.0805 17.4317 15.1943 16.6316 15.994L10.3447 22.2774ZM49.0375 1.99925L47.0086 0L28.5766 17.9933V5.74071H25.719V22.8772H42.8649V20.0211H31.0056L49.0375 1.99925Z" fill="black"/>
</svg>
