<svg width="108" height="104" viewBox="0 0 108 104" fill="none" xmlns="http://www.w3.org/2000/svg">
<path d="M78.1874 60.7143C77.7334 63.2048 76.5012 65.5007 74.6852 67.2908C72.8692 69.0548 70.5214 70.2223 68.0179 70.5984C65.1902 70.8449 62.3884 70.0277 60.1314 68.2766C59.1585 67.5242 58.5099 66.3698 57.4333 65.7472C54.9947 64.3073 57.2388 69.1456 57.5112 69.8331C58.2116 71.5843 58.9639 73.3224 59.6384 75.0865C59.8071 75.5405 61.1042 79.6913 61.9473 81.7667C62.1808 82.3245 61.7528 82.9341 61.1561 82.9341H47.0433C45.9797 82.9341 45.2533 81.8705 45.6294 80.8847L48.1978 74.0747C48.7425 72.622 49.3522 71.1951 49.9359 69.7683C50.2732 68.9381 50.6753 68.1339 50.9736 67.2908C51.2849 66.3568 51.687 65.0467 50.1564 65.6045C48.9241 66.0455 48.3145 67.5372 47.3157 68.3025C45.0717 70.0407 42.2569 70.8708 39.4421 70.6114C36.9387 70.2352 34.5908 69.0808 32.7749 67.3037C30.9589 65.5396 29.7266 63.2437 29.2726 60.7273C28.8705 57.5233 29.8823 54.2935 32.0355 51.8808C34.4222 49.2866 37.8466 47.9116 41.3619 48.1581L44.6825 48.3397L43.3724 45.2784C42.8536 44.098 42.5682 42.8398 42.5163 41.5557C42.3866 38.5593 43.4502 35.6148 45.4867 33.4227C47.4714 31.1786 50.2861 29.8296 53.2955 29.6999C56.3697 29.5831 59.3531 30.7116 61.5582 32.8389C63.7763 34.9533 65.0345 37.8978 65.0215 40.959C65.0215 42.4507 64.7232 43.9294 64.1395 45.3044L62.8164 48.3526L66.1371 48.171C69.6523 47.9375 73.0897 49.2995 75.4634 51.8938C77.6167 54.3065 78.6284 57.5234 78.2004 60.7143H78.1874Z" stroke="#273B70" stroke-width="3.35957" stroke-miterlimit="10"/>
<path d="M101.783 41.828L105.064 36.9897L53.6979 2.03198L2.33154 37.0026L5.61328 41.8409L12.1508 37.3918V96.1518H6.22294V101.989H101.134V96.1518H95.2061V37.3918L101.744 41.8409H101.757L101.783 41.828Z" stroke="#273B70" stroke-width="3.35957" stroke-miterlimit="10"/>
</svg>
