<svg width="70" height="112" viewBox="0 0 70 112" fill="none" xmlns="http://www.w3.org/2000/svg">
<path d="M8.58701 22.5314C8.26273 20.3912 6.4208 18.8735 4.33242 18.8735C4.11191 18.8735 3.90437 18.8865 3.67088 18.9254C3.41146 18.9773 3.13906 19.0292 2.91854 19.12C2.65912 19.1978 2.45159 19.2886 2.2181 19.4313C2.07542 19.5091 1.95868 19.587 1.84193 19.6518C1.63439 19.7945 1.45279 19.9502 1.31011 20.1058C1.08959 20.3263 0.907991 20.5598 0.739364 20.7803C0.674508 20.8711 0.596685 20.9879 0.531828 21.1046C0.441029 21.2862 0.402115 21.3381 0.389143 21.4029C0.311315 21.5586 0.298342 21.6235 0.28537 21.6624C0.207543 21.831 0.181602 21.9218 0.155659 21.9996C0.129717 22.0904 0.10377 22.1683 0.0907988 22.2461C0.0648562 22.4277 0.0259454 22.5704 0.0129741 22.726C2.77126e-06 22.8557 0 22.8946 0 22.9595V23.1411C0 23.3616 1.18872e-06 23.5951 0.0518864 23.8156L12.9454 106.43L21.4675 105.094L8.57404 22.5055L8.58701 22.5314ZM2.28295 23.5173C2.20513 22.9595 2.33484 22.4147 2.6721 21.9737C2.99638 21.5197 3.47632 21.2343 4.02111 21.1565C5.13665 20.9749 6.18732 21.7402 6.39486 22.8557L18.9381 103.278L14.8392 103.9L2.3089 23.5302L2.28295 23.5173Z" fill="#273B70"/>
<path d="M33.7641 10.8705L31.4552 11.1689L31.0402 7.82227L14.3461 9.92362L14.7612 13.2572L12.569 13.5296C12.0631 13.5945 11.6091 13.8539 11.2978 14.2431C10.9865 14.6452 10.8698 15.1381 10.9217 15.631H10.9087C10.9735 16.1369 11.22 16.5909 11.6221 16.8892C12.0242 17.2005 12.5171 17.3432 13.036 17.2784L15.2541 17.0189L15.6692 20.3526L32.3632 18.2512L31.9482 14.9176L34.2441 14.6452C35.2818 14.5155 36.0212 13.5556 35.8785 12.5309C35.7358 11.5061 34.8148 10.7668 33.7771 10.8965L33.7641 10.8705ZM18.2375 16.967L17.6797 12.5438L28.407 11.1948L28.9518 15.631L18.2375 16.967Z" fill="#273B70"/>
<path d="M59.0192 12.2838L56.9827 11.1553L58.63 8.21084L43.9335 0L42.2991 2.93151L40.3664 1.8549C39.9254 1.60844 39.4065 1.54359 38.9266 1.6733C38.4337 1.81598 38.0446 2.14027 37.7981 2.56832C37.5387 3.00934 37.4738 3.51522 37.6295 3.99516C37.7722 4.48807 38.0835 4.89018 38.5375 5.13664L40.4702 6.2392L38.8358 9.17072L53.5323 17.3816L55.1667 14.45L57.1772 15.5785C58.0852 16.0974 59.2527 15.7601 59.7585 14.8392C60.2644 13.9182 59.9401 12.7897 59.0321 12.2709L59.0192 12.2838ZM42.9088 7.99033L45.088 4.09893L54.5181 9.37826L52.326 13.2826L42.9088 8.0033V7.99033Z" fill="#273B70"/>
<path d="M68.8649 109.595H55.0634L63.6244 27.8885C63.7542 26.7341 63.4299 25.5926 62.6775 24.7106C61.9641 23.8156 60.9264 23.2578 59.7849 23.1281L59.4866 23.0762C58.4359 23.0503 57.4112 23.3745 56.581 24.049C55.699 24.7625 55.1412 25.8002 55.0245 26.9416L46.3596 109.543H38.499V27.1881C38.499 24.8014 36.5663 22.8687 34.1796 22.8687C31.7929 22.8687 29.8601 24.8014 29.8601 27.1881V44.6604L28.8354 44.3362C26.0206 43.4022 22.8816 43.9081 20.443 45.6463C18.0303 47.3974 16.5905 50.2251 16.5905 53.1956C16.5905 56.166 18.0303 58.9938 20.443 60.7579C22.8556 62.509 25.9817 63.0019 28.8354 62.0939L29.8601 61.7696V109.543H5.13681C4.50121 109.543 4.0083 110.049 4.0083 110.671C4.0083 111.294 4.50121 111.8 5.13681 111.8H68.8649C69.4875 111.8 69.9934 111.307 69.9934 110.684C69.9934 110.062 69.4875 109.556 68.8778 109.556L68.8649 109.595ZM20.6505 57.982L20.3262 57.5799C18.6918 55.4656 18.3805 52.5211 19.5739 50.1084C20.7543 47.6957 23.2448 46.1522 25.9168 46.1522C27.2918 46.204 28.6668 46.5543 29.8342 47.3066L30.1844 47.5531V47.9811C30.0806 50.1733 28.991 55.5434 21.1564 57.8393L20.6505 57.982ZM25.9687 60.3298C25.6963 60.3298 25.411 60.3168 25.1386 60.2779L22.3886 59.9407L24.9051 58.8122C27.9015 57.4502 30.2493 55.0375 31.4815 52.0022L32.5452 49.4209L32.9603 52.1708C33.2975 54.3889 32.61 56.5681 31.0535 58.1766C29.7174 59.5515 27.8625 60.3298 25.9558 60.3298H25.9687ZM36.255 109.582H32.0912V60.2649L32.3376 60.0315C33.4013 59.0197 34.2444 57.7615 34.7373 56.3476C35.4637 54.3371 35.4637 52.1319 34.7373 50.1214C34.2444 48.6945 33.4013 47.4363 32.3376 46.4375L32.0912 46.204V27.2011C32.0912 26.0596 33.0251 25.1257 34.1666 25.1257H34.1796C35.3211 25.1257 36.255 26.0596 36.255 27.2011V109.569V109.582ZM48.7593 108.116L57.2426 27.214C57.3723 26.0726 58.384 25.2683 59.5125 25.3591C60.0703 25.424 60.5632 25.6834 60.9264 26.1115C61.2637 26.5395 61.4323 27.0843 61.3804 27.6421L52.8972 108.544L48.7593 108.116Z" fill="#273B70"/>
</svg>
