<svg width="96" height="96" viewBox="0 0 96 96" fill="none" xmlns="http://www.w3.org/2000/svg">
<path fill-rule="evenodd" clip-rule="evenodd" d="M69.9932 73.0674L61.3543 72.9636C62.2882 73.249 63.1962 73.5863 64.1042 73.9494C63.8448 74.7148 63.5724 75.4541 63.287 76.1675L66.8023 76.2065C66.906 75.9081 67.0228 75.6098 67.1265 75.2985C67.7232 75.5968 68.3329 75.9081 68.9166 76.2324L75.2336 76.3102C73.5603 75.1039 71.8092 74.0273 69.9932 73.0674ZM75.8951 82.0306C74.5332 83.1461 73.1063 84.1968 71.6146 85.1567L77.1404 85.2215C78.1911 84.3913 79.2158 83.5223 80.1887 82.6013C80.3702 82.4197 80.5389 82.2511 80.7075 82.0825L75.8951 82.0306ZM39.0307 87.8936C37.7465 86.5965 36.5532 85.014 35.4247 83.1591L35.3728 88.7757C36.0473 89.5929 36.7348 90.3322 37.4612 91.0067C36.7477 90.8381 36.0473 90.6565 35.3598 90.4619V92.2131H30.301C34.9836 94.042 40.0295 95.1705 45.2958 95.4299H45.3347C46.1 95.4689 46.8783 95.4818 47.6566 95.4818C48.5905 95.4818 49.5115 95.4559 50.4195 95.404C55.6729 95.1057 60.7057 93.9512 65.3754 92.0574L39.0307 92.2131V87.8936ZM64.3377 81.9009L60.6409 81.8619C60.0053 83.0034 59.3438 84.0541 58.6563 85.014L62.5736 85.0529C63.2092 84.0541 63.7929 83.0034 64.3377 81.9009ZM49.719 81.7322L46.4243 81.6933V84.8713L49.719 84.9102V81.7322ZM80.2405 12.9194L80.2016 12.8805C80.2016 12.8805 80.1497 12.8416 80.1238 12.8157C71.6146 4.86424 60.1999 0 47.6566 0C35.1133 0 23.7764 4.8383 15.2672 12.7378C15.2154 12.7897 15.1505 12.8286 15.0986 12.8805C15.0986 12.9065 15.0727 12.9194 15.0467 12.9454C5.79818 21.6621 0 34.0367 0 47.7474C0 61.4581 5.78521 73.8197 15.0338 82.5365C15.0597 82.5624 15.0727 82.5883 15.0986 82.6143C15.1635 82.6791 15.2413 82.744 15.3321 82.7959C17.2778 84.5989 19.3791 86.2463 21.6102 87.699C22.8295 88.5162 24.1007 89.2686 25.3978 89.9431L25.4238 86.2073C24.1137 85.455 22.8555 84.6378 21.6491 83.7558C20.6633 83.0423 19.6905 82.277 18.7695 81.4858C19.7164 80.6686 20.6892 79.9033 21.701 79.1899C22.9333 78.2948 24.2045 77.4647 25.5146 76.7123L25.5405 72.9377C24.2434 73.6122 22.9722 74.3516 21.7399 75.1687C19.8591 76.3881 18.0561 77.75 16.3439 79.2417C8.6389 71.5627 3.74871 61.056 3.33363 49.3948H23.9191C24.0099 55.1281 24.5936 60.6149 25.6054 65.6738L25.9297 28.2256C24.7233 33.7124 24.0229 39.7441 23.9191 46.1H3.33363C3.76168 34.4388 8.6389 23.945 16.3439 16.2531C18.2247 17.9004 20.2223 19.3921 22.3107 20.7022C23.504 21.4545 24.7363 22.155 25.9815 22.7906L26.0205 19.0549C24.7622 18.3544 23.53 17.5891 22.3496 16.7719C21.1043 15.9028 19.911 14.9819 18.7695 13.996C19.9369 12.9973 21.1432 12.0503 22.4144 11.1813C23.2057 10.6235 24.0229 10.0917 24.866 9.59877C28.7185 7.2769 32.9601 5.52578 37.4741 4.4751C35.0744 6.73211 32.9212 9.74146 31.1052 13.2956C30.9106 13.6718 30.7161 14.0479 30.5345 14.4371C30.2361 15.0467 29.9637 15.6693 29.6913 16.3179L32.5321 18.0431C32.8434 17.2908 33.1676 16.5644 33.5049 15.8639C33.6476 15.5785 33.7903 15.2802 33.92 15.0078C37.4222 8.10707 41.8584 4.00814 46.4243 3.38551V24.6974C45.3088 24.6714 44.1933 24.5936 43.0907 24.4639L47.3842 27.0841L47.8252 45.2828C47.8252 45.3866 47.8252 45.4904 47.8252 45.5942H46.4243V46.1H36.2029C35.9046 46.3724 35.71 46.7356 35.71 47.1507V49.3948H39.3679V48.7332L82.1862 48.9926V49.3948H91.9796C91.6942 57.2035 89.3983 64.5063 85.5977 70.7844C84.4173 72.7561 83.0683 74.6369 81.5896 76.3881H81.8879V80.928C83.185 79.579 84.4043 78.1651 85.5458 76.6734C91.6683 68.6442 95.3002 58.6303 95.3002 47.7474C95.3002 34.0237 89.5021 21.6361 80.2405 12.9194ZM76.5178 13.996C73.6381 16.4736 70.4731 18.549 67.1136 20.1963C66.4002 18.1598 65.6089 16.2271 64.7528 14.4371C62.8071 10.39 60.4723 6.9656 57.8261 4.4751C64.8436 6.12246 71.2255 9.44312 76.5178 13.996ZM49.719 3.54117C54.1682 4.5659 58.4617 8.88535 61.7953 15.8639C62.6385 17.6021 63.4038 19.5089 64.1042 21.5453C59.5643 23.3743 54.7 24.4379 49.745 24.6714H49.719V3.54117ZM49.719 46.1V27.9661C50.1082 27.9532 50.5103 27.9272 50.8994 27.8883C55.7896 27.564 60.576 26.4744 65.09 24.6974C66.8412 30.8717 67.9178 38.0319 68.0864 45.6979C68.0864 45.8276 68.0864 45.9703 68.0864 46.1H49.7061H49.719ZM71.3811 46.1C71.3811 45.9703 71.3811 45.8406 71.3682 45.7109C71.2125 37.5649 70.071 29.9637 68.1383 23.3743C72.0297 21.5194 75.6746 19.1197 78.9694 16.2401C86.6613 23.9321 91.5515 34.4388 91.9796 46.1H71.3811ZM61.3543 72.9636C62.2882 73.249 63.1962 73.5863 64.1042 73.9494C63.8448 74.7148 63.5724 75.4541 63.287 76.1675L66.8023 76.2065C66.906 75.9081 67.0228 75.6098 67.1265 75.2985C67.7232 75.5968 68.3329 75.9081 68.9166 76.2324L75.2336 76.3102C73.5603 75.1039 71.8092 74.0273 69.9932 73.0674L61.3543 72.9636Z" fill="#273B70"/>
<path d="M92.5112 92.4075C92.1609 92.0962 91.668 91.9146 91.1751 91.9276H85.4807V84.2226C85.6494 83.8724 85.6494 83.4833 85.4807 83.133L85.5456 76.6733L85.5975 70.7844L85.792 49.3947V47.3971C85.818 46.982 85.6234 46.5669 85.2991 46.2556C85.2213 46.1908 85.1564 46.1389 85.0657 46.1C84.7543 45.9054 84.3782 45.7887 84.002 45.7887L71.3679 45.7108H68.0862L51.3013 45.5941C51.3273 45.4644 51.3273 45.3217 51.3013 45.179L50.8992 27.8882L50.8603 26.1371C50.8603 25.6312 50.5749 25.1643 50.082 24.8789L49.7448 24.6713H49.7188L46.4241 22.6478L33.9198 15.0077L31.105 13.2955L25.3328 9.76731C25.1771 9.68948 25.0214 9.6376 24.8658 9.59868C24.3729 9.48194 23.854 9.5468 23.4 9.76731C22.8033 10.0397 22.4142 10.5715 22.4142 11.1682L22.3493 16.7718L22.3104 20.7021L22.051 46.1L22.0121 49.3947L21.7397 75.1687L21.7008 79.1898L21.6489 83.7557L21.61 87.699L21.5581 92.4075H16.4215C15.9285 92.4205 15.4745 92.5891 15.1243 92.9005C14.7871 93.1858 14.6055 93.6009 14.6055 94.0289C14.6055 94.457 14.813 94.8461 15.1632 95.1315C15.5005 95.4298 15.9804 95.5855 16.4604 95.5725L45.2956 95.4299H45.3345L50.4193 95.4039L91.214 95.1964C91.694 95.1964 92.1609 95.0148 92.4982 94.7164C92.8355 94.4051 93.03 94.003 93.0171 93.575C93.056 93.1469 92.8614 92.7188 92.5112 92.4075ZM61.3541 72.9635L49.7188 72.8209L46.4241 72.7819L39.0305 72.6912V67.0486L46.4241 67.1265L49.7188 67.1654L65.9589 67.347L69.3314 67.3859L81.8877 67.5286L81.9655 73.21L69.993 73.0673L61.3541 72.9635ZM39.1472 57.5277L46.4241 57.6055L49.7188 57.6444L67.5673 57.852L70.8621 57.8779L81.9785 58.0076L82.0044 64.3506L69.98 64.2209L66.6075 64.182L49.7188 63.9874L46.4241 63.9485L39.1472 63.8707V57.5277ZM82.186 48.9926V54.8945L71.1474 54.7648L67.8397 54.7388L49.7188 54.5313L46.4241 54.4924L39.3677 54.4146V48.7331L82.186 48.9926ZM25.3587 92.213L25.3846 89.943L25.4106 86.2073L25.5014 76.7123L25.5273 72.9376L25.5922 65.6737L25.9165 28.2255L25.9683 22.7905L26.0073 19.0548L26.0462 14.1127L29.6781 16.3178L32.5188 18.043L43.0775 24.4638L47.371 27.084L47.812 45.2828C47.812 45.3865 47.812 45.4903 47.812 45.5941H37.5387C37.0069 45.5941 36.527 45.7886 36.1897 46.1C35.8914 46.3724 35.6968 46.7355 35.6968 47.1506V49.3947L35.5152 69.0722L35.4893 72.4966L35.4115 83.159L35.3596 88.7756V90.4618L35.3336 92.213H25.3587ZM81.8877 91.9665L65.3752 92.0573L39.0305 92.213V84.7934L46.4241 84.8712L49.7188 84.9101L58.656 85.0139L62.5734 85.0528L71.6274 85.1566L77.1531 85.2214L81.8877 85.2733V91.9665ZM81.8877 82.0954H80.7203L75.9079 82.0305L64.3375 81.9008L60.6407 81.8619L49.7188 81.7322L46.4241 81.6932L39.0305 81.6154V75.8691L46.4241 75.9599L49.7188 75.9988L63.2868 76.1675L66.802 76.2064L68.9164 76.2323L75.2334 76.3102L81.5893 76.388H81.8877V82.0954Z" fill="#273B70"/>
<path d="M46.4111 54.4924V57.6055L49.7058 57.6444V54.5313L46.4111 54.4924ZM69.993 73.0673L61.3541 72.9635C62.288 73.2489 63.196 73.5862 64.104 73.9494C63.8446 74.7147 63.5722 75.454 63.2868 76.1675L66.802 76.2064L68.9164 76.2323L75.2334 76.3102C73.5601 75.1038 71.809 74.0272 69.993 73.0673ZM60.6277 81.8619L49.7058 81.7322L46.4111 81.6932V84.8712L49.7058 84.9101L58.6431 85.0139L62.5604 85.0528C63.196 84.054 63.7797 83.0033 64.3245 81.9008L60.6277 81.8619ZM35.5282 69.0722L35.5023 72.4966C36.6567 72.1464 37.8371 71.861 39.0305 71.6405V68.2939C37.8501 68.4884 36.6826 68.7479 35.5282 69.0722ZM69.993 73.0673L61.3541 72.9635C62.288 73.2489 63.196 73.5862 64.104 73.9494C63.8446 74.7147 63.5722 75.454 63.2868 76.1675L66.802 76.2064L68.9164 76.2323L75.2334 76.3102C73.5601 75.1038 71.809 74.0272 69.993 73.0673ZM60.6277 81.8619L49.7058 81.7322L46.4111 81.6932V84.8712L49.7058 84.9101L58.6431 85.0139L62.5604 85.0528C63.196 84.054 63.7797 83.0033 64.3245 81.9008L60.6277 81.8619ZM69.993 73.0673L61.3541 72.9635C62.288 73.2489 63.196 73.5862 64.104 73.9494C63.8446 74.7147 63.5722 75.454 63.2868 76.1675L66.802 76.2064L68.9164 76.2323L75.2334 76.3102C73.5601 75.1038 71.809 74.0272 69.993 73.0673ZM49.7188 81.7322V84.9101L58.656 85.0139C59.3435 84.054 60.0051 83.0033 60.6407 81.8619L49.7188 81.7322ZM60.6277 81.8619C59.9921 83.0033 59.3306 84.054 58.6431 85.0139L62.5604 85.0528C63.196 84.054 63.7797 83.0033 64.3245 81.9008L60.6277 81.8619ZM46.4111 81.6932V84.8712L49.7058 84.9101V81.7322L46.4111 81.6932ZM60.6277 81.8619L49.7058 81.7322L46.4111 81.6932V84.8712L49.7058 84.9101L58.6431 85.0139L62.5604 85.0528C63.196 84.054 63.7797 83.0033 64.3245 81.9008L60.6277 81.8619ZM92.5112 92.4075C92.1609 92.0962 91.668 91.9146 91.1751 91.9276H85.4807V84.2226C85.6494 83.8724 85.6494 83.4833 85.4807 83.133L85.5456 76.6733L85.5975 70.7844L85.792 49.3947V47.3971C85.818 46.982 85.6234 46.5669 85.2991 46.2556C85.2213 46.1908 85.1564 46.1389 85.0657 46.1C84.7543 45.9054 84.3782 45.7887 84.002 45.7887L71.3679 45.7108H68.0862L51.3013 45.5941C51.3273 45.4644 51.3273 45.3217 51.3013 45.179L50.8992 27.8882L50.8603 26.1371C50.8603 25.6312 50.5749 25.1643 50.082 24.8789L49.7448 24.6713H49.7188L46.4241 22.6478L33.9198 15.0077L31.105 13.2955L25.3328 9.76731C25.1771 9.68948 25.0214 9.6376 24.8658 9.59868C24.3729 9.48194 23.854 9.5468 23.4 9.76731C22.8033 10.0397 22.4142 10.5715 22.4142 11.1682L22.3493 16.7718L22.3104 20.7021L22.051 46.1L22.0121 49.3947L21.7397 75.1687L21.7008 79.1898L21.6489 83.7557L21.61 87.699L21.5581 92.4075H16.4215C15.9285 92.4205 15.4745 92.5891 15.1243 92.9005C14.7871 93.1858 14.6055 93.6009 14.6055 94.0289C14.6055 94.457 14.813 94.8461 15.1632 95.1315C15.5005 95.4298 15.9804 95.5855 16.4604 95.5725L45.2956 95.4299H45.3345L50.4193 95.4039L91.214 95.1964C91.694 95.1964 92.1609 95.0148 92.4982 94.7164C92.8355 94.4051 93.03 94.003 93.0171 93.575C93.056 93.1469 92.8614 92.7188 92.5112 92.4075ZM61.3541 72.9635L49.7188 72.8209L46.4241 72.7819L39.0305 72.6912V67.0486L46.4241 67.1265L49.7188 67.1654L65.9589 67.347L69.3314 67.3859L81.8877 67.5286L81.9655 73.21L69.993 73.0673L61.3541 72.9635ZM39.1472 57.5277L46.4241 57.6055L49.7188 57.6444L67.5673 57.852L70.8621 57.8779L81.9785 58.0076L82.0044 64.3506L69.98 64.2209L66.6075 64.182L49.7188 63.9874L46.4241 63.9485L39.1472 63.8707V57.5277ZM82.186 48.9926V54.8945L71.1474 54.7648L67.8397 54.7388L49.7188 54.5313L46.4241 54.4924L39.3677 54.4146V48.7331L82.186 48.9926ZM25.3587 92.213L25.3846 89.943L25.4106 86.2073L25.5014 76.7123L25.5273 72.9376L25.5922 65.6737L25.9165 28.2255L25.9683 22.7905L26.0073 19.0548L26.0462 14.1127L29.6781 16.3178L32.5188 18.043L43.0775 24.4638L47.371 27.084L47.812 45.2828C47.812 45.3865 47.812 45.4903 47.812 45.5941H37.5387C37.0069 45.5941 36.527 45.7886 36.1897 46.1C35.8914 46.3724 35.6968 46.7355 35.6968 47.1506V49.3947L35.5152 69.0722L35.4893 72.4966L35.4115 83.159L35.3596 88.7756V90.4618L35.3336 92.213H25.3587ZM81.8877 91.9665L65.3752 92.0573L39.0305 92.213V84.7934L46.4241 84.8712L49.7188 84.9101L58.656 85.0139L62.5734 85.0528L71.6274 85.1566L77.1531 85.2214L81.8877 85.2733V91.9665ZM81.8877 82.0954H80.7203L75.9079 82.0305L64.3375 81.9008L60.6407 81.8619L49.7188 81.7322L46.4241 81.6932L39.0305 81.6154V75.8691L46.4241 75.9599L49.7188 75.9988L63.2868 76.1675L66.802 76.2064L68.9164 76.2323L75.2334 76.3102L81.5893 76.388H81.8877V82.0954ZM46.4111 81.6932V84.8712L49.7058 84.9101V81.7322L46.4111 81.6932ZM60.6277 81.8619C59.9921 83.0033 59.3306 84.054 58.6431 85.0139L62.5604 85.0528C63.196 84.054 63.7797 83.0033 64.3245 81.9008L60.6277 81.8619ZM49.7188 81.7322V84.9101L58.656 85.0139C59.3435 84.054 60.0051 83.0033 60.6407 81.8619L49.7188 81.7322ZM69.993 73.0673L61.3541 72.9635C62.288 73.2489 63.196 73.5862 64.104 73.9494C63.8446 74.7147 63.5722 75.454 63.2868 76.1675L66.802 76.2064L68.9164 76.2323L75.2334 76.3102C73.5601 75.1038 71.809 74.0272 69.993 73.0673ZM46.4111 81.6932V84.8712L49.7058 84.9101V81.7322L46.4111 81.6932ZM60.6277 81.8619C59.9921 83.0033 59.3306 84.054 58.6431 85.0139L62.5604 85.0528C63.196 84.054 63.7797 83.0033 64.3245 81.9008L60.6277 81.8619ZM49.7188 81.7322V84.9101L58.656 85.0139C59.3435 84.054 60.0051 83.0033 60.6407 81.8619L49.7188 81.7322ZM69.993 73.0673L61.3541 72.9635C62.288 73.2489 63.196 73.5862 64.104 73.9494C63.8446 74.7147 63.5722 75.454 63.2868 76.1675L66.802 76.2064L68.9164 76.2323L75.2334 76.3102C73.5601 75.1038 71.809 74.0272 69.993 73.0673ZM49.7188 63.9874V67.1654L65.9589 67.347C66.2054 66.3093 66.4259 65.2586 66.6075 64.182L49.7188 63.9874ZM49.7188 54.5313L46.4241 54.4924V57.6055L49.7188 57.6444L67.5673 57.852C67.6711 56.8272 67.7749 55.7895 67.8397 54.7388L49.7188 54.5313ZM60.6277 81.8619L49.7058 81.7322L46.4111 81.6932V84.8712L49.7058 84.9101L58.6431 85.0139L62.5604 85.0528C63.196 84.054 63.7797 83.0033 64.3245 81.9008L60.6277 81.8619ZM69.993 73.0673L61.3541 72.9635L49.7188 72.8209V75.9988L63.2868 76.1675L66.802 76.2064L68.9164 76.2323L75.2334 76.3102C73.5601 75.1038 71.809 74.0272 69.993 73.0673Z" fill="#273B70"/>
</svg>
