<svg width="86" height="93" viewBox="0 0 86 93" fill="none" xmlns="http://www.w3.org/2000/svg">
<path d="M85.6885 90.8769C85.6885 91.5385 85.1566 92.0703 84.4692 92.0703H1.21931C0.55777 92.0703 0 91.5385 0 90.8769C0 90.2154 0.544798 89.6576 1.21931 89.6576H16.3698V83.9243C16.3698 83.2628 16.9016 82.731 17.5632 82.731C18.2247 82.731 18.7825 83.2628 18.7825 83.9243V89.6576H66.919V83.9243C66.919 83.2628 67.4638 82.731 68.1383 82.731C68.8128 82.731 69.3316 83.2628 69.3316 83.9243V89.6576H84.4692C85.1437 89.6576 85.6885 90.1895 85.6885 90.8769Z" fill="#273B70"/>
<path d="M76.5437 35.1393H73.8327L70.5121 13.1918C69.1501 5.56469 63.3 0 56.6198 0H29.0169C22.3366 0 16.4995 5.57766 15.1635 13.2567L11.8299 35.1522H9.10589C6.82294 35.1522 4.95508 37.0201 4.95508 39.316V46.4113C4.95508 48.7073 6.82294 50.5751 9.10589 50.5751C10.0787 50.5751 10.857 51.3534 10.857 52.3133V73.6511C10.857 75.947 12.7249 77.8279 15.0338 77.8279H70.6288C72.9248 77.8149 74.7926 75.947 74.7926 73.6252V52.3003C74.7926 51.3275 75.5709 50.5492 76.5308 50.5492C78.8267 50.5492 80.6946 48.6813 80.6946 46.3984V39.2901C80.6946 36.9942 78.8267 35.1263 76.5308 35.1263L76.5437 35.1393ZM78.3078 46.4243C78.3078 46.9043 78.1133 47.3453 77.789 47.6566C77.7112 47.7344 77.6204 47.8252 77.5296 47.8771C77.2572 48.0587 76.9199 48.1625 76.5567 48.1625C74.2738 48.1625 72.4059 50.0303 72.4059 52.3133V73.6511C72.4059 74.6239 71.6147 75.4022 70.6548 75.4022H15.0208C14.048 75.4022 13.2697 74.6239 13.2697 73.6511V52.3133C13.2697 50.0303 11.4018 48.1625 9.10589 48.1625C8.7427 48.1625 8.40544 48.0457 8.13305 47.8771C8.05522 47.8123 7.95145 47.7344 7.87362 47.6566C7.56231 47.3453 7.36774 46.9172 7.36774 46.4243V39.329C7.36774 38.3562 8.14602 37.5779 9.10589 37.5779H12.8676C13.4513 37.5779 13.9572 37.1369 14.048 36.5402L17.5502 13.6718C18.6787 7.16016 23.517 2.43861 29.0298 2.43861H56.6328C62.1456 2.43861 66.9709 7.12125 68.1254 13.5939L71.6146 36.5402C71.7184 37.1498 72.2113 37.5779 72.808 37.5779H76.5697C77.5296 37.5779 78.3208 38.3562 78.3208 39.329V46.4243H78.3078Z" fill="#273B70"/>
<path d="M67.5675 36.3716C67.5675 37.0331 67.0227 37.5909 66.3482 37.5909C63.9615 37.5909 62.0158 39.5366 62.0158 41.9233V66.9579C62.0158 67.6195 61.484 68.1772 60.8224 68.1772C60.1609 68.1772 59.6031 67.6324 59.6031 66.9579V48.0587L59.0843 47.8642C53.6882 45.8925 48.2532 44.8937 42.8442 44.8937C37.4352 44.8937 31.9872 45.8796 26.6041 47.8642L26.0723 48.0587V66.9579C26.0723 67.6195 25.5275 68.1772 24.853 68.1772C24.1785 68.1772 23.6596 67.6324 23.6596 66.9579V41.9233C23.6596 39.5366 21.7139 37.5909 19.3272 37.5909C18.6657 37.5909 18.1079 37.0461 18.1079 36.3716C18.1079 35.6971 18.6527 35.1782 19.3272 35.1782C23.037 35.1782 26.0723 38.2135 26.0723 41.9233V45.4515L27.1359 45.1013C37.5519 41.599 48.1235 41.599 58.5265 45.1013L59.5902 45.4774V41.9233C59.5902 38.2135 62.6255 35.1782 66.3352 35.1782C66.9968 35.1782 67.5546 35.71 67.5546 36.3716H67.5675Z" fill="#273B70"/>
</svg>
