<svg width="110" height="118" viewBox="0 0 110 118" fill="none" xmlns="http://www.w3.org/2000/svg">
<path d="M108.306 24.4307H81.6256V9.48618H95.6396C96.2229 9.48618 96.709 9.00006 96.709 8.41673V1.58334C96.709 1 96.2368 0.5 95.6396 0.5H14.2362C13.6529 0.5 13.1668 0.986113 13.1668 1.58334V8.41673C13.1668 9.00006 13.639 9.48618 14.2362 9.48618H28.2502V24.4307H1.56945C0.986115 24.4307 0.5 24.903 0.5 25.5002V32.3336C0.5 32.9169 0.986115 33.403 1.56945 33.403H21.4168V114.945H13.9445C13.3612 114.945 12.8751 115.417 12.8751 116.015C12.8751 116.612 13.3612 117.084 13.9445 117.084H95.9035C96.4868 117.084 96.9729 116.612 96.9729 116.015C96.9729 115.417 96.4868 114.945 95.9035 114.945H88.4451V33.403H108.292C108.876 33.403 109.362 32.9308 109.362 32.3336V25.5002C109.362 24.9168 108.876 24.4307 108.292 24.4307H108.306ZM15.3057 7.34727V2.65279H94.584V7.34727H15.3057ZM79.4867 9.50006V24.4446H30.403V9.50006H79.4867ZM40.2225 114.945H32.1113V43.6392H40.2225V114.945ZM59.0004 114.945H50.9031V43.6392H59.0004V114.945ZM77.7783 114.945H69.6672V43.6392H77.7783V114.945ZM86.3201 114.945H79.9172V42.5697C79.9172 41.9864 79.445 41.5003 78.8478 41.5003H68.6116C68.0283 41.5003 67.5421 41.9725 67.5421 42.5697V114.945H61.1393V42.5697C61.1393 41.9864 60.6671 41.5003 60.0699 41.5003H49.8198C49.2365 41.5003 48.7503 41.9725 48.7503 42.5697V114.945H42.3475V42.5697C42.3475 41.9864 41.8753 41.5003 41.2781 41.5003H31.0419C30.4586 41.5003 29.9724 41.9725 29.9724 42.5697V114.945H23.5696V33.403H86.3201V114.945ZM107.251 31.2641H2.65279V26.5557H107.251V31.2641Z" fill="#273B70" stroke="#273B70"/>
</svg>
