<svg width="100" height="90" viewBox="0 0 100 90" fill="none" xmlns="http://www.w3.org/2000/svg">
<path d="M93.588 7.56227H91.8498V6.21325C91.8498 2.78883 89.061 0 85.6366 0H82.5883C81.8619 0 81.2912 0.59668 81.2912 1.29713V15.5267H76.9588V6.99154C76.9588 6.26514 76.3751 5.6944 75.6616 5.6944H68.1513C67.4249 5.6944 66.8541 6.27811 66.8541 6.99154V15.5267H32.9212V6.99154C32.9212 6.26514 32.3375 5.6944 31.6241 5.6944H24.1137C23.3873 5.6944 22.8165 6.27811 22.8165 6.99154V15.5267H18.4711V1.29713C18.4711 0.59668 17.8874 0 17.174 0H14.1517C10.7273 0 7.93844 2.78883 7.93844 6.21325V7.56227H6.21325C2.77585 7.56227 0 10.3511 0 13.7755V28.0829C0 31.5073 2.77585 34.2961 6.21325 34.2961H7.93844V35.6452C7.93844 39.0696 10.7273 41.8584 14.1517 41.8584H17.174C17.9004 41.8584 18.4711 41.2617 18.4711 40.5613V26.3318H22.8165V61.6526H18.1858C14.7224 61.6526 11.9077 64.4674 11.9077 67.9308V72.0945C11.9077 72.8209 12.4914 73.3917 13.2048 73.3917H17.3686V87.7509C17.3686 88.4773 17.9653 89.048 18.6657 89.048H27.8753C28.6017 89.048 29.1725 88.4643 29.1725 87.7509V73.3917H70.6288V87.7509C70.6288 88.4773 71.2125 89.048 71.9259 89.048H81.1226C81.849 89.048 82.4197 88.4643 82.4197 87.7509V73.3917H86.5965C87.3229 73.3917 87.8936 72.808 87.8936 72.0945V67.9308C87.8936 64.4674 85.0658 61.6526 81.6155 61.6526H76.9847V26.3318H81.3171V40.5613C81.3171 41.2617 81.9009 41.8584 82.6143 41.8584H85.6366C89.074 41.8584 91.8498 39.0696 91.8498 35.6452V34.2961H93.588C97.0124 34.2961 99.8013 31.5073 99.8013 28.0829V13.7755C99.8013 10.3511 97.0124 7.56227 93.588 7.56227ZM7.88655 31.7149H6.16137C4.16379 31.7149 2.55534 30.0805 2.55534 28.0959V13.8015C2.55534 11.8039 4.17676 10.1955 6.16137 10.1955H7.88655V31.7278V31.7149ZM15.838 38.6934H15.2413V39.2642H14.0998C12.1022 39.2642 10.4938 37.6427 10.4938 35.6581V6.2392C10.4938 4.24162 12.1152 2.63317 14.0998 2.63317H15.838V38.7064V38.6934ZM69.4354 8.30164H74.3256V15.5396H69.4354V8.30164ZM25.3849 8.30164H30.301V15.5396H25.3849V8.30164ZM26.5393 86.4668H19.9369V73.4176H26.5393V86.4668ZM79.7865 86.4668H73.1971V73.4176H79.7865V86.4668ZM81.5895 64.2599C83.4055 64.2599 84.9361 65.6089 85.2085 67.347H85.2604V70.7974H14.476V67.9308C14.476 65.9072 16.1233 64.2599 18.1469 64.2599H81.5766H81.5895ZM25.3849 61.6656V26.3318H30.301V61.6656H25.3849ZM32.8952 61.6656V26.3318H66.8282V61.6656H32.8952ZM69.4354 61.6656V26.3318H74.3516V61.6656H69.4354ZM81.2912 23.7375H18.4452V18.1339H81.2912V23.7375ZM89.2426 35.6452C89.2426 37.6427 87.6212 39.2512 85.6366 39.2512H83.8984V2.59426H85.6366C87.6342 2.59426 89.2426 4.22865 89.2426 6.20028V35.6322V35.6452ZM97.194 28.0829C97.194 30.0805 95.5726 31.6889 93.588 31.6889H91.8498V10.1565H93.588C95.5856 10.1565 97.194 11.778 97.194 13.7626V28.0699V28.0829Z" fill="#273B70"/>
</svg>
