<svg width="106" height="90" viewBox="0 0 106 90" fill="none" xmlns="http://www.w3.org/2000/svg">
<path d="M99.3732 29.7307H39.9387L39.7441 29.2118C39.0177 27.1623 37.072 25.7744 34.8928 25.7744H21.0135C18.8603 25.7744 16.9016 27.1623 16.1623 29.2118L15.9677 29.7307H6.13543C4.50104 29.7307 2.93151 30.3663 1.77707 31.5077C0.635593 32.6492 0 34.2187 0 35.8661C0 38.8754 2.26998 41.4827 5.27932 41.9107L5.95383 42.0275V70.5644C5.95383 75.5972 10.0398 79.6832 15.0727 79.6832H15.8639V84.4437C15.8639 87.2973 18.1728 89.6062 21.0265 89.6062H32.9342C35.7878 89.6062 38.0967 87.2973 38.0967 84.4437V79.6832H67.4638V84.4437C67.4638 87.2973 69.7727 89.6062 72.6264 89.6062H84.534C87.3877 89.6062 89.6966 87.2973 89.6966 84.4437V79.6832H90.4879C95.5207 79.6832 99.6067 75.5972 99.6067 70.5644V42.0275L100.294 41.9107C101.643 41.7162 102.863 41.1324 103.77 40.2245C104.912 39.057 105.548 37.5134 105.548 35.8661C105.548 32.4806 102.798 29.7177 99.3992 29.7177L99.3732 29.7307ZM18.2506 30.9111C18.2506 29.3804 19.5089 28.1352 21.0395 28.1352H34.9188C36.4494 28.1352 37.7076 29.3804 37.7076 30.9111V53.533H18.2636V30.9111H18.2506ZM2.49049 36.6703H2.39969V35.8791C2.39969 34.8932 2.8018 33.9204 3.50225 33.207C4.21567 32.4935 5.17555 32.1044 6.17434 32.1044H15.9028V39.6537H6.17434C4.37133 39.6537 2.86666 38.3825 2.50346 36.6833L2.49049 36.6703ZM35.71 84.4696C35.71 86.0002 34.4648 87.2455 32.9471 87.2455H21.0395C19.5089 87.2455 18.2506 86.0002 18.2506 84.4696V79.7091H35.71V84.4696ZM87.284 84.4696C87.284 86.0002 86.0257 87.2455 84.4951 87.2455H72.5875C71.0568 87.2455 69.8246 86.0002 69.8246 84.4696V79.7091H87.284V84.4696ZM90.449 77.3224H15.0856C11.3629 77.3224 8.34055 74.3001 8.34055 70.5773V42.0275H15.8899V54.7264C15.8899 55.3749 16.4217 55.9068 17.0702 55.9068H38.888C39.5366 55.9068 40.0814 55.3749 40.0814 54.7264V42.0275H97.194V70.5773C97.207 74.3001 94.1847 77.3224 90.4619 77.3224H90.449ZM102.045 38.5512C101.319 39.2646 100.372 39.6667 99.3732 39.6667H40.0684V32.1174H99.3732C101.449 32.1174 103.135 33.8037 103.135 35.8791C103.135 36.3201 103.057 36.7741 102.901 37.2021L102.058 38.5512H102.045Z" fill="#273B70"/>
<path d="M53.6104 8.2757C54.246 8.92426 55.2189 9.91008 55.2189 11.752C55.2189 13.5939 54.246 14.5668 53.5974 15.2413C53.0267 15.8509 52.6765 16.2271 52.6765 17.0573C52.6765 17.7058 52.1447 18.2377 51.4961 18.2377C50.8475 18.2377 50.3027 17.7188 50.3027 17.0573C50.3027 15.2154 51.2756 14.2425 51.9241 13.568C52.4949 12.9454 52.8451 12.5822 52.8451 11.752C52.8451 10.9218 52.5208 10.5716 51.9112 9.92306C51.094 9.10586 50.3027 8.15896 50.3027 6.47269C50.3027 4.64373 51.2756 3.65791 51.9241 3.00935C52.5597 2.32187 52.8451 1.98461 52.8451 1.19336C52.8451 0.544798 53.3769 0 54.0255 0C54.6741 0 55.2189 0.544798 55.2189 1.19336C55.2189 3.00935 54.246 3.99517 53.5974 4.66968C52.9878 5.31824 52.6765 5.65549 52.6765 6.48566C52.6765 7.31582 53.0008 7.66605 53.6104 8.30164V8.2757Z" fill="#273B70"/>
<path d="M35.7491 8.2757C36.3847 8.92426 37.3575 9.91008 37.3575 11.752C37.3575 13.5939 36.3847 14.5668 35.7361 15.2413C35.1654 15.8509 34.8152 16.2271 34.8152 17.0573C34.8152 17.7058 34.2833 18.2377 33.6348 18.2377C32.9862 18.2377 32.4414 17.7188 32.4414 17.0573C32.4414 15.2154 33.4143 14.2425 34.0628 13.568C34.6336 12.9454 34.9838 12.5822 34.9838 11.752C34.9838 10.9218 34.6595 10.5716 34.0499 9.92306C33.2327 9.10586 32.4414 8.15896 32.4414 6.47269C32.4414 4.64373 33.4143 3.65791 34.0628 3.00935C34.6984 2.32187 34.9838 1.98461 34.9838 1.19336C34.9838 0.544798 35.5156 0 36.1642 0C36.8127 0 37.3575 0.544798 37.3575 1.19336C37.3575 3.00935 36.3847 3.99517 35.7361 4.66968C35.1265 5.31824 34.8152 5.65549 34.8152 6.48566C34.8152 7.31582 35.1394 7.66605 35.7491 8.30164V8.2757Z" fill="#273B70"/>
<path d="M71.4593 8.2757C72.0949 8.92426 73.0677 9.91008 73.0677 11.752C73.0677 13.5939 72.0949 14.5668 71.4593 15.2413C70.8756 15.8509 70.5253 16.2271 70.5253 17.0573C70.5253 17.7058 69.9935 18.2377 69.3449 18.2377C68.6964 18.2377 68.1646 17.7188 68.1646 17.0573C68.1646 15.2154 69.1244 14.2425 69.773 13.568C70.3437 12.9454 70.694 12.5822 70.694 11.752C70.694 10.9218 70.3697 10.5716 69.76 9.92306C68.9428 9.10586 68.1646 8.15896 68.1646 6.47269C68.1646 4.64373 69.1244 3.65791 69.773 3.00935C70.4086 2.32187 70.694 1.98461 70.694 1.19336C70.694 0.544798 71.2258 0 71.8743 0C72.5229 0 73.0677 0.544798 73.0677 1.19336C73.0677 3.00935 72.0949 3.99517 71.4593 4.66968C70.8366 5.31824 70.5253 5.65549 70.5253 6.48566C70.5253 7.31582 70.8496 7.66605 71.4593 8.30164V8.2757Z" fill="#273B70"/>
</svg>
