<svg width="119" height="83" viewBox="0 0 119 83" fill="none" xmlns="http://www.w3.org/2000/svg">
<path d="M117.3 79.5401H111.411L95.4299 1.3101C95.1705 0.103768 94.1458 0 93.8215 0H25.0995C24.8011 0 23.7505 0.103768 23.517 1.3101L7.51039 79.5401H1.62141C0.726393 79.5401 0 80.2794 0 81.1615C0 82.0435 0.739365 82.7829 1.62141 82.7829H117.313C118.208 82.7829 118.934 82.0435 118.934 81.1615C118.934 80.2794 118.195 79.5401 117.313 79.5401H117.3ZM52.0409 3.26877H66.8541V43.3761H52.0409V3.26877ZM70.084 46.6448L67.1914 59.6551H51.8204L51.4053 58.0855L48.85 46.6448H70.097H70.084ZM10.844 79.5401L25.0995 9.78037L39.3809 79.5401H10.844ZM42.7016 79.5401L27.6029 3.26877H48.7851V43.3761H46.8005C46.2816 43.3761 45.8276 43.6095 45.5163 43.9857C45.3347 44.2192 45.0623 44.6991 45.205 45.3607L48.8111 61.6397C48.9927 62.392 49.6412 62.9109 50.4195 62.9109H68.4885C69.2668 62.9109 69.9154 62.392 70.071 61.6397L73.6771 45.3607C73.8327 44.7121 73.5344 44.2322 73.3657 43.9857C73.0674 43.6095 72.5875 43.3761 72.0946 43.3761H70.1099V3.26877H91.785L76.1935 79.5401H42.6886H42.7016ZM79.5271 79.5401L93.8085 9.78037L108.064 79.5401H79.5271Z" fill="#273B70"/>
</svg>
