<svg width="107" height="107" viewBox="0 0 107 107" fill="none" xmlns="http://www.w3.org/2000/svg">
<path d="M92.4395 56.4447V56.3997C91.8554 55.5011 91.1515 54.6923 90.3277 53.9884C90.5823 52.9101 90.5824 51.7568 90.4026 50.6335C89.6837 46.3351 85.9993 43.3396 82.2101 43.9836C78.6006 44.5827 76.1294 48.2671 76.5337 52.311C75.5752 52.6854 74.6766 53.1497 73.7929 53.7188C72.9392 54.288 72.1155 54.917 71.3666 55.6209C67.847 53.5541 63.5036 54.1981 61.4218 57.2085C60.3284 58.7961 60.0139 60.7431 60.5381 62.7351C61.0473 64.5923 62.2605 66.2997 63.9529 67.4529C64.9114 68.1119 65.9449 68.5612 67.0232 68.8158C67.2928 69.8493 67.7421 70.8527 68.3113 71.7514C70.1085 74.5521 73.059 76.3643 76.6536 76.8586C80.2481 77.1881 83.6928 76.4243 86.9429 74.4473C93.5928 70.2237 96.0341 62.151 92.4096 56.4447H92.4395ZM85.5201 72.0958L85.1606 72.3355H85.1157C83.0488 73.5486 80.7423 74.1927 78.4958 74.1927C78.0015 74.1927 77.5222 74.1477 77.028 74.0878C74.2722 73.7134 72.0106 72.3504 70.6627 70.2536C70.0636 69.2951 69.6592 68.2467 69.4945 67.0935C69.4196 66.6292 69.0451 66.2697 68.5509 66.2398C67.5175 66.1798 66.484 65.8354 65.5405 65.2063C64.3872 64.3976 63.5635 63.2743 63.219 62.0162C62.9045 60.818 63.0842 59.6648 63.7133 58.7661C64.9714 56.9239 68.0567 56.6394 70.3781 58.197C70.5728 58.3468 70.7675 58.4965 70.9473 58.6463C71.142 58.826 71.3966 58.9159 71.6662 58.9009C71.9357 58.886 72.1754 58.7661 72.3551 58.5714C73.1789 57.6279 74.1674 56.7742 75.3056 56.0553C76.384 55.3513 77.5672 54.8271 78.8402 54.4527C79.3644 54.3029 79.664 53.7338 79.5292 53.1946C79.4543 52.94 79.3944 52.7004 79.3495 52.4757C79.0948 50.963 79.4243 49.4204 80.2331 48.2971C80.8622 47.4434 81.7458 46.8743 82.6894 46.7095C83.6479 46.5298 84.6514 46.7844 85.5201 47.4134C86.6583 48.2222 87.4521 49.5701 87.7217 51.0828C87.9014 52.1912 87.7816 53.2995 87.3922 54.273C87.2125 54.7223 87.3772 55.2465 87.7666 55.5011C88.7252 56.1302 89.504 56.924 90.133 57.8825C92.9487 62.3157 90.8819 68.696 85.5201 72.0958Z" fill="#273B70"/>
<path d="M103.732 34.159L103.537 33.5599C99.119 20.35 89.953 9.98578 77.7017 4.35436C70.3928 0.999465 62.2602 -0.468299 54.1425 0.130789C46.8337 0.65499 39.4349 2.90157 32.8 6.61591L32.3358 6.8855L31.8265 6.37627C29.5949 4.21956 26.6893 3.05134 23.604 3.12623C18.8862 3.23107 14.7675 6.15162 13.0601 10.5998L12.8654 11.0941H12.3412C11.9518 11.0492 11.6373 11.0492 11.3228 11.0492C5.09224 11.169 0 16.426 0 22.7613V29.8755C0 32.3317 2.00694 34.3537 4.47818 34.3537C5.58649 34.3537 6.64987 33.9493 7.4886 33.2004L8.95635 31.8675V22.5966C8.95635 21.1887 10.1096 20.0355 11.5025 20.0205C12.1914 20.0205 12.8055 20.2751 13.2997 20.7394C13.8239 21.2636 14.1235 21.9675 14.1235 22.7014V23.8696L14.0037 24.0494C12.6108 26.1462 11.3827 28.258 10.3492 30.3398L9.31581 32.4665L8.67179 34.0092C3.47471 46.5002 2.90557 60.2492 7.05426 72.7103C11.4725 85.9201 20.6535 96.2993 32.8899 101.916C45.0813 107.532 59.07 107.727 71.8755 102.5C84.7559 97.2429 95.1351 87.1782 101.126 74.178C107.012 61.3276 107.956 47.1442 103.762 34.144L103.732 34.159ZM37.7575 6.3613C50.4132 0.684944 64.5966 0.595078 76.6982 6.10668L76.8779 6.16659C91.4357 12.8764 101.485 26.8052 103.777 43.4898L104.346 47.6684L102.414 43.9391C98.52 36.4655 93.0683 29.6359 87.0624 24.6484C80.0081 18.8073 68.6405 12.5319 54.5769 15.8568L54.1725 15.9617L53.873 15.6472C52.7347 14.3891 51.4167 13.2658 49.9489 12.2623C46.639 10.0457 42.6251 8.54797 37.9522 7.78413L35.5409 7.37975L37.7725 6.37627L37.7575 6.3613ZM15.1569 10.7945C16.6846 7.43966 20.0095 5.22303 23.604 5.14815H23.7538C26.2999 5.14815 28.6813 6.10669 30.4786 7.88897C32.3208 9.70121 33.3392 12.1125 33.3392 14.6886V31.5979C33.3392 32.9608 32.2309 34.0841 30.853 34.0841C29.4751 34.0841 28.3968 32.9758 28.3968 31.5979V14.7935C28.3968 13.5354 27.8875 12.3072 26.9889 11.4086C26.1052 10.5549 24.952 10.0756 23.7239 10.1056C21.9116 10.1206 20.2042 11.3038 19.5452 13.0112L19.1858 13.9098L18.407 13.3407C17.5533 12.6967 16.5947 12.1724 15.5763 11.783L14.8274 11.5135L15.1569 10.8095V10.7945ZM11.5474 18.0136C8.97134 18.0585 6.93443 20.1104 6.93443 22.5816V29.8905C6.93443 31.2384 5.8411 32.3467 4.47818 32.3467C3.11525 32.3467 2.02192 31.2384 2.02192 29.8905V22.7763C2.02192 17.5193 6.23051 13.1609 11.3677 13.0561H11.5624C14.0636 13.0561 16.43 14.0146 18.2272 15.7969C20.0694 17.5942 21.0879 20.0205 21.0879 22.5966V43.5946C21.0879 44.9575 19.9945 46.0509 18.6316 46.0509C17.2687 46.0509 16.1754 44.9575 16.1754 43.5946V22.7014C16.1754 21.4433 15.6661 20.2152 14.7525 19.3166C13.8988 18.4778 12.7606 18.0136 11.5923 18.0136H11.5474ZM19.0809 89.4548L18.7514 89.0803C5.42174 74.178 2.48621 52.1466 11.3078 32.9608L11.9967 33.2304L11.3377 32.9308C11.787 31.9573 12.2513 30.9988 12.7606 30.0402L14.1235 27.4642V43.5946C14.1235 46.0509 16.1304 48.0728 18.6017 48.0728C21.0729 48.0728 23.0798 46.0658 23.0798 43.5946V22.5966C23.0798 20.4399 22.4957 18.3281 21.3425 16.5009L21.2227 16.3211V14.6736C21.2227 13.2658 22.3759 12.1125 23.7838 12.0976C24.4428 12.0976 25.0718 12.3522 25.581 12.8165C26.1052 13.3407 26.4048 14.0446 26.4048 14.7785V31.5829C26.4048 34.0691 28.3967 36.076 30.883 36.076C33.3692 36.076 35.3611 34.0691 35.3611 31.5829V14.6736C35.3611 13.2059 35.0916 11.783 34.5374 10.4351L34.1031 9.29683L35.3012 9.43162C46.7438 10.6897 54.2174 15.9767 56.3891 24.3489C59.2797 35.4919 51.7761 48.7018 37.7275 57.2538C26.285 64.1882 25.9854 72.4856 25.7458 78.5214C25.5511 83.7035 25.4313 87.4178 19.5452 89.29L19.0959 89.4398L19.0809 89.4548ZM33.459 99.9987L33.2494 99.8938C28.891 97.827 24.922 95.1311 21.4623 91.8361L20.6535 91.0723L21.672 90.623C27.4232 88.1218 27.573 83.4938 27.7527 78.5813C27.9624 72.3808 28.217 65.3415 38.7759 58.9312C48.2565 53.18 55.1909 45.0324 57.8419 36.6003L58.5458 34.3387L59.2348 36.6302C61.9307 45.5566 59.2198 50.2894 56.3442 55.2918C53.3487 60.4889 49.9939 66.3599 52.1655 77.3082C53.2439 82.6851 52.4351 87.313 49.7542 91.0274C45.1562 97.4226 36.3047 99.4745 33.6837 99.9388L33.474 99.9837L33.459 99.9987ZM104.211 53.3747C103.852 60.2193 102.219 66.8841 99.3437 73.1745L99.2838 73.3543C90.4473 92.555 71.9804 104.297 52.8695 104.297C48.1816 104.297 43.4638 103.578 38.8359 102.11L36.6791 101.407L38.8359 100.703C42.67 99.4296 47.9719 96.9284 51.3718 92.2255C54.3822 88.0169 55.2958 82.8648 54.1126 76.9039C52.0757 66.7194 54.9962 61.6721 58.0815 56.3252C61.5563 50.2594 65.1358 44.014 59.0551 30.5345L58.9802 30.3847V30.205C59.085 28.0333 58.8604 25.8916 58.3362 23.8547C57.8719 22.0424 57.123 20.2601 56.1046 18.5977L55.5504 17.6841L56.5838 17.4894C80.9667 12.9213 98.7147 36.9148 104.166 53.1201L104.211 53.2549V53.3897V53.3747Z" fill="#273B70"/>
</svg>
