<svg width="89" height="105" viewBox="0 0 89 105" fill="none" xmlns="http://www.w3.org/2000/svg">
<path d="M11.5185 27.1485C10.2473 25.8773 8.5481 25.1768 6.77103 25.1768L6.58943 25.1509C4.86424 25.1898 3.22986 25.8902 1.99758 27.1485C0.700452 28.4197 0 30.1059 0 31.896C0 33.686 0.700456 35.3982 1.97164 36.6435C3.24283 37.8887 4.98099 38.6151 6.74509 38.6151C8.50919 38.6151 10.1436 37.9536 11.4018 36.7343L11.5445 36.6305C12.7767 35.3982 13.4772 33.673 13.4772 31.896C13.4772 30.1189 12.7897 28.3937 11.5185 27.1225V27.1485ZM9.81928 34.9442C8.92426 35.8003 7.89953 36.2154 6.77103 36.2154C5.64252 36.2154 4.50105 35.7614 3.69683 34.9442C2.87964 34.127 2.42564 33.0245 2.42564 31.896C2.42564 30.7675 2.87964 29.6519 3.69683 28.8218C5.04585 27.4727 7.31582 27.2003 8.98912 28.1991L9.80632 28.8218C10.6235 29.626 11.0775 30.7156 11.0775 31.896C11.0775 33.0763 10.6105 34.14 9.80632 34.9442H9.81928Z" fill="#273B70"/>
<path d="M46.7098 92.6796C45.4386 91.4085 43.7523 90.708 41.9623 90.708H41.9493C40.1723 90.708 38.486 91.4085 37.2148 92.6796C35.9306 93.9508 35.2432 95.6501 35.2432 97.4271C35.2432 99.2042 35.9306 100.929 37.2018 102.201C38.473 103.472 40.1723 104.172 41.9493 104.172C43.7264 104.172 45.4256 103.472 46.6968 102.201C47.994 100.916 48.6944 99.2302 48.6944 97.4271C48.6944 95.6241 47.994 93.9508 46.7228 92.6796H46.7098ZM45.0106 100.501C44.2063 101.306 43.0908 101.747 41.9364 101.747C40.7819 101.747 39.6923 101.293 38.8881 100.475C38.0709 99.6712 37.6429 98.5816 37.6429 97.4271C37.6429 96.2727 38.0968 95.1831 38.8881 94.3529C39.7053 93.5487 40.7819 93.1077 41.9623 93.1077C43.1427 93.1077 44.2063 93.5747 45.0365 94.3789L45.6591 95.222C46.0742 95.8706 46.2817 96.6359 46.2817 97.4271C46.2817 98.5946 45.8278 99.6712 45.0106 100.501Z" fill="#273B70"/>
<path d="M69.2797 80.4085C67.5416 78.6704 65.1549 77.5938 62.4957 77.5938C59.8366 77.5938 57.4499 78.6704 55.7117 80.4085C53.9866 82.1467 52.897 84.5334 52.897 87.1925C52.897 89.8516 53.9866 92.2513 55.7117 93.9765C57.4499 95.7147 59.8626 96.7913 62.4957 96.7913C65.1289 96.7913 67.5546 95.7147 69.2797 93.9765C71.0179 92.2384 72.0945 89.8516 72.0945 87.1925C72.0945 84.5334 71.0179 82.1467 69.2797 80.4085ZM62.4957 93.8598C60.7187 93.8598 59.0324 93.1723 57.7612 91.9011C56.5289 90.6559 55.8025 88.9307 55.8025 87.1666C55.8025 85.4025 56.503 83.7032 57.7612 82.432C59.0324 81.1998 60.7576 80.4734 62.4957 80.4734C64.2339 80.4734 65.972 81.1738 67.2303 82.432C68.4755 83.7032 69.1889 85.4284 69.1889 87.1666C69.1889 88.9047 68.5015 90.6429 67.2303 91.9011C65.985 93.1464 64.2598 93.8598 62.4957 93.8598Z" fill="#273B70"/>
<path d="M88.0881 22.3755C87.8936 22.1161 87.5952 21.9604 87.2839 21.9215C86.6354 21.8177 86.0127 22.2977 85.9349 22.9592C85.4031 26.8895 83.7298 29.7043 80.9539 31.2868C79.0212 32.4023 76.4918 32.9471 73.4435 32.9471C69.4354 32.9471 66.8152 33.2195 65.2327 33.8422L64.9214 33.9848L64.7009 33.7514C60.9521 30.0156 57.1386 26.695 53.3639 23.8802L52.9359 23.5429L53.2861 23.1538C56.6327 19.4181 56.4511 14.3592 56.2954 9.87117C56.1917 7.01748 56.1138 4.59184 57.3721 3.30768C57.9558 2.72397 58.7859 2.41266 59.8496 2.41266C60.5111 2.41266 61.0559 1.86787 61.0559 1.20633C61.0559 0.544796 60.5111 0 59.8496 0C57.7223 0 56.2306 0.466966 55.2967 1.45279C53.6752 3.13906 53.766 6.27812 53.9087 9.92306C54.0514 13.7366 54.22 18.4452 51.0939 21.7529L50.7956 22.0512L50.4584 21.8307C49.2261 21.0135 48.2532 20.3779 47.3452 19.872C41.6768 16.5514 37.3184 15.7601 35.3727 17.7058C34.8798 18.2117 34.5685 18.8603 34.4128 19.6775L23.8542 43.7263C23.5948 44.31 23.8801 45.0364 24.4768 45.3088C24.7492 45.4255 25.0865 45.4515 25.3718 45.3347C25.6702 45.218 25.9037 44.9845 26.0334 44.6862L29.1595 37.5649L29.6264 38.5378C32.8693 45.4255 37.0979 51.4831 42.1437 56.529C47.2026 61.5748 53.2472 65.7905 60.1479 69.0593L61.1078 69.5133L43.1944 77.3868L42.9739 77.2701C38.4599 74.6369 34.3739 71.4849 30.7679 67.9048C27.1878 64.3118 24.0358 60.1999 21.4026 55.6988L21.2859 55.4783L23.1667 51.1978C23.3094 50.9254 23.3094 50.5881 23.1797 50.3027C23.05 50.0174 22.8295 49.7709 22.5311 49.6412C22.2328 49.4985 21.9215 49.4985 21.6361 49.6153C21.3378 49.732 21.0913 49.9655 20.9746 50.2638L18.8862 54.9335L18.8473 55.0762L10.2084 74.7407L10.1435 74.8964L4.00809 88.8535C3.59301 89.7485 3.46329 90.6954 3.58003 91.5775C3.6838 92.4725 4.08591 93.3156 4.73448 93.9642C5.3571 94.5868 6.18727 95.0019 7.12121 95.1186C8.00325 95.2224 8.93719 95.0538 9.79329 94.6906L78.9174 64.3247C79.8513 64.1431 80.5258 63.8189 81.0058 63.326C82.0175 62.2882 82.3289 60.7057 81.9268 58.6303C81.5765 56.8533 80.6815 54.6611 79.2676 52.1187C78.9563 51.548 78.217 51.3405 77.6462 51.6518C77.0625 51.989 76.8679 52.7024 77.1793 53.2991C78.4634 55.608 79.2676 57.5667 79.566 59.1103C79.7865 60.122 79.7865 60.8744 79.5271 61.3413L79.4492 61.497L77.8797 62.1456C75.9081 62.1456 72.6393 60.4852 70.2526 59.0973C65.1159 56.1009 59.0843 51.2626 53.2861 45.4515C47.462 39.6014 42.6107 33.5827 39.6403 28.4591C38.2524 26.0983 36.592 22.8684 36.592 20.8579L36.6309 20.6633L37.2406 19.2883L37.3833 19.2105C39.0306 18.1988 43.0517 20.1444 46.1389 21.9734C46.7615 22.3236 47.4101 22.7128 48.0716 23.1408L48.798 23.6078L48.0197 23.984C47.1377 24.438 46.1389 24.7882 45.0623 25.0995C44.4137 25.2811 44.0246 25.9167 44.2062 26.5652C44.3878 27.2138 45.0234 27.577 45.6979 27.4214C47.6566 26.8895 49.3299 26.1891 50.7178 25.333L50.9902 25.1514L51.2626 25.3459C55.0372 28.0829 59.0583 31.5462 62.9108 35.3987L63.1702 35.6581L62.9886 35.9694C62.846 36.2289 62.7292 36.5013 62.6125 36.7477C62.0677 37.9151 61.4191 39.329 58.0595 40.8207C57.7612 40.9634 57.5277 41.1969 57.411 41.4823C57.2942 41.7676 57.2942 42.1049 57.4369 42.4032C57.5796 42.7145 57.7872 42.935 58.0855 43.0518C58.3449 43.1556 58.6173 43.1685 58.8638 43.0907L59.0065 43.0258C62.833 41.3396 63.8707 39.6792 64.5971 38.1227L64.9084 37.4741L65.998 38.6415C67.1265 39.8738 68.0085 40.8467 68.7738 41.7287C69.2019 42.2216 69.9672 42.2735 70.4601 41.8455C70.7195 41.6249 70.8493 41.3396 70.8752 41.0283C70.8882 40.691 70.7974 40.3797 70.5769 40.1462C69.617 39.0177 68.6182 37.9151 67.7751 36.9942L66.7244 35.8786L67.5805 35.6971C68.7868 35.4376 70.6287 35.3468 73.4046 35.3598C76.829 35.3598 79.7606 34.7112 82.1084 33.3622C85.5847 31.3646 87.6601 27.9791 88.2827 23.2705C88.3216 22.9592 88.2438 22.6479 88.0492 22.3755H88.0881ZM8.89827 92.5114C8.48319 92.693 8.08108 92.7838 7.73086 92.7838C7.62709 92.7838 7.54925 92.7838 7.45845 92.7578C7.10823 92.7189 6.758 92.5373 6.4856 92.2649C6.21321 92.0055 6.05755 91.6553 5.9927 91.2921C5.95378 90.8251 6.04458 90.3322 6.26509 89.8652L11.6093 77.6982L12.1152 78.3078C13.4123 79.8773 14.6964 81.3042 16.0844 82.6921C17.4723 84.08 18.964 85.4161 20.4687 86.6613L21.0783 87.1542L20.2611 87.5304L19.7682 87.7509L8.91124 92.5244L8.89827 92.5114ZM23.5818 86.0517L23.3483 85.8701C21.3378 84.3006 19.4829 82.6662 17.7707 80.9799C16.0714 79.2807 14.424 77.3998 12.8805 75.4022L12.6989 75.1688L20.1444 58.2023L20.6373 58.9676C23.1148 62.8979 25.9815 66.478 29.1206 69.6041C32.2726 72.7561 35.8527 75.6098 39.757 78.0873L40.5353 78.5802L23.5688 86.0517H23.5818ZM37.6038 29.6654C40.7169 34.9836 45.6849 41.1969 51.6258 47.1248C57.5666 53.0656 63.7669 58.0596 69.1111 61.1597C70.6417 62.0548 72.0686 62.7812 73.3527 63.2741L74.4293 63.7021L64.182 68.2161L63.9874 68.1383C56.2306 64.8566 49.4855 60.3815 43.9208 54.8427C38.3821 49.3299 33.9329 42.5848 30.6252 34.7761L30.5474 34.5815L35.0484 24.3342L35.4765 25.4108C36.0472 26.7858 36.7477 28.2126 37.6038 29.6524V29.6654Z" fill="#273B70"/>
<path d="M83.3018 1.85456C83.3018 2.54203 82.757 3.06089 82.0955 3.06089C80.2406 3.06089 78.9305 3.48894 78.0873 4.38396C76.7513 5.77189 76.881 8.01593 76.9977 10.2081C77.1534 13.6325 77.3091 17.1737 75.1039 19.5734C73.3658 21.4542 70.3564 22.453 65.9202 22.6605V22.6216L65.4273 22.6476C65.0901 22.6865 64.8047 22.5438 64.5712 22.3103C64.3378 22.0898 64.1951 21.8044 64.1951 21.4672C64.1821 20.8056 64.688 20.2738 65.3495 20.2608C69.0204 20.1441 71.5239 19.3269 72.9896 17.7185C74.8445 15.7079 74.7148 12.8283 74.5981 10.2859C74.4554 7.15982 74.3257 4.20236 75.986 2.45123C77.1534 1.2449 79.151 0.635254 82.1084 0.635254C82.77 0.635254 83.3148 1.18005 83.3148 1.84159L83.3018 1.85456Z" fill="#273B70"/>
<path d="M69.6302 80.0586C67.7104 78.1647 65.1681 77.1011 62.496 77.1011C59.8239 77.1011 57.2815 78.1518 55.3618 80.0586C53.4679 81.9913 52.4043 84.5207 52.4043 87.1928C52.4043 89.8649 53.455 92.4332 55.3618 94.327C57.2945 96.2208 59.8239 97.2845 62.496 97.2845C65.1681 97.2845 67.7364 96.2338 69.6302 94.327C71.524 92.4072 72.5877 89.8649 72.5877 87.1928C72.5877 84.5207 71.537 81.9783 69.6302 80.0586ZM62.496 96.2986C60.0963 96.2986 57.7874 95.3388 56.0622 93.6395C54.337 91.9143 53.3901 89.6314 53.3901 87.1928C53.3901 84.7542 54.35 82.4842 56.0622 80.759C57.7874 79.0338 60.0703 78.0739 62.496 78.0739C64.9216 78.0739 67.2046 79.0338 68.9427 80.759C70.6679 82.4842 71.6018 84.7671 71.6018 87.1928C71.6018 89.6184 70.6679 91.9014 68.9427 93.6395C67.2175 95.3647 64.9346 96.2986 62.496 96.2986ZM76.1418 45.477L75.9602 45.2436C75.2598 44.2707 73.8848 44.0502 72.9249 44.7507C72.4579 45.0879 72.1466 45.5938 72.0429 46.1775C71.965 46.7482 72.0948 47.3319 72.432 47.7859L72.6136 48.0194C72.9509 48.4864 73.4567 48.7977 74.0404 48.9015C74.1572 48.9274 74.2739 48.9274 74.3777 48.9274C74.8447 48.9274 75.2727 48.7847 75.6489 48.5123C76.1159 48.1751 76.4272 47.6692 76.5309 47.0855C76.6088 46.5147 76.4661 45.931 76.1418 45.477ZM75.0911 47.7341C74.8317 47.9157 74.5204 47.9935 74.2091 47.9286C73.8718 47.8897 73.5994 47.7081 73.4049 47.4617L73.2492 47.2282C73.0546 46.9687 72.9768 46.6574 73.0287 46.3331C73.0676 46.0218 73.2492 45.7494 73.4957 45.5549C74.0275 45.1787 74.7928 45.2954 75.1819 45.8273L75.3635 46.0608C75.5451 46.3202 75.6229 46.6315 75.5581 46.9428C75.5192 47.2801 75.3376 47.5525 75.0911 47.747V47.7341Z" fill="#273B70"/>
</svg>
