<svg width="69" height="114" viewBox="0 0 69 114" fill="none" xmlns="http://www.w3.org/2000/svg">
<path d="M16.0066 23.5559C13.5939 23.5559 10.9348 26.0334 10.844 31.5073C10.9348 36.9293 13.581 39.4198 16.0066 39.4198C18.4322 39.4198 21.0784 36.9423 21.1692 31.4943C21.0784 26.0464 18.4322 23.5689 16.0066 23.5689V23.5559ZM16.0196 37.3055C14.5798 37.3055 12.9843 34.9058 12.9843 31.4684C12.9843 28.031 14.5798 25.6313 16.0196 25.6313C17.4594 25.6313 19.0289 28.031 19.0289 31.4684C19.0289 34.9058 17.4464 37.3055 16.0196 37.3055ZM28.2256 14.7873C25.8129 14.7873 23.1538 17.2648 23.063 22.7257C23.063 27.1749 25.333 30.6901 28.2256 30.6901C31.1182 30.6901 33.3882 27.1749 33.3882 22.7128C33.2974 17.2648 30.6512 14.7873 28.2256 14.7873ZM28.2256 28.5499C26.8117 28.5499 25.2162 26.1502 25.2162 22.7128C25.2162 19.2754 26.8117 16.8757 28.2256 16.8757C29.6395 16.8757 31.2609 19.2754 31.2609 22.7128C31.2609 26.1502 29.6654 28.5499 28.2256 28.5499ZM41.9103 14.7873C39.4847 14.7873 36.8256 17.2648 36.7348 22.7257C36.7348 27.1749 39.0047 30.6901 41.8973 30.6901C44.7899 30.6901 47.0599 27.1749 47.0729 22.7128C46.9691 17.2648 44.323 14.7873 41.9103 14.7873ZM41.8973 28.5499C40.4835 28.5499 38.888 26.1502 38.888 22.7128C38.888 19.2754 40.4835 16.8757 41.8973 16.8757C43.3112 16.8757 44.9326 19.2754 44.9326 22.7128C44.9326 26.1502 43.3372 28.5499 41.8973 28.5499ZM48.0328 42.5589L41.9363 36.4883C38.0578 32.5839 31.7019 32.5839 27.7975 36.4883L21.5064 42.7794C20.0147 44.2451 19.2235 46.2168 19.2365 48.3311C19.2494 51.4053 21.0654 54.0385 23.958 55.2059C26.3318 56.1787 29.847 56.2306 32.558 53.4548L32.8823 53.1824C33.466 52.7154 34.1794 52.5079 34.8928 52.5079C35.723 52.5079 36.5661 52.8062 37.2017 53.4288C41.0672 57.1905 45.5682 56.2177 48.1236 53.7142C50.7178 51.1588 51.8074 46.58 48.0587 42.5459L48.0328 42.5589ZM46.7097 52.1187C45.7109 53.1175 44.31 53.805 42.7924 53.805C41.5341 53.805 40.1851 53.338 38.9269 52.1706C37.9281 51.0291 36.5142 50.4195 35.0096 50.3806C33.5049 50.3806 32.0651 50.9124 31.0922 51.9371C28.9649 54.0644 25.6183 54.272 23.4521 52.5079L23.1927 52.2744C22.0901 51.2756 21.4545 49.8487 21.4416 48.2792C21.4286 46.7486 22.0123 45.2828 23.076 44.2711L29.3541 37.993C32.4283 34.9188 37.4093 34.9188 40.4705 37.993L46.567 44.0895C49.1742 46.8005 48.6295 50.173 46.7227 52.1058L46.7097 52.1187ZM54.8427 23.5559C52.4171 23.5559 49.7709 26.0334 49.6801 31.5073C49.6801 35.9565 51.9501 39.4717 54.8427 39.4717C57.7353 39.4717 60.0053 35.9824 60.0053 31.5073C59.9145 26.0464 57.2683 23.5559 54.8427 23.5559ZM54.8427 37.3055C53.4029 37.3055 51.8334 34.9058 51.8334 31.4684C51.8334 28.031 53.4159 25.6313 54.8427 25.6313C56.2696 25.6313 57.852 28.031 57.852 31.4684C57.852 34.9058 56.2696 37.3055 54.8427 37.3055ZM54.8427 23.5559C52.4171 23.5559 49.7709 26.0334 49.6801 31.5073C49.6801 35.9565 51.9501 39.4717 54.8427 39.4717C57.7353 39.4717 60.0053 35.9824 60.0053 31.5073C59.9145 26.0464 57.2683 23.5559 54.8427 23.5559ZM54.8427 37.3055C53.4029 37.3055 51.8334 34.9058 51.8334 31.4684C51.8334 28.031 53.4159 25.6313 54.8427 25.6313C56.2696 25.6313 57.852 28.031 57.852 31.4684C57.852 34.9058 56.2696 37.3055 54.8427 37.3055ZM48.0328 42.5589L41.9363 36.4883C38.0578 32.5839 31.7019 32.5839 27.7975 36.4883L21.5064 42.7794C20.0147 44.2451 19.2235 46.2168 19.2365 48.3311C19.2494 51.4053 21.0654 54.0385 23.958 55.2059C26.3318 56.1787 29.847 56.2306 32.558 53.4548L32.8823 53.1824C33.466 52.7154 34.1794 52.5079 34.8928 52.5079C35.723 52.5079 36.5661 52.8062 37.2017 53.4288C41.0672 57.1905 45.5682 56.2177 48.1236 53.7142C50.7178 51.1588 51.8074 46.58 48.0587 42.5459L48.0328 42.5589ZM46.7097 52.1187C45.7109 53.1175 44.31 53.805 42.7924 53.805C41.5341 53.805 40.1851 53.338 38.9269 52.1706C37.9281 51.0291 36.5142 50.4195 35.0096 50.3806C33.5049 50.3806 32.0651 50.9124 31.0922 51.9371C28.9649 54.0644 25.6183 54.272 23.4521 52.5079L23.1927 52.2744C22.0901 51.2756 21.4545 49.8487 21.4416 48.2792C21.4286 46.7486 22.0123 45.2828 23.076 44.2711L29.3541 37.993C32.4283 34.9188 37.4093 34.9188 40.4705 37.993L46.567 44.0895C49.1742 46.8005 48.6295 50.173 46.7227 52.1058L46.7097 52.1187ZM41.9103 14.7873C39.4847 14.7873 36.8256 17.2648 36.7348 22.7257C36.7348 27.1749 39.0047 30.6901 41.8973 30.6901C44.7899 30.6901 47.0599 27.1749 47.0729 22.7128C46.9691 17.2648 44.323 14.7873 41.9103 14.7873ZM41.8973 28.5499C40.4835 28.5499 38.888 26.1502 38.888 22.7128C38.888 19.2754 40.4835 16.8757 41.8973 16.8757C43.3112 16.8757 44.9326 19.2754 44.9326 22.7128C44.9326 26.1502 43.3372 28.5499 41.8973 28.5499ZM28.2256 14.7873C25.8129 14.7873 23.1538 17.2648 23.063 22.7257C23.063 27.1749 25.333 30.6901 28.2256 30.6901C31.1182 30.6901 33.3882 27.1749 33.3882 22.7128C33.2974 17.2648 30.6512 14.7873 28.2256 14.7873ZM28.2256 28.5499C26.8117 28.5499 25.2162 26.1502 25.2162 22.7128C25.2162 19.2754 26.8117 16.8757 28.2256 16.8757C29.6395 16.8757 31.2609 19.2754 31.2609 22.7128C31.2609 26.1502 29.6654 28.5499 28.2256 28.5499ZM16.0066 23.5559C13.5939 23.5559 10.9348 26.0334 10.844 31.5073C10.9348 36.9293 13.581 39.4198 16.0066 39.4198C18.4322 39.4198 21.0784 36.9423 21.1692 31.4943C21.0784 26.0464 18.4322 23.5689 16.0066 23.5689V23.5559ZM16.0196 37.3055C14.5798 37.3055 12.9843 34.9058 12.9843 31.4684C12.9843 28.031 14.5798 25.6313 16.0196 25.6313C17.4594 25.6313 19.0289 28.031 19.0289 31.4684C19.0289 34.9058 17.4464 37.3055 16.0196 37.3055ZM16.0066 23.5559C13.5939 23.5559 10.9348 26.0334 10.844 31.5073C10.9348 36.9293 13.581 39.4198 16.0066 39.4198C18.4322 39.4198 21.0784 36.9423 21.1692 31.4943C21.0784 26.0464 18.4322 23.5689 16.0066 23.5689V23.5559ZM16.0196 37.3055C14.5798 37.3055 12.9843 34.9058 12.9843 31.4684C12.9843 28.031 14.5798 25.6313 16.0196 25.6313C17.4594 25.6313 19.0289 28.031 19.0289 31.4684C19.0289 34.9058 17.4464 37.3055 16.0196 37.3055ZM28.2256 14.7873C25.8129 14.7873 23.1538 17.2648 23.063 22.7257C23.063 27.1749 25.333 30.6901 28.2256 30.6901C31.1182 30.6901 33.3882 27.1749 33.3882 22.7128C33.2974 17.2648 30.6512 14.7873 28.2256 14.7873ZM28.2256 28.5499C26.8117 28.5499 25.2162 26.1502 25.2162 22.7128C25.2162 19.2754 26.8117 16.8757 28.2256 16.8757C29.6395 16.8757 31.2609 19.2754 31.2609 22.7128C31.2609 26.1502 29.6654 28.5499 28.2256 28.5499ZM41.9103 14.7873C39.4847 14.7873 36.8256 17.2648 36.7348 22.7257C36.7348 27.1749 39.0047 30.6901 41.8973 30.6901C44.7899 30.6901 47.0599 27.1749 47.0729 22.7128C46.9691 17.2648 44.323 14.7873 41.9103 14.7873ZM41.8973 28.5499C40.4835 28.5499 38.888 26.1502 38.888 22.7128C38.888 19.2754 40.4835 16.8757 41.8973 16.8757C43.3112 16.8757 44.9326 19.2754 44.9326 22.7128C44.9326 26.1502 43.3372 28.5499 41.8973 28.5499ZM48.0328 42.5589L41.9363 36.4883C38.0578 32.5839 31.7019 32.5839 27.7975 36.4883L21.5064 42.7794C20.0147 44.2451 19.2235 46.2168 19.2365 48.3311C19.2494 51.4053 21.0654 54.0385 23.958 55.2059C26.3318 56.1787 29.847 56.2306 32.558 53.4548L32.8823 53.1824C33.466 52.7154 34.1794 52.5079 34.8928 52.5079C35.723 52.5079 36.5661 52.8062 37.2017 53.4288C41.0672 57.1905 45.5682 56.2177 48.1236 53.7142C50.7178 51.1588 51.8074 46.58 48.0587 42.5459L48.0328 42.5589ZM46.7097 52.1187C45.7109 53.1175 44.31 53.805 42.7924 53.805C41.5341 53.805 40.1851 53.338 38.9269 52.1706C37.9281 51.0291 36.5142 50.4195 35.0096 50.3806C33.5049 50.3806 32.0651 50.9124 31.0922 51.9371C28.9649 54.0644 25.6183 54.272 23.4521 52.5079L23.1927 52.2744C22.0901 51.2756 21.4545 49.8487 21.4416 48.2792C21.4286 46.7486 22.0123 45.2828 23.076 44.2711L29.3541 37.993C32.4283 34.9188 37.4093 34.9188 40.4705 37.993L46.567 44.0895C49.1742 46.8005 48.6295 50.173 46.7227 52.1058L46.7097 52.1187ZM54.8427 23.5559C52.4171 23.5559 49.7709 26.0334 49.6801 31.5073C49.6801 35.9565 51.9501 39.4717 54.8427 39.4717C57.7353 39.4717 60.0053 35.9824 60.0053 31.5073C59.9145 26.0464 57.2683 23.5559 54.8427 23.5559ZM54.8427 37.3055C53.4029 37.3055 51.8334 34.9058 51.8334 31.4684C51.8334 28.031 53.4159 25.6313 54.8427 25.6313C56.2696 25.6313 57.852 28.031 57.852 31.4684C57.852 34.9058 56.2696 37.3055 54.8427 37.3055ZM54.8427 23.5559C52.4171 23.5559 49.7709 26.0334 49.6801 31.5073C49.6801 35.9565 51.9501 39.4717 54.8427 39.4717C57.7353 39.4717 60.0053 35.9824 60.0053 31.5073C59.9145 26.0464 57.2683 23.5559 54.8427 23.5559ZM54.8427 37.3055C53.4029 37.3055 51.8334 34.9058 51.8334 31.4684C51.8334 28.031 53.4159 25.6313 54.8427 25.6313C56.2696 25.6313 57.852 28.031 57.852 31.4684C57.852 34.9058 56.2696 37.3055 54.8427 37.3055ZM48.0328 42.5589L41.9363 36.4883C38.0578 32.5839 31.7019 32.5839 27.7975 36.4883L21.5064 42.7794C20.0147 44.2451 19.2235 46.2168 19.2365 48.3311C19.2494 51.4053 21.0654 54.0385 23.958 55.2059C26.3318 56.1787 29.847 56.2306 32.558 53.4548L32.8823 53.1824C33.466 52.7154 34.1794 52.5079 34.8928 52.5079C35.723 52.5079 36.5661 52.8062 37.2017 53.4288C41.0672 57.1905 45.5682 56.2177 48.1236 53.7142C50.7178 51.1588 51.8074 46.58 48.0587 42.5459L48.0328 42.5589ZM46.7097 52.1187C45.7109 53.1175 44.31 53.805 42.7924 53.805C41.5341 53.805 40.1851 53.338 38.9269 52.1706C37.9281 51.0291 36.5142 50.4195 35.0096 50.3806C33.5049 50.3806 32.0651 50.9124 31.0922 51.9371C28.9649 54.0644 25.6183 54.272 23.4521 52.5079L23.1927 52.2744C22.0901 51.2756 21.4545 49.8487 21.4416 48.2792C21.4286 46.7486 22.0123 45.2828 23.076 44.2711L29.3541 37.993C32.4283 34.9188 37.4093 34.9188 40.4705 37.993L46.567 44.0895C49.1742 46.8005 48.6295 50.173 46.7227 52.1058L46.7097 52.1187ZM41.9103 14.7873C39.4847 14.7873 36.8256 17.2648 36.7348 22.7257C36.7348 27.1749 39.0047 30.6901 41.8973 30.6901C44.7899 30.6901 47.0599 27.1749 47.0729 22.7128C46.9691 17.2648 44.323 14.7873 41.9103 14.7873ZM41.8973 28.5499C40.4835 28.5499 38.888 26.1502 38.888 22.7128C38.888 19.2754 40.4835 16.8757 41.8973 16.8757C43.3112 16.8757 44.9326 19.2754 44.9326 22.7128C44.9326 26.1502 43.3372 28.5499 41.8973 28.5499ZM28.2256 14.7873C25.8129 14.7873 23.1538 17.2648 23.063 22.7257C23.063 27.1749 25.333 30.6901 28.2256 30.6901C31.1182 30.6901 33.3882 27.1749 33.3882 22.7128C33.2974 17.2648 30.6512 14.7873 28.2256 14.7873ZM28.2256 28.5499C26.8117 28.5499 25.2162 26.1502 25.2162 22.7128C25.2162 19.2754 26.8117 16.8757 28.2256 16.8757C29.6395 16.8757 31.2609 19.2754 31.2609 22.7128C31.2609 26.1502 29.6654 28.5499 28.2256 28.5499ZM16.0066 23.5559C13.5939 23.5559 10.9348 26.0334 10.844 31.5073C10.9348 36.9293 13.581 39.4198 16.0066 39.4198C18.4322 39.4198 21.0784 36.9423 21.1692 31.4943C21.0784 26.0464 18.4322 23.5689 16.0066 23.5689V23.5559ZM16.0196 37.3055C14.5798 37.3055 12.9843 34.9058 12.9843 31.4684C12.9843 28.031 14.5798 25.6313 16.0196 25.6313C17.4594 25.6313 19.0289 28.031 19.0289 31.4684C19.0289 34.9058 17.4464 37.3055 16.0196 37.3055ZM16.0066 23.5559C13.5939 23.5559 10.9348 26.0334 10.844 31.5073C10.9348 36.9293 13.581 39.4198 16.0066 39.4198C18.4322 39.4198 21.0784 36.9423 21.1692 31.4943C21.0784 26.0464 18.4322 23.5689 16.0066 23.5689V23.5559ZM16.0196 37.3055C14.5798 37.3055 12.9843 34.9058 12.9843 31.4684C12.9843 28.031 14.5798 25.6313 16.0196 25.6313C17.4594 25.6313 19.0289 28.031 19.0289 31.4684C19.0289 34.9058 17.4464 37.3055 16.0196 37.3055ZM28.2256 14.7873C25.8129 14.7873 23.1538 17.2648 23.063 22.7257C23.063 27.1749 25.333 30.6901 28.2256 30.6901C31.1182 30.6901 33.3882 27.1749 33.3882 22.7128C33.2974 17.2648 30.6512 14.7873 28.2256 14.7873ZM28.2256 28.5499C26.8117 28.5499 25.2162 26.1502 25.2162 22.7128C25.2162 19.2754 26.8117 16.8757 28.2256 16.8757C29.6395 16.8757 31.2609 19.2754 31.2609 22.7128C31.2609 26.1502 29.6654 28.5499 28.2256 28.5499ZM41.9103 14.7873C39.4847 14.7873 36.8256 17.2648 36.7348 22.7257C36.7348 27.1749 39.0047 30.6901 41.8973 30.6901C44.7899 30.6901 47.0599 27.1749 47.0729 22.7128C46.9691 17.2648 44.323 14.7873 41.9103 14.7873ZM41.8973 28.5499C40.4835 28.5499 38.888 26.1502 38.888 22.7128C38.888 19.2754 40.4835 16.8757 41.8973 16.8757C43.3112 16.8757 44.9326 19.2754 44.9326 22.7128C44.9326 26.1502 43.3372 28.5499 41.8973 28.5499ZM48.0328 42.5589L41.9363 36.4883C38.0578 32.5839 31.7019 32.5839 27.7975 36.4883L21.5064 42.7794C20.0147 44.2451 19.2235 46.2168 19.2365 48.3311C19.2494 51.4053 21.0654 54.0385 23.958 55.2059C26.3318 56.1787 29.847 56.2306 32.558 53.4548L32.8823 53.1824C33.466 52.7154 34.1794 52.5079 34.8928 52.5079C35.723 52.5079 36.5661 52.8062 37.2017 53.4288C41.0672 57.1905 45.5682 56.2177 48.1236 53.7142C50.7178 51.1588 51.8074 46.58 48.0587 42.5459L48.0328 42.5589ZM46.7097 52.1187C45.7109 53.1175 44.31 53.805 42.7924 53.805C41.5341 53.805 40.1851 53.338 38.9269 52.1706C37.9281 51.0291 36.5142 50.4195 35.0096 50.3806C33.5049 50.3806 32.0651 50.9124 31.0922 51.9371C28.9649 54.0644 25.6183 54.272 23.4521 52.5079L23.1927 52.2744C22.0901 51.2756 21.4545 49.8487 21.4416 48.2792C21.4286 46.7486 22.0123 45.2828 23.076 44.2711L29.3541 37.993C32.4283 34.9188 37.4093 34.9188 40.4705 37.993L46.567 44.0895C49.1742 46.8005 48.6295 50.173 46.7227 52.1058L46.7097 52.1187ZM54.8427 23.5559C52.4171 23.5559 49.7709 26.0334 49.6801 31.5073C49.6801 35.9565 51.9501 39.4717 54.8427 39.4717C57.7353 39.4717 60.0053 35.9824 60.0053 31.5073C59.9145 26.0464 57.2683 23.5559 54.8427 23.5559ZM54.8427 37.3055C53.4029 37.3055 51.8334 34.9058 51.8334 31.4684C51.8334 28.031 53.4159 25.6313 54.8427 25.6313C56.2696 25.6313 57.852 28.031 57.852 31.4684C57.852 34.9058 56.2696 37.3055 54.8427 37.3055ZM54.8427 23.5559C52.4171 23.5559 49.7709 26.0334 49.6801 31.5073C49.6801 35.9565 51.9501 39.4717 54.8427 39.4717C57.7353 39.4717 60.0053 35.9824 60.0053 31.5073C59.9145 26.0464 57.2683 23.5559 54.8427 23.5559ZM54.8427 37.3055C53.4029 37.3055 51.8334 34.9058 51.8334 31.4684C51.8334 28.031 53.4159 25.6313 54.8427 25.6313C56.2696 25.6313 57.852 28.031 57.852 31.4684C57.852 34.9058 56.2696 37.3055 54.8427 37.3055ZM48.0328 42.5589L41.9363 36.4883C38.0578 32.5839 31.7019 32.5839 27.7975 36.4883L21.5064 42.7794C20.0147 44.2451 19.2235 46.2168 19.2365 48.3311C19.2494 51.4053 21.0654 54.0385 23.958 55.2059C26.3318 56.1787 29.847 56.2306 32.558 53.4548L32.8823 53.1824C33.466 52.7154 34.1794 52.5079 34.8928 52.5079C35.723 52.5079 36.5661 52.8062 37.2017 53.4288C41.0672 57.1905 45.5682 56.2177 48.1236 53.7142C50.7178 51.1588 51.8074 46.58 48.0587 42.5459L48.0328 42.5589ZM46.7097 52.1187C45.7109 53.1175 44.31 53.805 42.7924 53.805C41.5341 53.805 40.1851 53.338 38.9269 52.1706C37.9281 51.0291 36.5142 50.4195 35.0096 50.3806C33.5049 50.3806 32.0651 50.9124 31.0922 51.9371C28.9649 54.0644 25.6183 54.272 23.4521 52.5079L23.1927 52.2744C22.0901 51.2756 21.4545 49.8487 21.4416 48.2792C21.4286 46.7486 22.0123 45.2828 23.076 44.2711L29.3541 37.993C32.4283 34.9188 37.4093 34.9188 40.4705 37.993L46.567 44.0895C49.1742 46.8005 48.6295 50.173 46.7227 52.1058L46.7097 52.1187ZM41.9103 14.7873C39.4847 14.7873 36.8256 17.2648 36.7348 22.7257C36.7348 27.1749 39.0047 30.6901 41.8973 30.6901C44.7899 30.6901 47.0599 27.1749 47.0729 22.7128C46.9691 17.2648 44.323 14.7873 41.9103 14.7873ZM41.8973 28.5499C40.4835 28.5499 38.888 26.1502 38.888 22.7128C38.888 19.2754 40.4835 16.8757 41.8973 16.8757C43.3112 16.8757 44.9326 19.2754 44.9326 22.7128C44.9326 26.1502 43.3372 28.5499 41.8973 28.5499ZM28.2256 14.7873C25.8129 14.7873 23.1538 17.2648 23.063 22.7257C23.063 27.1749 25.333 30.6901 28.2256 30.6901C31.1182 30.6901 33.3882 27.1749 33.3882 22.7128C33.2974 17.2648 30.6512 14.7873 28.2256 14.7873ZM28.2256 28.5499C26.8117 28.5499 25.2162 26.1502 25.2162 22.7128C25.2162 19.2754 26.8117 16.8757 28.2256 16.8757C29.6395 16.8757 31.2609 19.2754 31.2609 22.7128C31.2609 26.1502 29.6654 28.5499 28.2256 28.5499ZM16.0066 23.5559C13.5939 23.5559 10.9348 26.0334 10.844 31.5073C10.9348 36.9293 13.581 39.4198 16.0066 39.4198C18.4322 39.4198 21.0784 36.9423 21.1692 31.4943C21.0784 26.0464 18.4322 23.5689 16.0066 23.5689V23.5559ZM16.0196 37.3055C14.5798 37.3055 12.9843 34.9058 12.9843 31.4684C12.9843 28.031 14.5798 25.6313 16.0196 25.6313C17.4594 25.6313 19.0289 28.031 19.0289 31.4684C19.0289 34.9058 17.4464 37.3055 16.0196 37.3055ZM16.0066 23.5559C13.5939 23.5559 10.9348 26.0334 10.844 31.5073C10.9348 36.9293 13.581 39.4198 16.0066 39.4198C18.4322 39.4198 21.0784 36.9423 21.1692 31.4943C21.0784 26.0464 18.4322 23.5689 16.0066 23.5689V23.5559ZM16.0196 37.3055C14.5798 37.3055 12.9843 34.9058 12.9843 31.4684C12.9843 28.031 14.5798 25.6313 16.0196 25.6313C17.4594 25.6313 19.0289 28.031 19.0289 31.4684C19.0289 34.9058 17.4464 37.3055 16.0196 37.3055ZM28.2256 14.7873C25.8129 14.7873 23.1538 17.2648 23.063 22.7257C23.063 27.1749 25.333 30.6901 28.2256 30.6901C31.1182 30.6901 33.3882 27.1749 33.3882 22.7128C33.2974 17.2648 30.6512 14.7873 28.2256 14.7873ZM28.2256 28.5499C26.8117 28.5499 25.2162 26.1502 25.2162 22.7128C25.2162 19.2754 26.8117 16.8757 28.2256 16.8757C29.6395 16.8757 31.2609 19.2754 31.2609 22.7128C31.2609 26.1502 29.6654 28.5499 28.2256 28.5499ZM41.9103 14.7873C39.4847 14.7873 36.8256 17.2648 36.7348 22.7257C36.7348 27.1749 39.0047 30.6901 41.8973 30.6901C44.7899 30.6901 47.0599 27.1749 47.0729 22.7128C46.9691 17.2648 44.323 14.7873 41.9103 14.7873ZM41.8973 28.5499C40.4835 28.5499 38.888 26.1502 38.888 22.7128C38.888 19.2754 40.4835 16.8757 41.8973 16.8757C43.3112 16.8757 44.9326 19.2754 44.9326 22.7128C44.9326 26.1502 43.3372 28.5499 41.8973 28.5499ZM48.0328 42.5589L41.9363 36.4883C38.0578 32.5839 31.7019 32.5839 27.7975 36.4883L21.5064 42.7794C20.0147 44.2451 19.2235 46.2168 19.2365 48.3311C19.2494 51.4053 21.0654 54.0385 23.958 55.2059C26.3318 56.1787 29.847 56.2306 32.558 53.4548L32.8823 53.1824C33.466 52.7154 34.1794 52.5079 34.8928 52.5079C35.723 52.5079 36.5661 52.8062 37.2017 53.4288C41.0672 57.1905 45.5682 56.2177 48.1236 53.7142C50.7178 51.1588 51.8074 46.58 48.0587 42.5459L48.0328 42.5589ZM46.7097 52.1187C45.7109 53.1175 44.31 53.805 42.7924 53.805C41.5341 53.805 40.1851 53.338 38.9269 52.1706C37.9281 51.0291 36.5142 50.4195 35.0096 50.3806C33.5049 50.3806 32.0651 50.9124 31.0922 51.9371C28.9649 54.0644 25.6183 54.272 23.4521 52.5079L23.1927 52.2744C22.0901 51.2756 21.4545 49.8487 21.4416 48.2792C21.4286 46.7486 22.0123 45.2828 23.076 44.2711L29.3541 37.993C32.4283 34.9188 37.4093 34.9188 40.4705 37.993L46.567 44.0895C49.1742 46.8005 48.6295 50.173 46.7227 52.1058L46.7097 52.1187ZM54.8427 23.5559C52.4171 23.5559 49.7709 26.0334 49.6801 31.5073C49.6801 35.9565 51.9501 39.4717 54.8427 39.4717C57.7353 39.4717 60.0053 35.9824 60.0053 31.5073C59.9145 26.0464 57.2683 23.5559 54.8427 23.5559ZM54.8427 37.3055C53.4029 37.3055 51.8334 34.9058 51.8334 31.4684C51.8334 28.031 53.4159 25.6313 54.8427 25.6313C56.2696 25.6313 57.852 28.031 57.852 31.4684C57.852 34.9058 56.2696 37.3055 54.8427 37.3055ZM54.8427 23.5559C52.4171 23.5559 49.7709 26.0334 49.6801 31.5073C49.6801 35.9565 51.9501 39.4717 54.8427 39.4717C57.7353 39.4717 60.0053 35.9824 60.0053 31.5073C59.9145 26.0464 57.2683 23.5559 54.8427 23.5559ZM54.8427 37.3055C53.4029 37.3055 51.8334 34.9058 51.8334 31.4684C51.8334 28.031 53.4159 25.6313 54.8427 25.6313C56.2696 25.6313 57.852 28.031 57.852 31.4684C57.852 34.9058 56.2696 37.3055 54.8427 37.3055ZM48.0328 42.5589L41.9363 36.4883C38.0578 32.5839 31.7019 32.5839 27.7975 36.4883L21.5064 42.7794C20.0147 44.2451 19.2235 46.2168 19.2365 48.3311C19.2494 51.4053 21.0654 54.0385 23.958 55.2059C26.3318 56.1787 29.847 56.2306 32.558 53.4548L32.8823 53.1824C33.466 52.7154 34.1794 52.5079 34.8928 52.5079C35.723 52.5079 36.5661 52.8062 37.2017 53.4288C41.0672 57.1905 45.5682 56.2177 48.1236 53.7142C50.7178 51.1588 51.8074 46.58 48.0587 42.5459L48.0328 42.5589ZM46.7097 52.1187C45.7109 53.1175 44.31 53.805 42.7924 53.805C41.5341 53.805 40.1851 53.338 38.9269 52.1706C37.9281 51.0291 36.5142 50.4195 35.0096 50.3806C33.5049 50.3806 32.0651 50.9124 31.0922 51.9371C28.9649 54.0644 25.6183 54.272 23.4521 52.5079L23.1927 52.2744C22.0901 51.2756 21.4545 49.8487 21.4416 48.2792C21.4286 46.7486 22.0123 45.2828 23.076 44.2711L29.3541 37.993C32.4283 34.9188 37.4093 34.9188 40.4705 37.993L46.567 44.0895C49.1742 46.8005 48.6295 50.173 46.7227 52.1058L46.7097 52.1187ZM41.9103 14.7873C39.4847 14.7873 36.8256 17.2648 36.7348 22.7257C36.7348 27.1749 39.0047 30.6901 41.8973 30.6901C44.7899 30.6901 47.0599 27.1749 47.0729 22.7128C46.9691 17.2648 44.323 14.7873 41.9103 14.7873ZM41.8973 28.5499C40.4835 28.5499 38.888 26.1502 38.888 22.7128C38.888 19.2754 40.4835 16.8757 41.8973 16.8757C43.3112 16.8757 44.9326 19.2754 44.9326 22.7128C44.9326 26.1502 43.3372 28.5499 41.8973 28.5499ZM28.2256 14.7873C25.8129 14.7873 23.1538 17.2648 23.063 22.7257C23.063 27.1749 25.333 30.6901 28.2256 30.6901C31.1182 30.6901 33.3882 27.1749 33.3882 22.7128C33.2974 17.2648 30.6512 14.7873 28.2256 14.7873ZM28.2256 28.5499C26.8117 28.5499 25.2162 26.1502 25.2162 22.7128C25.2162 19.2754 26.8117 16.8757 28.2256 16.8757C29.6395 16.8757 31.2609 19.2754 31.2609 22.7128C31.2609 26.1502 29.6654 28.5499 28.2256 28.5499ZM16.0066 23.5559C13.5939 23.5559 10.9348 26.0334 10.844 31.5073C10.9348 36.9293 13.581 39.4198 16.0066 39.4198C18.4322 39.4198 21.0784 36.9423 21.1692 31.4943C21.0784 26.0464 18.4322 23.5689 16.0066 23.5689V23.5559ZM16.0196 37.3055C14.5798 37.3055 12.9843 34.9058 12.9843 31.4684C12.9843 28.031 14.5798 25.6313 16.0196 25.6313C17.4594 25.6313 19.0289 28.031 19.0289 31.4684C19.0289 34.9058 17.4464 37.3055 16.0196 37.3055ZM16.0066 23.5559C13.5939 23.5559 10.9348 26.0334 10.844 31.5073C10.9348 36.9293 13.581 39.4198 16.0066 39.4198C18.4322 39.4198 21.0784 36.9423 21.1692 31.4943C21.0784 26.0464 18.4322 23.5689 16.0066 23.5689V23.5559ZM16.0196 37.3055C14.5798 37.3055 12.9843 34.9058 12.9843 31.4684C12.9843 28.031 14.5798 25.6313 16.0196 25.6313C17.4594 25.6313 19.0289 28.031 19.0289 31.4684C19.0289 34.9058 17.4464 37.3055 16.0196 37.3055ZM28.2256 14.7873C25.8129 14.7873 23.1538 17.2648 23.063 22.7257C23.063 27.1749 25.333 30.6901 28.2256 30.6901C31.1182 30.6901 33.3882 27.1749 33.3882 22.7128C33.2974 17.2648 30.6512 14.7873 28.2256 14.7873ZM28.2256 28.5499C26.8117 28.5499 25.2162 26.1502 25.2162 22.7128C25.2162 19.2754 26.8117 16.8757 28.2256 16.8757C29.6395 16.8757 31.2609 19.2754 31.2609 22.7128C31.2609 26.1502 29.6654 28.5499 28.2256 28.5499ZM41.9103 14.7873C39.4847 14.7873 36.8256 17.2648 36.7348 22.7257C36.7348 27.1749 39.0047 30.6901 41.8973 30.6901C44.7899 30.6901 47.0599 27.1749 47.0729 22.7128C46.9691 17.2648 44.323 14.7873 41.9103 14.7873ZM41.8973 28.5499C40.4835 28.5499 38.888 26.1502 38.888 22.7128C38.888 19.2754 40.4835 16.8757 41.8973 16.8757C43.3112 16.8757 44.9326 19.2754 44.9326 22.7128C44.9326 26.1502 43.3372 28.5499 41.8973 28.5499ZM48.0328 42.5589L41.9363 36.4883C38.0578 32.5839 31.7019 32.5839 27.7975 36.4883L21.5064 42.7794C20.0147 44.2451 19.2235 46.2168 19.2365 48.3311C19.2494 51.4053 21.0654 54.0385 23.958 55.2059C26.3318 56.1787 29.847 56.2306 32.558 53.4548L32.8823 53.1824C33.466 52.7154 34.1794 52.5079 34.8928 52.5079C35.723 52.5079 36.5661 52.8062 37.2017 53.4288C41.0672 57.1905 45.5682 56.2177 48.1236 53.7142C50.7178 51.1588 51.8074 46.58 48.0587 42.5459L48.0328 42.5589ZM46.7097 52.1187C45.7109 53.1175 44.31 53.805 42.7924 53.805C41.5341 53.805 40.1851 53.338 38.9269 52.1706C37.9281 51.0291 36.5142 50.4195 35.0096 50.3806C33.5049 50.3806 32.0651 50.9124 31.0922 51.9371C28.9649 54.0644 25.6183 54.272 23.4521 52.5079L23.1927 52.2744C22.0901 51.2756 21.4545 49.8487 21.4416 48.2792C21.4286 46.7486 22.0123 45.2828 23.076 44.2711L29.3541 37.993C32.4283 34.9188 37.4093 34.9188 40.4705 37.993L46.567 44.0895C49.1742 46.8005 48.6295 50.173 46.7227 52.1058L46.7097 52.1187ZM54.8427 23.5559C52.4171 23.5559 49.7709 26.0334 49.6801 31.5073C49.6801 35.9565 51.9501 39.4717 54.8427 39.4717C57.7353 39.4717 60.0053 35.9824 60.0053 31.5073C59.9145 26.0464 57.2683 23.5559 54.8427 23.5559ZM54.8427 37.3055C53.4029 37.3055 51.8334 34.9058 51.8334 31.4684C51.8334 28.031 53.4159 25.6313 54.8427 25.6313C56.2696 25.6313 57.852 28.031 57.852 31.4684C57.852 34.9058 56.2696 37.3055 54.8427 37.3055ZM54.8427 23.5559C52.4171 23.5559 49.7709 26.0334 49.6801 31.5073C49.6801 35.9565 51.9501 39.4717 54.8427 39.4717C57.7353 39.4717 60.0053 35.9824 60.0053 31.5073C59.9145 26.0464 57.2683 23.5559 54.8427 23.5559ZM54.8427 37.3055C53.4029 37.3055 51.8334 34.9058 51.8334 31.4684C51.8334 28.031 53.4159 25.6313 54.8427 25.6313C56.2696 25.6313 57.852 28.031 57.852 31.4684C57.852 34.9058 56.2696 37.3055 54.8427 37.3055ZM48.0328 42.5589L41.9363 36.4883C38.0578 32.5839 31.7019 32.5839 27.7975 36.4883L21.5064 42.7794C20.0147 44.2451 19.2235 46.2168 19.2365 48.3311C19.2494 51.4053 21.0654 54.0385 23.958 55.2059C26.3318 56.1787 29.847 56.2306 32.558 53.4548L32.8823 53.1824C33.466 52.7154 34.1794 52.5079 34.8928 52.5079C35.723 52.5079 36.5661 52.8062 37.2017 53.4288C41.0672 57.1905 45.5682 56.2177 48.1236 53.7142C50.7178 51.1588 51.8074 46.58 48.0587 42.5459L48.0328 42.5589ZM46.7097 52.1187C45.7109 53.1175 44.31 53.805 42.7924 53.805C41.5341 53.805 40.1851 53.338 38.9269 52.1706C37.9281 51.0291 36.5142 50.4195 35.0096 50.3806C33.5049 50.3806 32.0651 50.9124 31.0922 51.9371C28.9649 54.0644 25.6183 54.272 23.4521 52.5079L23.1927 52.2744C22.0901 51.2756 21.4545 49.8487 21.4416 48.2792C21.4286 46.7486 22.0123 45.2828 23.076 44.2711L29.3541 37.993C32.4283 34.9188 37.4093 34.9188 40.4705 37.993L46.567 44.0895C49.1742 46.8005 48.6295 50.173 46.7227 52.1058L46.7097 52.1187ZM41.9103 14.7873C39.4847 14.7873 36.8256 17.2648 36.7348 22.7257C36.7348 27.1749 39.0047 30.6901 41.8973 30.6901C44.7899 30.6901 47.0599 27.1749 47.0729 22.7128C46.9691 17.2648 44.323 14.7873 41.9103 14.7873ZM41.8973 28.5499C40.4835 28.5499 38.888 26.1502 38.888 22.7128C38.888 19.2754 40.4835 16.8757 41.8973 16.8757C43.3112 16.8757 44.9326 19.2754 44.9326 22.7128C44.9326 26.1502 43.3372 28.5499 41.8973 28.5499ZM28.2256 14.7873C25.8129 14.7873 23.1538 17.2648 23.063 22.7257C23.063 27.1749 25.333 30.6901 28.2256 30.6901C31.1182 30.6901 33.3882 27.1749 33.3882 22.7128C33.2974 17.2648 30.6512 14.7873 28.2256 14.7873ZM28.2256 28.5499C26.8117 28.5499 25.2162 26.1502 25.2162 22.7128C25.2162 19.2754 26.8117 16.8757 28.2256 16.8757C29.6395 16.8757 31.2609 19.2754 31.2609 22.7128C31.2609 26.1502 29.6654 28.5499 28.2256 28.5499ZM16.0066 23.5559C13.5939 23.5559 10.9348 26.0334 10.844 31.5073C10.9348 36.9293 13.581 39.4198 16.0066 39.4198C18.4322 39.4198 21.0784 36.9423 21.1692 31.4943C21.0784 26.0464 18.4322 23.5689 16.0066 23.5689V23.5559ZM16.0196 37.3055C14.5798 37.3055 12.9843 34.9058 12.9843 31.4684C12.9843 28.031 14.5798 25.6313 16.0196 25.6313C17.4594 25.6313 19.0289 28.031 19.0289 31.4684C19.0289 34.9058 17.4464 37.3055 16.0196 37.3055ZM16.0066 23.5559C13.5939 23.5559 10.9348 26.0334 10.844 31.5073C10.9348 36.9293 13.581 39.4198 16.0066 39.4198C18.4322 39.4198 21.0784 36.9423 21.1692 31.4943C21.0784 26.0464 18.4322 23.5689 16.0066 23.5689V23.5559ZM16.0196 37.3055C14.5798 37.3055 12.9843 34.9058 12.9843 31.4684C12.9843 28.031 14.5798 25.6313 16.0196 25.6313C17.4594 25.6313 19.0289 28.031 19.0289 31.4684C19.0289 34.9058 17.4464 37.3055 16.0196 37.3055ZM28.2256 14.7873C25.8129 14.7873 23.1538 17.2648 23.063 22.7257C23.063 27.1749 25.333 30.6901 28.2256 30.6901C31.1182 30.6901 33.3882 27.1749 33.3882 22.7128C33.2974 17.2648 30.6512 14.7873 28.2256 14.7873ZM28.2256 28.5499C26.8117 28.5499 25.2162 26.1502 25.2162 22.7128C25.2162 19.2754 26.8117 16.8757 28.2256 16.8757C29.6395 16.8757 31.2609 19.2754 31.2609 22.7128C31.2609 26.1502 29.6654 28.5499 28.2256 28.5499ZM41.9103 14.7873C39.4847 14.7873 36.8256 17.2648 36.7348 22.7257C36.7348 27.1749 39.0047 30.6901 41.8973 30.6901C44.7899 30.6901 47.0599 27.1749 47.0729 22.7128C46.9691 17.2648 44.323 14.7873 41.9103 14.7873ZM41.8973 28.5499C40.4835 28.5499 38.888 26.1502 38.888 22.7128C38.888 19.2754 40.4835 16.8757 41.8973 16.8757C43.3112 16.8757 44.9326 19.2754 44.9326 22.7128C44.9326 26.1502 43.3372 28.5499 41.8973 28.5499ZM48.0328 42.5589L41.9363 36.4883C38.0578 32.5839 31.7019 32.5839 27.7975 36.4883L21.5064 42.7794C20.0147 44.2451 19.2235 46.2168 19.2365 48.3311C19.2494 51.4053 21.0654 54.0385 23.958 55.2059C26.3318 56.1787 29.847 56.2306 32.558 53.4548L32.8823 53.1824C33.466 52.7154 34.1794 52.5079 34.8928 52.5079C35.723 52.5079 36.5661 52.8062 37.2017 53.4288C41.0672 57.1905 45.5682 56.2177 48.1236 53.7142C50.7178 51.1588 51.8074 46.58 48.0587 42.5459L48.0328 42.5589ZM46.7097 52.1187C45.7109 53.1175 44.31 53.805 42.7924 53.805C41.5341 53.805 40.1851 53.338 38.9269 52.1706C37.9281 51.0291 36.5142 50.4195 35.0096 50.3806C33.5049 50.3806 32.0651 50.9124 31.0922 51.9371C28.9649 54.0644 25.6183 54.272 23.4521 52.5079L23.1927 52.2744C22.0901 51.2756 21.4545 49.8487 21.4416 48.2792C21.4286 46.7486 22.0123 45.2828 23.076 44.2711L29.3541 37.993C32.4283 34.9188 37.4093 34.9188 40.4705 37.993L46.567 44.0895C49.1742 46.8005 48.6295 50.173 46.7227 52.1058L46.7097 52.1187ZM54.8427 23.5559C52.4171 23.5559 49.7709 26.0334 49.6801 31.5073C49.6801 35.9565 51.9501 39.4717 54.8427 39.4717C57.7353 39.4717 60.0053 35.9824 60.0053 31.5073C59.9145 26.0464 57.2683 23.5559 54.8427 23.5559ZM54.8427 37.3055C53.4029 37.3055 51.8334 34.9058 51.8334 31.4684C51.8334 28.031 53.4159 25.6313 54.8427 25.6313C56.2696 25.6313 57.852 28.031 57.852 31.4684C57.852 34.9058 56.2696 37.3055 54.8427 37.3055ZM54.8427 23.5559C52.4171 23.5559 49.7709 26.0334 49.6801 31.5073C49.6801 35.9565 51.9501 39.4717 54.8427 39.4717C57.7353 39.4717 60.0053 35.9824 60.0053 31.5073C59.9145 26.0464 57.2683 23.5559 54.8427 23.5559ZM54.8427 37.3055C53.4029 37.3055 51.8334 34.9058 51.8334 31.4684C51.8334 28.031 53.4159 25.6313 54.8427 25.6313C56.2696 25.6313 57.852 28.031 57.852 31.4684C57.852 34.9058 56.2696 37.3055 54.8427 37.3055ZM41.9363 36.5013C38.0578 32.5969 31.7019 32.5969 27.7975 36.5013L21.5064 42.7924C20.0147 44.2581 19.2235 46.2298 19.2365 48.3441C19.2494 51.4183 21.0654 54.0515 23.958 55.2189C26.3318 56.1917 29.847 56.2436 32.558 53.4677L32.8823 53.1953C33.466 52.7284 34.1794 52.5208 34.8928 52.5208C35.723 52.5208 36.5661 52.8192 37.2017 53.4418C41.0672 57.2035 45.5682 56.2306 48.1236 53.7272C50.7178 51.1718 51.8074 46.5929 48.0587 42.5589L41.9622 36.4883L41.9363 36.5013ZM46.7097 52.1187C45.7109 53.1175 44.31 53.805 42.7924 53.805C41.5341 53.805 40.1851 53.338 38.9269 52.1706C37.9281 51.0291 36.5142 50.4195 35.0096 50.3806C33.5049 50.3806 32.0651 50.9124 31.0922 51.9371C28.9649 54.0644 25.6183 54.272 23.4521 52.5079L23.1927 52.2744C22.0901 51.2756 21.4545 49.8487 21.4416 48.2792C21.4286 46.7486 22.0123 45.2828 23.076 44.2711L29.3541 37.993C32.4283 34.9188 37.4093 34.9188 40.4705 37.993L46.567 44.0895C49.1742 46.8005 48.6295 50.173 46.7227 52.1058L46.7097 52.1187ZM41.8973 30.6901C44.8029 30.6901 47.0599 27.1749 47.0729 22.7128C46.9691 17.2648 44.323 14.7873 41.9103 14.7873C39.4976 14.7873 36.8256 17.2648 36.7348 22.7257C36.7348 27.1749 39.0047 30.6901 41.8973 30.6901ZM41.8973 16.8757C43.3372 16.8757 44.9326 19.2754 44.9326 22.7128C44.9326 26.1502 43.3372 28.5499 41.8973 28.5499C40.4575 28.5499 38.888 26.1502 38.888 22.7128C38.888 19.2754 40.4835 16.8757 41.8973 16.8757ZM28.2256 30.6901C31.1182 30.6901 33.3882 27.1749 33.3882 22.7128C33.2974 17.2648 30.6512 14.7873 28.2256 14.7873C25.7999 14.7873 23.1538 17.2648 23.063 22.7257C23.063 27.1749 25.333 30.6901 28.2256 30.6901ZM28.2256 16.8757C29.6654 16.8757 31.2609 19.2754 31.2609 22.7128C31.2609 26.1502 29.6654 28.5499 28.2256 28.5499C26.7858 28.5499 25.2162 26.1502 25.2162 22.7128C25.2162 19.2754 26.8117 16.8757 28.2256 16.8757ZM16.0066 23.5559C13.5939 23.5559 10.9348 26.0334 10.844 31.5073C10.9348 36.9293 13.581 39.4198 16.0066 39.4198C18.4322 39.4198 21.0784 36.9423 21.1692 31.4943C21.0784 26.0464 18.4322 23.5689 16.0066 23.5689V23.5559ZM16.0196 37.3055C14.5798 37.3055 12.9843 34.9058 12.9843 31.4684C12.9843 28.031 14.5798 25.6313 16.0196 25.6313C17.4594 25.6313 19.0289 28.031 19.0289 31.4684C19.0289 34.9058 17.4464 37.3055 16.0196 37.3055ZM46.1908 88.7627L44.8937 88.5681L45.5553 87.4266C60.2777 62.0547 68.3718 43.1426 68.3718 34.1924C68.3718 15.3451 53.0527 0 34.1924 0C15.3321 0 0 15.3451 0 34.1924C0 43.1426 8.10707 62.0547 22.8425 87.4266L23.4781 88.5681L22.2069 88.7627C9.949 90.6305 2.04947 95.2354 2.04947 100.515C2.04947 108.401 18.4063 113.136 34.2054 113.136C50.0044 113.136 66.3612 108.401 66.3612 100.515C66.3612 95.2354 58.4358 90.6176 46.2038 88.7627H46.1908ZM2.15324 34.1664C2.15324 16.4995 16.5125 2.14027 34.1924 2.14027C51.8723 2.14027 66.2186 16.4995 66.2186 34.1664C66.2186 48.2533 45.2699 83.9503 37.539 96.6233H37.6038L36.7218 98.0112C36.1381 98.8933 35.2171 99.4251 34.2054 99.4251C33.1936 99.4251 32.2597 98.8933 31.663 98.0112C24.7104 86.7132 2.14027 48.7981 2.14027 34.1664H2.15324ZM34.2183 110.983C18.2247 110.983 4.21568 106.092 4.21568 100.502C4.21568 96.299 12.5822 92.1612 24.1137 90.6565L24.6974 90.5657L24.9827 91.0845C26.8117 94.1328 28.4591 96.8827 29.847 99.1138C30.7161 100.644 32.3505 101.526 34.2313 101.526C36.1121 101.526 37.7206 100.644 38.5897 99.1268C39.9776 96.8697 41.6249 94.1198 43.4539 91.0716L43.7393 90.5527L44.323 90.6435C55.8545 92.1482 64.221 96.286 64.221 100.489C64.221 106.079 50.2119 110.97 34.2313 110.97L34.2183 110.983ZM54.8427 39.4587C57.7353 39.4587 60.0053 35.9694 60.0053 31.4943C59.9145 26.0334 57.2683 23.5429 54.8427 23.5429C52.4171 23.5429 49.7709 26.0205 49.6801 31.4943C49.6801 35.9435 51.9501 39.4587 54.8427 39.4587ZM54.8427 25.6443C56.2825 25.6443 57.852 28.044 57.852 31.4814C57.852 34.9188 56.2696 37.3185 54.8427 37.3185C53.4159 37.3185 51.8334 34.9188 51.8334 31.4814C51.8334 28.044 53.4159 25.6443 54.8427 25.6443ZM32.8693 53.1953C33.453 52.7284 34.1664 52.5208 34.8799 52.5208C35.71 52.5208 36.5532 52.8192 37.1887 53.4418C41.0542 57.2035 45.5553 56.2306 48.1106 53.7272C50.7049 51.1718 51.7944 46.5929 48.0457 42.5589L41.9492 36.4883C38.0708 32.5839 31.7149 32.5839 27.8105 36.4883L21.5194 42.7794C20.0277 44.2451 19.2365 46.2168 19.2494 48.3311C19.2624 51.4053 21.0784 54.0385 23.971 55.2059C26.3447 56.1787 29.86 56.2306 32.571 53.4548L32.8952 53.1824L32.8693 53.1953ZM23.4392 52.5079L23.1797 52.2744C22.0772 51.2756 21.4416 49.8487 21.4286 48.2792C21.4156 46.7486 21.9993 45.2828 23.063 44.2711L29.3411 37.993C32.4153 34.9188 37.3963 34.9188 40.4575 37.993L46.554 44.0895C49.1613 46.8005 48.6165 50.173 46.7097 52.1058C45.7109 53.1045 44.31 53.792 42.7924 53.792C41.5341 53.792 40.1851 53.3251 38.9269 52.1576C37.9281 51.0162 36.5142 50.4065 35.0096 50.3676C33.5049 50.3676 32.0651 50.8994 31.0922 51.9242C28.9649 54.0515 25.6183 54.259 23.4521 52.4949L23.4392 52.5079ZM41.8973 30.6901C44.8029 30.6901 47.0599 27.1749 47.0729 22.7128C46.9691 17.2648 44.323 14.7873 41.9103 14.7873C39.4976 14.7873 36.8256 17.2648 36.7348 22.7257C36.7348 27.1749 39.0047 30.6901 41.8973 30.6901ZM41.8973 16.8757C43.3372 16.8757 44.9326 19.2754 44.9326 22.7128C44.9326 26.1502 43.3372 28.5499 41.8973 28.5499C40.4575 28.5499 38.888 26.1502 38.888 22.7128C38.888 19.2754 40.4835 16.8757 41.8973 16.8757ZM28.2256 30.6901C31.1182 30.6901 33.3882 27.1749 33.3882 22.7128C33.2974 17.2648 30.6512 14.7873 28.2256 14.7873C25.7999 14.7873 23.1538 17.2648 23.063 22.7257C23.063 27.1749 25.333 30.6901 28.2256 30.6901ZM28.2256 16.8757C29.6654 16.8757 31.2609 19.2754 31.2609 22.7128C31.2609 26.1502 29.6654 28.5499 28.2256 28.5499C26.7858 28.5499 25.2162 26.1502 25.2162 22.7128C25.2162 19.2754 26.8117 16.8757 28.2256 16.8757ZM16.0066 23.5559C13.5939 23.5559 10.9348 26.0334 10.844 31.5073C10.9348 36.9293 13.581 39.4198 16.0066 39.4198C18.4322 39.4198 21.0784 36.9423 21.1692 31.4943C21.0784 26.0464 18.4322 23.5689 16.0066 23.5689V23.5559ZM16.0196 37.3055C14.5798 37.3055 12.9843 34.9058 12.9843 31.4684C12.9843 28.031 14.5798 25.6313 16.0196 25.6313C17.4594 25.6313 19.0289 28.031 19.0289 31.4684C19.0289 34.9058 17.4464 37.3055 16.0196 37.3055ZM16.0066 23.5559C13.5939 23.5559 10.9348 26.0334 10.844 31.5073C10.9348 36.9293 13.581 39.4198 16.0066 39.4198C18.4322 39.4198 21.0784 36.9423 21.1692 31.4943C21.0784 26.0464 18.4322 23.5689 16.0066 23.5689V23.5559ZM16.0196 37.3055C14.5798 37.3055 12.9843 34.9058 12.9843 31.4684C12.9843 28.031 14.5798 25.6313 16.0196 25.6313C17.4594 25.6313 19.0289 28.031 19.0289 31.4684C19.0289 34.9058 17.4464 37.3055 16.0196 37.3055ZM28.2256 14.7873C25.8129 14.7873 23.1538 17.2648 23.063 22.7257C23.063 27.1749 25.333 30.6901 28.2256 30.6901C31.1182 30.6901 33.3882 27.1749 33.3882 22.7128C33.2974 17.2648 30.6512 14.7873 28.2256 14.7873ZM28.2256 28.5499C26.8117 28.5499 25.2162 26.1502 25.2162 22.7128C25.2162 19.2754 26.8117 16.8757 28.2256 16.8757C29.6395 16.8757 31.2609 19.2754 31.2609 22.7128C31.2609 26.1502 29.6654 28.5499 28.2256 28.5499ZM41.9103 14.7873C39.4847 14.7873 36.8256 17.2648 36.7348 22.7257C36.7348 27.1749 39.0047 30.6901 41.8973 30.6901C44.7899 30.6901 47.0599 27.1749 47.0729 22.7128C46.9691 17.2648 44.323 14.7873 41.9103 14.7873ZM41.8973 28.5499C40.4835 28.5499 38.888 26.1502 38.888 22.7128C38.888 19.2754 40.4835 16.8757 41.8973 16.8757C43.3112 16.8757 44.9326 19.2754 44.9326 22.7128C44.9326 26.1502 43.3372 28.5499 41.8973 28.5499ZM48.0328 42.5589L41.9363 36.4883C38.0578 32.5839 31.7019 32.5839 27.7975 36.4883L21.5064 42.7794C20.0147 44.2451 19.2235 46.2168 19.2365 48.3311C19.2494 51.4053 21.0654 54.0385 23.958 55.2059C26.3318 56.1787 29.847 56.2306 32.558 53.4548L32.8823 53.1824C33.466 52.7154 34.1794 52.5079 34.8928 52.5079C35.723 52.5079 36.5661 52.8062 37.2017 53.4288C41.0672 57.1905 45.5682 56.2177 48.1236 53.7142C50.7178 51.1588 51.8074 46.58 48.0587 42.5459L48.0328 42.5589ZM46.7097 52.1187C45.7109 53.1175 44.31 53.805 42.7924 53.805C41.5341 53.805 40.1851 53.338 38.9269 52.1706C37.9281 51.0291 36.5142 50.4195 35.0096 50.3806C33.5049 50.3806 32.0651 50.9124 31.0922 51.9371C28.9649 54.0644 25.6183 54.272 23.4521 52.5079L23.1927 52.2744C22.0901 51.2756 21.4545 49.8487 21.4416 48.2792C21.4286 46.7486 22.0123 45.2828 23.076 44.2711L29.3541 37.993C32.4283 34.9188 37.4093 34.9188 40.4705 37.993L46.567 44.0895C49.1742 46.8005 48.6295 50.173 46.7227 52.1058L46.7097 52.1187ZM54.8427 23.5559C52.4171 23.5559 49.7709 26.0334 49.6801 31.5073C49.6801 35.9565 51.9501 39.4717 54.8427 39.4717C57.7353 39.4717 60.0053 35.9824 60.0053 31.5073C59.9145 26.0464 57.2683 23.5559 54.8427 23.5559ZM54.8427 37.3055C53.4029 37.3055 51.8334 34.9058 51.8334 31.4684C51.8334 28.031 53.4159 25.6313 54.8427 25.6313C56.2696 25.6313 57.852 28.031 57.852 31.4684C57.852 34.9058 56.2696 37.3055 54.8427 37.3055ZM54.8427 23.5559C52.4171 23.5559 49.7709 26.0334 49.6801 31.5073C49.6801 35.9565 51.9501 39.4717 54.8427 39.4717C57.7353 39.4717 60.0053 35.9824 60.0053 31.5073C59.9145 26.0464 57.2683 23.5559 54.8427 23.5559ZM54.8427 37.3055C53.4029 37.3055 51.8334 34.9058 51.8334 31.4684C51.8334 28.031 53.4159 25.6313 54.8427 25.6313C56.2696 25.6313 57.852 28.031 57.852 31.4684C57.852 34.9058 56.2696 37.3055 54.8427 37.3055ZM48.0328 42.5589L41.9363 36.4883C38.0578 32.5839 31.7019 32.5839 27.7975 36.4883L21.5064 42.7794C20.0147 44.2451 19.2235 46.2168 19.2365 48.3311C19.2494 51.4053 21.0654 54.0385 23.958 55.2059C26.3318 56.1787 29.847 56.2306 32.558 53.4548L32.8823 53.1824C33.466 52.7154 34.1794 52.5079 34.8928 52.5079C35.723 52.5079 36.5661 52.8062 37.2017 53.4288C41.0672 57.1905 45.5682 56.2177 48.1236 53.7142C50.7178 51.1588 51.8074 46.58 48.0587 42.5459L48.0328 42.5589ZM46.7097 52.1187C45.7109 53.1175 44.31 53.805 42.7924 53.805C41.5341 53.805 40.1851 53.338 38.9269 52.1706C37.9281 51.0291 36.5142 50.4195 35.0096 50.3806C33.5049 50.3806 32.0651 50.9124 31.0922 51.9371C28.9649 54.0644 25.6183 54.272 23.4521 52.5079L23.1927 52.2744C22.0901 51.2756 21.4545 49.8487 21.4416 48.2792C21.4286 46.7486 22.0123 45.2828 23.076 44.2711L29.3541 37.993C32.4283 34.9188 37.4093 34.9188 40.4705 37.993L46.567 44.0895C49.1742 46.8005 48.6295 50.173 46.7227 52.1058L46.7097 52.1187ZM41.9103 14.7873C39.4847 14.7873 36.8256 17.2648 36.7348 22.7257C36.7348 27.1749 39.0047 30.6901 41.8973 30.6901C44.7899 30.6901 47.0599 27.1749 47.0729 22.7128C46.9691 17.2648 44.323 14.7873 41.9103 14.7873ZM41.8973 28.5499C40.4835 28.5499 38.888 26.1502 38.888 22.7128C38.888 19.2754 40.4835 16.8757 41.8973 16.8757C43.3112 16.8757 44.9326 19.2754 44.9326 22.7128C44.9326 26.1502 43.3372 28.5499 41.8973 28.5499ZM28.2256 14.7873C25.8129 14.7873 23.1538 17.2648 23.063 22.7257C23.063 27.1749 25.333 30.6901 28.2256 30.6901C31.1182 30.6901 33.3882 27.1749 33.3882 22.7128C33.2974 17.2648 30.6512 14.7873 28.2256 14.7873ZM28.2256 28.5499C26.8117 28.5499 25.2162 26.1502 25.2162 22.7128C25.2162 19.2754 26.8117 16.8757 28.2256 16.8757C29.6395 16.8757 31.2609 19.2754 31.2609 22.7128C31.2609 26.1502 29.6654 28.5499 28.2256 28.5499ZM16.0066 23.5559C13.5939 23.5559 10.9348 26.0334 10.844 31.5073C10.9348 36.9293 13.581 39.4198 16.0066 39.4198C18.4322 39.4198 21.0784 36.9423 21.1692 31.4943C21.0784 26.0464 18.4322 23.5689 16.0066 23.5689V23.5559ZM16.0196 37.3055C14.5798 37.3055 12.9843 34.9058 12.9843 31.4684C12.9843 28.031 14.5798 25.6313 16.0196 25.6313C17.4594 25.6313 19.0289 28.031 19.0289 31.4684C19.0289 34.9058 17.4464 37.3055 16.0196 37.3055ZM16.0066 23.5559C13.5939 23.5559 10.9348 26.0334 10.844 31.5073C10.9348 36.9293 13.581 39.4198 16.0066 39.4198C18.4322 39.4198 21.0784 36.9423 21.1692 31.4943C21.0784 26.0464 18.4322 23.5689 16.0066 23.5689V23.5559ZM16.0196 37.3055C14.5798 37.3055 12.9843 34.9058 12.9843 31.4684C12.9843 28.031 14.5798 25.6313 16.0196 25.6313C17.4594 25.6313 19.0289 28.031 19.0289 31.4684C19.0289 34.9058 17.4464 37.3055 16.0196 37.3055ZM28.2256 14.7873C25.8129 14.7873 23.1538 17.2648 23.063 22.7257C23.063 27.1749 25.333 30.6901 28.2256 30.6901C31.1182 30.6901 33.3882 27.1749 33.3882 22.7128C33.2974 17.2648 30.6512 14.7873 28.2256 14.7873ZM28.2256 28.5499C26.8117 28.5499 25.2162 26.1502 25.2162 22.7128C25.2162 19.2754 26.8117 16.8757 28.2256 16.8757C29.6395 16.8757 31.2609 19.2754 31.2609 22.7128C31.2609 26.1502 29.6654 28.5499 28.2256 28.5499ZM41.9103 14.7873C39.4847 14.7873 36.8256 17.2648 36.7348 22.7257C36.7348 27.1749 39.0047 30.6901 41.8973 30.6901C44.7899 30.6901 47.0599 27.1749 47.0729 22.7128C46.9691 17.2648 44.323 14.7873 41.9103 14.7873ZM41.8973 28.5499C40.4835 28.5499 38.888 26.1502 38.888 22.7128C38.888 19.2754 40.4835 16.8757 41.8973 16.8757C43.3112 16.8757 44.9326 19.2754 44.9326 22.7128C44.9326 26.1502 43.3372 28.5499 41.8973 28.5499ZM48.0328 42.5589L41.9363 36.4883C38.0578 32.5839 31.7019 32.5839 27.7975 36.4883L21.5064 42.7794C20.0147 44.2451 19.2235 46.2168 19.2365 48.3311C19.2494 51.4053 21.0654 54.0385 23.958 55.2059C26.3318 56.1787 29.847 56.2306 32.558 53.4548L32.8823 53.1824C33.466 52.7154 34.1794 52.5079 34.8928 52.5079C35.723 52.5079 36.5661 52.8062 37.2017 53.4288C41.0672 57.1905 45.5682 56.2177 48.1236 53.7142C50.7178 51.1588 51.8074 46.58 48.0587 42.5459L48.0328 42.5589ZM46.7097 52.1187C45.7109 53.1175 44.31 53.805 42.7924 53.805C41.5341 53.805 40.1851 53.338 38.9269 52.1706C37.9281 51.0291 36.5142 50.4195 35.0096 50.3806C33.5049 50.3806 32.0651 50.9124 31.0922 51.9371C28.9649 54.0644 25.6183 54.272 23.4521 52.5079L23.1927 52.2744C22.0901 51.2756 21.4545 49.8487 21.4416 48.2792C21.4286 46.7486 22.0123 45.2828 23.076 44.2711L29.3541 37.993C32.4283 34.9188 37.4093 34.9188 40.4705 37.993L46.567 44.0895C49.1742 46.8005 48.6295 50.173 46.7227 52.1058L46.7097 52.1187ZM54.8427 23.5559C52.4171 23.5559 49.7709 26.0334 49.6801 31.5073C49.6801 35.9565 51.9501 39.4717 54.8427 39.4717C57.7353 39.4717 60.0053 35.9824 60.0053 31.5073C59.9145 26.0464 57.2683 23.5559 54.8427 23.5559ZM54.8427 37.3055C53.4029 37.3055 51.8334 34.9058 51.8334 31.4684C51.8334 28.031 53.4159 25.6313 54.8427 25.6313C56.2696 25.6313 57.852 28.031 57.852 31.4684C57.852 34.9058 56.2696 37.3055 54.8427 37.3055ZM54.8427 23.5559C52.4171 23.5559 49.7709 26.0334 49.6801 31.5073C49.6801 35.9565 51.9501 39.4717 54.8427 39.4717C57.7353 39.4717 60.0053 35.9824 60.0053 31.5073C59.9145 26.0464 57.2683 23.5559 54.8427 23.5559ZM54.8427 37.3055C53.4029 37.3055 51.8334 34.9058 51.8334 31.4684C51.8334 28.031 53.4159 25.6313 54.8427 25.6313C56.2696 25.6313 57.852 28.031 57.852 31.4684C57.852 34.9058 56.2696 37.3055 54.8427 37.3055ZM48.0328 42.5589L41.9363 36.4883C38.0578 32.5839 31.7019 32.5839 27.7975 36.4883L21.5064 42.7794C20.0147 44.2451 19.2235 46.2168 19.2365 48.3311C19.2494 51.4053 21.0654 54.0385 23.958 55.2059C26.3318 56.1787 29.847 56.2306 32.558 53.4548L32.8823 53.1824C33.466 52.7154 34.1794 52.5079 34.8928 52.5079C35.723 52.5079 36.5661 52.8062 37.2017 53.4288C41.0672 57.1905 45.5682 56.2177 48.1236 53.7142C50.7178 51.1588 51.8074 46.58 48.0587 42.5459L48.0328 42.5589ZM46.7097 52.1187C45.7109 53.1175 44.31 53.805 42.7924 53.805C41.5341 53.805 40.1851 53.338 38.9269 52.1706C37.9281 51.0291 36.5142 50.4195 35.0096 50.3806C33.5049 50.3806 32.0651 50.9124 31.0922 51.9371C28.9649 54.0644 25.6183 54.272 23.4521 52.5079L23.1927 52.2744C22.0901 51.2756 21.4545 49.8487 21.4416 48.2792C21.4286 46.7486 22.0123 45.2828 23.076 44.2711L29.3541 37.993C32.4283 34.9188 37.4093 34.9188 40.4705 37.993L46.567 44.0895C49.1742 46.8005 48.6295 50.173 46.7227 52.1058L46.7097 52.1187ZM41.9103 14.7873C39.4847 14.7873 36.8256 17.2648 36.7348 22.7257C36.7348 27.1749 39.0047 30.6901 41.8973 30.6901C44.7899 30.6901 47.0599 27.1749 47.0729 22.7128C46.9691 17.2648 44.323 14.7873 41.9103 14.7873ZM41.8973 28.5499C40.4835 28.5499 38.888 26.1502 38.888 22.7128C38.888 19.2754 40.4835 16.8757 41.8973 16.8757C43.3112 16.8757 44.9326 19.2754 44.9326 22.7128C44.9326 26.1502 43.3372 28.5499 41.8973 28.5499ZM28.2256 14.7873C25.8129 14.7873 23.1538 17.2648 23.063 22.7257C23.063 27.1749 25.333 30.6901 28.2256 30.6901C31.1182 30.6901 33.3882 27.1749 33.3882 22.7128C33.2974 17.2648 30.6512 14.7873 28.2256 14.7873ZM28.2256 28.5499C26.8117 28.5499 25.2162 26.1502 25.2162 22.7128C25.2162 19.2754 26.8117 16.8757 28.2256 16.8757C29.6395 16.8757 31.2609 19.2754 31.2609 22.7128C31.2609 26.1502 29.6654 28.5499 28.2256 28.5499ZM16.0066 23.5559C13.5939 23.5559 10.9348 26.0334 10.844 31.5073C10.9348 36.9293 13.581 39.4198 16.0066 39.4198C18.4322 39.4198 21.0784 36.9423 21.1692 31.4943C21.0784 26.0464 18.4322 23.5689 16.0066 23.5689V23.5559ZM16.0196 37.3055C14.5798 37.3055 12.9843 34.9058 12.9843 31.4684C12.9843 28.031 14.5798 25.6313 16.0196 25.6313C17.4594 25.6313 19.0289 28.031 19.0289 31.4684C19.0289 34.9058 17.4464 37.3055 16.0196 37.3055ZM16.0066 23.5559C13.5939 23.5559 10.9348 26.0334 10.844 31.5073C10.9348 36.9293 13.581 39.4198 16.0066 39.4198C18.4322 39.4198 21.0784 36.9423 21.1692 31.4943C21.0784 26.0464 18.4322 23.5689 16.0066 23.5689V23.5559ZM16.0196 37.3055C14.5798 37.3055 12.9843 34.9058 12.9843 31.4684C12.9843 28.031 14.5798 25.6313 16.0196 25.6313C17.4594 25.6313 19.0289 28.031 19.0289 31.4684C19.0289 34.9058 17.4464 37.3055 16.0196 37.3055ZM28.2256 14.7873C25.8129 14.7873 23.1538 17.2648 23.063 22.7257C23.063 27.1749 25.333 30.6901 28.2256 30.6901C31.1182 30.6901 33.3882 27.1749 33.3882 22.7128C33.2974 17.2648 30.6512 14.7873 28.2256 14.7873ZM28.2256 28.5499C26.8117 28.5499 25.2162 26.1502 25.2162 22.7128C25.2162 19.2754 26.8117 16.8757 28.2256 16.8757C29.6395 16.8757 31.2609 19.2754 31.2609 22.7128C31.2609 26.1502 29.6654 28.5499 28.2256 28.5499ZM41.9103 14.7873C39.4847 14.7873 36.8256 17.2648 36.7348 22.7257C36.7348 27.1749 39.0047 30.6901 41.8973 30.6901C44.7899 30.6901 47.0599 27.1749 47.0729 22.7128C46.9691 17.2648 44.323 14.7873 41.9103 14.7873ZM41.8973 28.5499C40.4835 28.5499 38.888 26.1502 38.888 22.7128C38.888 19.2754 40.4835 16.8757 41.8973 16.8757C43.3112 16.8757 44.9326 19.2754 44.9326 22.7128C44.9326 26.1502 43.3372 28.5499 41.8973 28.5499ZM48.0328 42.5589L41.9363 36.4883C38.0578 32.5839 31.7019 32.5839 27.7975 36.4883L21.5064 42.7794C20.0147 44.2451 19.2235 46.2168 19.2365 48.3311C19.2494 51.4053 21.0654 54.0385 23.958 55.2059C26.3318 56.1787 29.847 56.2306 32.558 53.4548L32.8823 53.1824C33.466 52.7154 34.1794 52.5079 34.8928 52.5079C35.723 52.5079 36.5661 52.8062 37.2017 53.4288C41.0672 57.1905 45.5682 56.2177 48.1236 53.7142C50.7178 51.1588 51.8074 46.58 48.0587 42.5459L48.0328 42.5589ZM46.7097 52.1187C45.7109 53.1175 44.31 53.805 42.7924 53.805C41.5341 53.805 40.1851 53.338 38.9269 52.1706C37.9281 51.0291 36.5142 50.4195 35.0096 50.3806C33.5049 50.3806 32.0651 50.9124 31.0922 51.9371C28.9649 54.0644 25.6183 54.272 23.4521 52.5079L23.1927 52.2744C22.0901 51.2756 21.4545 49.8487 21.4416 48.2792C21.4286 46.7486 22.0123 45.2828 23.076 44.2711L29.3541 37.993C32.4283 34.9188 37.4093 34.9188 40.4705 37.993L46.567 44.0895C49.1742 46.8005 48.6295 50.173 46.7227 52.1058L46.7097 52.1187ZM54.8427 23.5559C52.4171 23.5559 49.7709 26.0334 49.6801 31.5073C49.6801 35.9565 51.9501 39.4717 54.8427 39.4717C57.7353 39.4717 60.0053 35.9824 60.0053 31.5073C59.9145 26.0464 57.2683 23.5559 54.8427 23.5559ZM54.8427 37.3055C53.4029 37.3055 51.8334 34.9058 51.8334 31.4684C51.8334 28.031 53.4159 25.6313 54.8427 25.6313C56.2696 25.6313 57.852 28.031 57.852 31.4684C57.852 34.9058 56.2696 37.3055 54.8427 37.3055ZM54.8427 23.5559C52.4171 23.5559 49.7709 26.0334 49.6801 31.5073C49.6801 35.9565 51.9501 39.4717 54.8427 39.4717C57.7353 39.4717 60.0053 35.9824 60.0053 31.5073C59.9145 26.0464 57.2683 23.5559 54.8427 23.5559ZM54.8427 37.3055C53.4029 37.3055 51.8334 34.9058 51.8334 31.4684C51.8334 28.031 53.4159 25.6313 54.8427 25.6313C56.2696 25.6313 57.852 28.031 57.852 31.4684C57.852 34.9058 56.2696 37.3055 54.8427 37.3055ZM48.0328 42.5589L41.9363 36.4883C38.0578 32.5839 31.7019 32.5839 27.7975 36.4883L21.5064 42.7794C20.0147 44.2451 19.2235 46.2168 19.2365 48.3311C19.2494 51.4053 21.0654 54.0385 23.958 55.2059C26.3318 56.1787 29.847 56.2306 32.558 53.4548L32.8823 53.1824C33.466 52.7154 34.1794 52.5079 34.8928 52.5079C35.723 52.5079 36.5661 52.8062 37.2017 53.4288C41.0672 57.1905 45.5682 56.2177 48.1236 53.7142C50.7178 51.1588 51.8074 46.58 48.0587 42.5459L48.0328 42.5589ZM46.7097 52.1187C45.7109 53.1175 44.31 53.805 42.7924 53.805C41.5341 53.805 40.1851 53.338 38.9269 52.1706C37.9281 51.0291 36.5142 50.4195 35.0096 50.3806C33.5049 50.3806 32.0651 50.9124 31.0922 51.9371C28.9649 54.0644 25.6183 54.272 23.4521 52.5079L23.1927 52.2744C22.0901 51.2756 21.4545 49.8487 21.4416 48.2792C21.4286 46.7486 22.0123 45.2828 23.076 44.2711L29.3541 37.993C32.4283 34.9188 37.4093 34.9188 40.4705 37.993L46.567 44.0895C49.1742 46.8005 48.6295 50.173 46.7227 52.1058L46.7097 52.1187ZM41.9103 14.7873C39.4847 14.7873 36.8256 17.2648 36.7348 22.7257C36.7348 27.1749 39.0047 30.6901 41.8973 30.6901C44.7899 30.6901 47.0599 27.1749 47.0729 22.7128C46.9691 17.2648 44.323 14.7873 41.9103 14.7873ZM41.8973 28.5499C40.4835 28.5499 38.888 26.1502 38.888 22.7128C38.888 19.2754 40.4835 16.8757 41.8973 16.8757C43.3112 16.8757 44.9326 19.2754 44.9326 22.7128C44.9326 26.1502 43.3372 28.5499 41.8973 28.5499ZM28.2256 14.7873C25.8129 14.7873 23.1538 17.2648 23.063 22.7257C23.063 27.1749 25.333 30.6901 28.2256 30.6901C31.1182 30.6901 33.3882 27.1749 33.3882 22.7128C33.2974 17.2648 30.6512 14.7873 28.2256 14.7873ZM28.2256 28.5499C26.8117 28.5499 25.2162 26.1502 25.2162 22.7128C25.2162 19.2754 26.8117 16.8757 28.2256 16.8757C29.6395 16.8757 31.2609 19.2754 31.2609 22.7128C31.2609 26.1502 29.6654 28.5499 28.2256 28.5499ZM16.0066 23.5559C13.5939 23.5559 10.9348 26.0334 10.844 31.5073C10.9348 36.9293 13.581 39.4198 16.0066 39.4198C18.4322 39.4198 21.0784 36.9423 21.1692 31.4943C21.0784 26.0464 18.4322 23.5689 16.0066 23.5689V23.5559ZM16.0196 37.3055C14.5798 37.3055 12.9843 34.9058 12.9843 31.4684C12.9843 28.031 14.5798 25.6313 16.0196 25.6313C17.4594 25.6313 19.0289 28.031 19.0289 31.4684C19.0289 34.9058 17.4464 37.3055 16.0196 37.3055ZM16.0066 23.5559C13.5939 23.5559 10.9348 26.0334 10.844 31.5073C10.9348 36.9293 13.581 39.4198 16.0066 39.4198C18.4322 39.4198 21.0784 36.9423 21.1692 31.4943C21.0784 26.0464 18.4322 23.5689 16.0066 23.5689V23.5559ZM16.0196 37.3055C14.5798 37.3055 12.9843 34.9058 12.9843 31.4684C12.9843 28.031 14.5798 25.6313 16.0196 25.6313C17.4594 25.6313 19.0289 28.031 19.0289 31.4684C19.0289 34.9058 17.4464 37.3055 16.0196 37.3055ZM28.2256 14.7873C25.8129 14.7873 23.1538 17.2648 23.063 22.7257C23.063 27.1749 25.333 30.6901 28.2256 30.6901C31.1182 30.6901 33.3882 27.1749 33.3882 22.7128C33.2974 17.2648 30.6512 14.7873 28.2256 14.7873ZM28.2256 28.5499C26.8117 28.5499 25.2162 26.1502 25.2162 22.7128C25.2162 19.2754 26.8117 16.8757 28.2256 16.8757C29.6395 16.8757 31.2609 19.2754 31.2609 22.7128C31.2609 26.1502 29.6654 28.5499 28.2256 28.5499ZM41.9103 14.7873C39.4847 14.7873 36.8256 17.2648 36.7348 22.7257C36.7348 27.1749 39.0047 30.6901 41.8973 30.6901C44.7899 30.6901 47.0599 27.1749 47.0729 22.7128C46.9691 17.2648 44.323 14.7873 41.9103 14.7873ZM41.8973 28.5499C40.4835 28.5499 38.888 26.1502 38.888 22.7128C38.888 19.2754 40.4835 16.8757 41.8973 16.8757C43.3112 16.8757 44.9326 19.2754 44.9326 22.7128C44.9326 26.1502 43.3372 28.5499 41.8973 28.5499ZM48.0328 42.5589L41.9363 36.4883C38.0578 32.5839 31.7019 32.5839 27.7975 36.4883L21.5064 42.7794C20.0147 44.2451 19.2235 46.2168 19.2365 48.3311C19.2494 51.4053 21.0654 54.0385 23.958 55.2059C26.3318 56.1787 29.847 56.2306 32.558 53.4548L32.8823 53.1824C33.466 52.7154 34.1794 52.5079 34.8928 52.5079C35.723 52.5079 36.5661 52.8062 37.2017 53.4288C41.0672 57.1905 45.5682 56.2177 48.1236 53.7142C50.7178 51.1588 51.8074 46.58 48.0587 42.5459L48.0328 42.5589ZM46.7097 52.1187C45.7109 53.1175 44.31 53.805 42.7924 53.805C41.5341 53.805 40.1851 53.338 38.9269 52.1706C37.9281 51.0291 36.5142 50.4195 35.0096 50.3806C33.5049 50.3806 32.0651 50.9124 31.0922 51.9371C28.9649 54.0644 25.6183 54.272 23.4521 52.5079L23.1927 52.2744C22.0901 51.2756 21.4545 49.8487 21.4416 48.2792C21.4286 46.7486 22.0123 45.2828 23.076 44.2711L29.3541 37.993C32.4283 34.9188 37.4093 34.9188 40.4705 37.993L46.567 44.0895C49.1742 46.8005 48.6295 50.173 46.7227 52.1058L46.7097 52.1187ZM54.8427 23.5559C52.4171 23.5559 49.7709 26.0334 49.6801 31.5073C49.6801 35.9565 51.9501 39.4717 54.8427 39.4717C57.7353 39.4717 60.0053 35.9824 60.0053 31.5073C59.9145 26.0464 57.2683 23.5559 54.8427 23.5559ZM54.8427 37.3055C53.4029 37.3055 51.8334 34.9058 51.8334 31.4684C51.8334 28.031 53.4159 25.6313 54.8427 25.6313C56.2696 25.6313 57.852 28.031 57.852 31.4684C57.852 34.9058 56.2696 37.3055 54.8427 37.3055ZM54.8427 23.5559C52.4171 23.5559 49.7709 26.0334 49.6801 31.5073C49.6801 35.9565 51.9501 39.4717 54.8427 39.4717C57.7353 39.4717 60.0053 35.9824 60.0053 31.5073C59.9145 26.0464 57.2683 23.5559 54.8427 23.5559ZM54.8427 37.3055C53.4029 37.3055 51.8334 34.9058 51.8334 31.4684C51.8334 28.031 53.4159 25.6313 54.8427 25.6313C56.2696 25.6313 57.852 28.031 57.852 31.4684C57.852 34.9058 56.2696 37.3055 54.8427 37.3055ZM48.0328 42.5589L41.9363 36.4883C38.0578 32.5839 31.7019 32.5839 27.7975 36.4883L21.5064 42.7794C20.0147 44.2451 19.2235 46.2168 19.2365 48.3311C19.2494 51.4053 21.0654 54.0385 23.958 55.2059C26.3318 56.1787 29.847 56.2306 32.558 53.4548L32.8823 53.1824C33.466 52.7154 34.1794 52.5079 34.8928 52.5079C35.723 52.5079 36.5661 52.8062 37.2017 53.4288C41.0672 57.1905 45.5682 56.2177 48.1236 53.7142C50.7178 51.1588 51.8074 46.58 48.0587 42.5459L48.0328 42.5589ZM46.7097 52.1187C45.7109 53.1175 44.31 53.805 42.7924 53.805C41.5341 53.805 40.1851 53.338 38.9269 52.1706C37.9281 51.0291 36.5142 50.4195 35.0096 50.3806C33.5049 50.3806 32.0651 50.9124 31.0922 51.9371C28.9649 54.0644 25.6183 54.272 23.4521 52.5079L23.1927 52.2744C22.0901 51.2756 21.4545 49.8487 21.4416 48.2792C21.4286 46.7486 22.0123 45.2828 23.076 44.2711L29.3541 37.993C32.4283 34.9188 37.4093 34.9188 40.4705 37.993L46.567 44.0895C49.1742 46.8005 48.6295 50.173 46.7227 52.1058L46.7097 52.1187ZM41.9103 14.7873C39.4847 14.7873 36.8256 17.2648 36.7348 22.7257C36.7348 27.1749 39.0047 30.6901 41.8973 30.6901C44.7899 30.6901 47.0599 27.1749 47.0729 22.7128C46.9691 17.2648 44.323 14.7873 41.9103 14.7873ZM41.8973 28.5499C40.4835 28.5499 38.888 26.1502 38.888 22.7128C38.888 19.2754 40.4835 16.8757 41.8973 16.8757C43.3112 16.8757 44.9326 19.2754 44.9326 22.7128C44.9326 26.1502 43.3372 28.5499 41.8973 28.5499ZM28.2256 14.7873C25.8129 14.7873 23.1538 17.2648 23.063 22.7257C23.063 27.1749 25.333 30.6901 28.2256 30.6901C31.1182 30.6901 33.3882 27.1749 33.3882 22.7128C33.2974 17.2648 30.6512 14.7873 28.2256 14.7873ZM28.2256 28.5499C26.8117 28.5499 25.2162 26.1502 25.2162 22.7128C25.2162 19.2754 26.8117 16.8757 28.2256 16.8757C29.6395 16.8757 31.2609 19.2754 31.2609 22.7128C31.2609 26.1502 29.6654 28.5499 28.2256 28.5499ZM16.0066 23.5559C13.5939 23.5559 10.9348 26.0334 10.844 31.5073C10.9348 36.9293 13.581 39.4198 16.0066 39.4198C18.4322 39.4198 21.0784 36.9423 21.1692 31.4943C21.0784 26.0464 18.4322 23.5689 16.0066 23.5689V23.5559ZM16.0196 37.3055C14.5798 37.3055 12.9843 34.9058 12.9843 31.4684C12.9843 28.031 14.5798 25.6313 16.0196 25.6313C17.4594 25.6313 19.0289 28.031 19.0289 31.4684C19.0289 34.9058 17.4464 37.3055 16.0196 37.3055ZM16.0066 23.5559C13.5939 23.5559 10.9348 26.0334 10.844 31.5073C10.9348 36.9293 13.581 39.4198 16.0066 39.4198C18.4322 39.4198 21.0784 36.9423 21.1692 31.4943C21.0784 26.0464 18.4322 23.5689 16.0066 23.5689V23.5559ZM16.0196 37.3055C14.5798 37.3055 12.9843 34.9058 12.9843 31.4684C12.9843 28.031 14.5798 25.6313 16.0196 25.6313C17.4594 25.6313 19.0289 28.031 19.0289 31.4684C19.0289 34.9058 17.4464 37.3055 16.0196 37.3055ZM28.2256 14.7873C25.8129 14.7873 23.1538 17.2648 23.063 22.7257C23.063 27.1749 25.333 30.6901 28.2256 30.6901C31.1182 30.6901 33.3882 27.1749 33.3882 22.7128C33.2974 17.2648 30.6512 14.7873 28.2256 14.7873ZM28.2256 28.5499C26.8117 28.5499 25.2162 26.1502 25.2162 22.7128C25.2162 19.2754 26.8117 16.8757 28.2256 16.8757C29.6395 16.8757 31.2609 19.2754 31.2609 22.7128C31.2609 26.1502 29.6654 28.5499 28.2256 28.5499ZM41.9103 14.7873C39.4847 14.7873 36.8256 17.2648 36.7348 22.7257C36.7348 27.1749 39.0047 30.6901 41.8973 30.6901C44.7899 30.6901 47.0599 27.1749 47.0729 22.7128C46.9691 17.2648 44.323 14.7873 41.9103 14.7873ZM41.8973 28.5499C40.4835 28.5499 38.888 26.1502 38.888 22.7128C38.888 19.2754 40.4835 16.8757 41.8973 16.8757C43.3112 16.8757 44.9326 19.2754 44.9326 22.7128C44.9326 26.1502 43.3372 28.5499 41.8973 28.5499ZM48.0328 42.5589L41.9363 36.4883C38.0578 32.5839 31.7019 32.5839 27.7975 36.4883L21.5064 42.7794C20.0147 44.2451 19.2235 46.2168 19.2365 48.3311C19.2494 51.4053 21.0654 54.0385 23.958 55.2059C26.3318 56.1787 29.847 56.2306 32.558 53.4548L32.8823 53.1824C33.466 52.7154 34.1794 52.5079 34.8928 52.5079C35.723 52.5079 36.5661 52.8062 37.2017 53.4288C41.0672 57.1905 45.5682 56.2177 48.1236 53.7142C50.7178 51.1588 51.8074 46.58 48.0587 42.5459L48.0328 42.5589ZM46.7097 52.1187C45.7109 53.1175 44.31 53.805 42.7924 53.805C41.5341 53.805 40.1851 53.338 38.9269 52.1706C37.9281 51.0291 36.5142 50.4195 35.0096 50.3806C33.5049 50.3806 32.0651 50.9124 31.0922 51.9371C28.9649 54.0644 25.6183 54.272 23.4521 52.5079L23.1927 52.2744C22.0901 51.2756 21.4545 49.8487 21.4416 48.2792C21.4286 46.7486 22.0123 45.2828 23.076 44.2711L29.3541 37.993C32.4283 34.9188 37.4093 34.9188 40.4705 37.993L46.567 44.0895C49.1742 46.8005 48.6295 50.173 46.7227 52.1058L46.7097 52.1187ZM54.8427 23.5559C52.4171 23.5559 49.7709 26.0334 49.6801 31.5073C49.6801 35.9565 51.9501 39.4717 54.8427 39.4717C57.7353 39.4717 60.0053 35.9824 60.0053 31.5073C59.9145 26.0464 57.2683 23.5559 54.8427 23.5559ZM54.8427 37.3055C53.4029 37.3055 51.8334 34.9058 51.8334 31.4684C51.8334 28.031 53.4159 25.6313 54.8427 25.6313C56.2696 25.6313 57.852 28.031 57.852 31.4684C57.852 34.9058 56.2696 37.3055 54.8427 37.3055ZM54.8427 23.5559C52.4171 23.5559 49.7709 26.0334 49.6801 31.5073C49.6801 35.9565 51.9501 39.4717 54.8427 39.4717C57.7353 39.4717 60.0053 35.9824 60.0053 31.5073C59.9145 26.0464 57.2683 23.5559 54.8427 23.5559ZM54.8427 37.3055C53.4029 37.3055 51.8334 34.9058 51.8334 31.4684C51.8334 28.031 53.4159 25.6313 54.8427 25.6313C56.2696 25.6313 57.852 28.031 57.852 31.4684C57.852 34.9058 56.2696 37.3055 54.8427 37.3055ZM48.0328 42.5589L41.9363 36.4883C38.0578 32.5839 31.7019 32.5839 27.7975 36.4883L21.5064 42.7794C20.0147 44.2451 19.2235 46.2168 19.2365 48.3311C19.2494 51.4053 21.0654 54.0385 23.958 55.2059C26.3318 56.1787 29.847 56.2306 32.558 53.4548L32.8823 53.1824C33.466 52.7154 34.1794 52.5079 34.8928 52.5079C35.723 52.5079 36.5661 52.8062 37.2017 53.4288C41.0672 57.1905 45.5682 56.2177 48.1236 53.7142C50.7178 51.1588 51.8074 46.58 48.0587 42.5459L48.0328 42.5589ZM46.7097 52.1187C45.7109 53.1175 44.31 53.805 42.7924 53.805C41.5341 53.805 40.1851 53.338 38.9269 52.1706C37.9281 51.0291 36.5142 50.4195 35.0096 50.3806C33.5049 50.3806 32.0651 50.9124 31.0922 51.9371C28.9649 54.0644 25.6183 54.272 23.4521 52.5079L23.1927 52.2744C22.0901 51.2756 21.4545 49.8487 21.4416 48.2792C21.4286 46.7486 22.0123 45.2828 23.076 44.2711L29.3541 37.993C32.4283 34.9188 37.4093 34.9188 40.4705 37.993L46.567 44.0895C49.1742 46.8005 48.6295 50.173 46.7227 52.1058L46.7097 52.1187ZM41.9103 14.7873C39.4847 14.7873 36.8256 17.2648 36.7348 22.7257C36.7348 27.1749 39.0047 30.6901 41.8973 30.6901C44.7899 30.6901 47.0599 27.1749 47.0729 22.7128C46.9691 17.2648 44.323 14.7873 41.9103 14.7873ZM41.8973 28.5499C40.4835 28.5499 38.888 26.1502 38.888 22.7128C38.888 19.2754 40.4835 16.8757 41.8973 16.8757C43.3112 16.8757 44.9326 19.2754 44.9326 22.7128C44.9326 26.1502 43.3372 28.5499 41.8973 28.5499ZM28.2256 14.7873C25.8129 14.7873 23.1538 17.2648 23.063 22.7257C23.063 27.1749 25.333 30.6901 28.2256 30.6901C31.1182 30.6901 33.3882 27.1749 33.3882 22.7128C33.2974 17.2648 30.6512 14.7873 28.2256 14.7873ZM28.2256 28.5499C26.8117 28.5499 25.2162 26.1502 25.2162 22.7128C25.2162 19.2754 26.8117 16.8757 28.2256 16.8757C29.6395 16.8757 31.2609 19.2754 31.2609 22.7128C31.2609 26.1502 29.6654 28.5499 28.2256 28.5499ZM16.0066 23.5559C13.5939 23.5559 10.9348 26.0334 10.844 31.5073C10.9348 36.9293 13.581 39.4198 16.0066 39.4198C18.4322 39.4198 21.0784 36.9423 21.1692 31.4943C21.0784 26.0464 18.4322 23.5689 16.0066 23.5689V23.5559ZM16.0196 37.3055C14.5798 37.3055 12.9843 34.9058 12.9843 31.4684C12.9843 28.031 14.5798 25.6313 16.0196 25.6313C17.4594 25.6313 19.0289 28.031 19.0289 31.4684C19.0289 34.9058 17.4464 37.3055 16.0196 37.3055ZM16.0066 23.5559C13.5939 23.5559 10.9348 26.0334 10.844 31.5073C10.9348 36.9293 13.581 39.4198 16.0066 39.4198C18.4322 39.4198 21.0784 36.9423 21.1692 31.4943C21.0784 26.0464 18.4322 23.5689 16.0066 23.5689V23.5559ZM16.0196 37.3055C14.5798 37.3055 12.9843 34.9058 12.9843 31.4684C12.9843 28.031 14.5798 25.6313 16.0196 25.6313C17.4594 25.6313 19.0289 28.031 19.0289 31.4684C19.0289 34.9058 17.4464 37.3055 16.0196 37.3055ZM28.2256 14.7873C25.8129 14.7873 23.1538 17.2648 23.063 22.7257C23.063 27.1749 25.333 30.6901 28.2256 30.6901C31.1182 30.6901 33.3882 27.1749 33.3882 22.7128C33.2974 17.2648 30.6512 14.7873 28.2256 14.7873ZM28.2256 28.5499C26.8117 28.5499 25.2162 26.1502 25.2162 22.7128C25.2162 19.2754 26.8117 16.8757 28.2256 16.8757C29.6395 16.8757 31.2609 19.2754 31.2609 22.7128C31.2609 26.1502 29.6654 28.5499 28.2256 28.5499ZM41.9103 14.7873C39.4847 14.7873 36.8256 17.2648 36.7348 22.7257C36.7348 27.1749 39.0047 30.6901 41.8973 30.6901C44.7899 30.6901 47.0599 27.1749 47.0729 22.7128C46.9691 17.2648 44.323 14.7873 41.9103 14.7873ZM41.8973 28.5499C40.4835 28.5499 38.888 26.1502 38.888 22.7128C38.888 19.2754 40.4835 16.8757 41.8973 16.8757C43.3112 16.8757 44.9326 19.2754 44.9326 22.7128C44.9326 26.1502 43.3372 28.5499 41.8973 28.5499ZM48.0328 42.5589L41.9363 36.4883C38.0578 32.5839 31.7019 32.5839 27.7975 36.4883L21.5064 42.7794C20.0147 44.2451 19.2235 46.2168 19.2365 48.3311C19.2494 51.4053 21.0654 54.0385 23.958 55.2059C26.3318 56.1787 29.847 56.2306 32.558 53.4548L32.8823 53.1824C33.466 52.7154 34.1794 52.5079 34.8928 52.5079C35.723 52.5079 36.5661 52.8062 37.2017 53.4288C41.0672 57.1905 45.5682 56.2177 48.1236 53.7142C50.7178 51.1588 51.8074 46.58 48.0587 42.5459L48.0328 42.5589ZM46.7097 52.1187C45.7109 53.1175 44.31 53.805 42.7924 53.805C41.5341 53.805 40.1851 53.338 38.9269 52.1706C37.9281 51.0291 36.5142 50.4195 35.0096 50.3806C33.5049 50.3806 32.0651 50.9124 31.0922 51.9371C28.9649 54.0644 25.6183 54.272 23.4521 52.5079L23.1927 52.2744C22.0901 51.2756 21.4545 49.8487 21.4416 48.2792C21.4286 46.7486 22.0123 45.2828 23.076 44.2711L29.3541 37.993C32.4283 34.9188 37.4093 34.9188 40.4705 37.993L46.567 44.0895C49.1742 46.8005 48.6295 50.173 46.7227 52.1058L46.7097 52.1187ZM54.8427 23.5559C52.4171 23.5559 49.7709 26.0334 49.6801 31.5073C49.6801 35.9565 51.9501 39.4717 54.8427 39.4717C57.7353 39.4717 60.0053 35.9824 60.0053 31.5073C59.9145 26.0464 57.2683 23.5559 54.8427 23.5559ZM54.8427 37.3055C53.4029 37.3055 51.8334 34.9058 51.8334 31.4684C51.8334 28.031 53.4159 25.6313 54.8427 25.6313C56.2696 25.6313 57.852 28.031 57.852 31.4684C57.852 34.9058 56.2696 37.3055 54.8427 37.3055ZM54.8427 23.5559C52.4171 23.5559 49.7709 26.0334 49.6801 31.5073C49.6801 35.9565 51.9501 39.4717 54.8427 39.4717C57.7353 39.4717 60.0053 35.9824 60.0053 31.5073C59.9145 26.0464 57.2683 23.5559 54.8427 23.5559ZM54.8427 37.3055C53.4029 37.3055 51.8334 34.9058 51.8334 31.4684C51.8334 28.031 53.4159 25.6313 54.8427 25.6313C56.2696 25.6313 57.852 28.031 57.852 31.4684C57.852 34.9058 56.2696 37.3055 54.8427 37.3055ZM48.0328 42.5589L41.9363 36.4883C38.0578 32.5839 31.7019 32.5839 27.7975 36.4883L21.5064 42.7794C20.0147 44.2451 19.2235 46.2168 19.2365 48.3311C19.2494 51.4053 21.0654 54.0385 23.958 55.2059C26.3318 56.1787 29.847 56.2306 32.558 53.4548L32.8823 53.1824C33.466 52.7154 34.1794 52.5079 34.8928 52.5079C35.723 52.5079 36.5661 52.8062 37.2017 53.4288C41.0672 57.1905 45.5682 56.2177 48.1236 53.7142C50.7178 51.1588 51.8074 46.58 48.0587 42.5459L48.0328 42.5589ZM46.7097 52.1187C45.7109 53.1175 44.31 53.805 42.7924 53.805C41.5341 53.805 40.1851 53.338 38.9269 52.1706C37.9281 51.0291 36.5142 50.4195 35.0096 50.3806C33.5049 50.3806 32.0651 50.9124 31.0922 51.9371C28.9649 54.0644 25.6183 54.272 23.4521 52.5079L23.1927 52.2744C22.0901 51.2756 21.4545 49.8487 21.4416 48.2792C21.4286 46.7486 22.0123 45.2828 23.076 44.2711L29.3541 37.993C32.4283 34.9188 37.4093 34.9188 40.4705 37.993L46.567 44.0895C49.1742 46.8005 48.6295 50.173 46.7227 52.1058L46.7097 52.1187ZM41.9103 14.7873C39.4847 14.7873 36.8256 17.2648 36.7348 22.7257C36.7348 27.1749 39.0047 30.6901 41.8973 30.6901C44.7899 30.6901 47.0599 27.1749 47.0729 22.7128C46.9691 17.2648 44.323 14.7873 41.9103 14.7873ZM41.8973 28.5499C40.4835 28.5499 38.888 26.1502 38.888 22.7128C38.888 19.2754 40.4835 16.8757 41.8973 16.8757C43.3112 16.8757 44.9326 19.2754 44.9326 22.7128C44.9326 26.1502 43.3372 28.5499 41.8973 28.5499ZM28.2256 14.7873C25.8129 14.7873 23.1538 17.2648 23.063 22.7257C23.063 27.1749 25.333 30.6901 28.2256 30.6901C31.1182 30.6901 33.3882 27.1749 33.3882 22.7128C33.2974 17.2648 30.6512 14.7873 28.2256 14.7873ZM28.2256 28.5499C26.8117 28.5499 25.2162 26.1502 25.2162 22.7128C25.2162 19.2754 26.8117 16.8757 28.2256 16.8757C29.6395 16.8757 31.2609 19.2754 31.2609 22.7128C31.2609 26.1502 29.6654 28.5499 28.2256 28.5499ZM16.0066 23.5559C13.5939 23.5559 10.9348 26.0334 10.844 31.5073C10.9348 36.9293 13.581 39.4198 16.0066 39.4198C18.4322 39.4198 21.0784 36.9423 21.1692 31.4943C21.0784 26.0464 18.4322 23.5689 16.0066 23.5689V23.5559ZM16.0196 37.3055C14.5798 37.3055 12.9843 34.9058 12.9843 31.4684C12.9843 28.031 14.5798 25.6313 16.0196 25.6313C17.4594 25.6313 19.0289 28.031 19.0289 31.4684C19.0289 34.9058 17.4464 37.3055 16.0196 37.3055ZM54.8427 23.5559C52.4171 23.5559 49.7709 26.0334 49.6801 31.5073C49.6801 35.9565 51.9501 39.4717 54.8427 39.4717C57.7353 39.4717 60.0053 35.9824 60.0053 31.5073C59.9145 26.0464 57.2683 23.5559 54.8427 23.5559ZM54.8427 37.3055C53.4029 37.3055 51.8334 34.9058 51.8334 31.4684C51.8334 28.031 53.4159 25.6313 54.8427 25.6313C56.2696 25.6313 57.852 28.031 57.852 31.4684C57.852 34.9058 56.2696 37.3055 54.8427 37.3055ZM48.0328 42.5589L41.9363 36.4883C38.0578 32.5839 31.7019 32.5839 27.7975 36.4883L21.5064 42.7794C20.0147 44.2451 19.2235 46.2168 19.2365 48.3311C19.2494 51.4053 21.0654 54.0385 23.958 55.2059C26.3318 56.1787 29.847 56.2306 32.558 53.4548L32.8823 53.1824C33.466 52.7154 34.1794 52.5079 34.8928 52.5079C35.723 52.5079 36.5661 52.8062 37.2017 53.4288C41.0672 57.1905 45.5682 56.2177 48.1236 53.7142C50.7178 51.1588 51.8074 46.58 48.0587 42.5459L48.0328 42.5589ZM46.7097 52.1187C45.7109 53.1175 44.31 53.805 42.7924 53.805C41.5341 53.805 40.1851 53.338 38.9269 52.1706C37.9281 51.0291 36.5142 50.4195 35.0096 50.3806C33.5049 50.3806 32.0651 50.9124 31.0922 51.9371C28.9649 54.0644 25.6183 54.272 23.4521 52.5079L23.1927 52.2744C22.0901 51.2756 21.4545 49.8487 21.4416 48.2792C21.4286 46.7486 22.0123 45.2828 23.076 44.2711L29.3541 37.993C32.4283 34.9188 37.4093 34.9188 40.4705 37.993L46.567 44.0895C49.1742 46.8005 48.6295 50.173 46.7227 52.1058L46.7097 52.1187ZM41.9103 14.7873C39.4847 14.7873 36.8256 17.2648 36.7348 22.7257C36.7348 27.1749 39.0047 30.6901 41.8973 30.6901C44.7899 30.6901 47.0599 27.1749 47.0729 22.7128C46.9691 17.2648 44.323 14.7873 41.9103 14.7873ZM41.8973 28.5499C40.4835 28.5499 38.888 26.1502 38.888 22.7128C38.888 19.2754 40.4835 16.8757 41.8973 16.8757C43.3112 16.8757 44.9326 19.2754 44.9326 22.7128C44.9326 26.1502 43.3372 28.5499 41.8973 28.5499ZM28.2256 14.7873C25.8129 14.7873 23.1538 17.2648 23.063 22.7257C23.063 27.1749 25.333 30.6901 28.2256 30.6901C31.1182 30.6901 33.3882 27.1749 33.3882 22.7128C33.2974 17.2648 30.6512 14.7873 28.2256 14.7873ZM28.2256 28.5499C26.8117 28.5499 25.2162 26.1502 25.2162 22.7128C25.2162 19.2754 26.8117 16.8757 28.2256 16.8757C29.6395 16.8757 31.2609 19.2754 31.2609 22.7128C31.2609 26.1502 29.6654 28.5499 28.2256 28.5499ZM16.0066 23.5559C13.5939 23.5559 10.9348 26.0334 10.844 31.5073C10.9348 36.9293 13.581 39.4198 16.0066 39.4198C18.4322 39.4198 21.0784 36.9423 21.1692 31.4943C21.0784 26.0464 18.4322 23.5689 16.0066 23.5689V23.5559ZM16.0196 37.3055C14.5798 37.3055 12.9843 34.9058 12.9843 31.4684C12.9843 28.031 14.5798 25.6313 16.0196 25.6313C17.4594 25.6313 19.0289 28.031 19.0289 31.4684C19.0289 34.9058 17.4464 37.3055 16.0196 37.3055ZM48.0328 42.5589L41.9363 36.4883C38.0578 32.5839 31.7019 32.5839 27.7975 36.4883L21.5064 42.7794C20.0147 44.2451 19.2235 46.2168 19.2365 48.3311C19.2494 51.4053 21.0654 54.0385 23.958 55.2059C26.3318 56.1787 29.847 56.2306 32.558 53.4548L32.8823 53.1824C33.466 52.7154 34.1794 52.5079 34.8928 52.5079C35.723 52.5079 36.5661 52.8062 37.2017 53.4288C41.0672 57.1905 45.5682 56.2177 48.1236 53.7142C50.7178 51.1588 51.8074 46.58 48.0587 42.5459L48.0328 42.5589ZM46.7097 52.1187C45.7109 53.1175 44.31 53.805 42.7924 53.805C41.5341 53.805 40.1851 53.338 38.9269 52.1706C37.9281 51.0291 36.5142 50.4195 35.0096 50.3806C33.5049 50.3806 32.0651 50.9124 31.0922 51.9371C28.9649 54.0644 25.6183 54.272 23.4521 52.5079L23.1927 52.2744C22.0901 51.2756 21.4545 49.8487 21.4416 48.2792C21.4286 46.7486 22.0123 45.2828 23.076 44.2711L29.3541 37.993C32.4283 34.9188 37.4093 34.9188 40.4705 37.993L46.567 44.0895C49.1742 46.8005 48.6295 50.173 46.7227 52.1058L46.7097 52.1187ZM41.9103 14.7873C39.4847 14.7873 36.8256 17.2648 36.7348 22.7257C36.7348 27.1749 39.0047 30.6901 41.8973 30.6901C44.7899 30.6901 47.0599 27.1749 47.0729 22.7128C46.9691 17.2648 44.323 14.7873 41.9103 14.7873ZM41.8973 28.5499C40.4835 28.5499 38.888 26.1502 38.888 22.7128C38.888 19.2754 40.4835 16.8757 41.8973 16.8757C43.3112 16.8757 44.9326 19.2754 44.9326 22.7128C44.9326 26.1502 43.3372 28.5499 41.8973 28.5499ZM54.8427 23.5559C52.4171 23.5559 49.7709 26.0334 49.6801 31.5073C49.6801 35.9565 51.9501 39.4717 54.8427 39.4717C57.7353 39.4717 60.0053 35.9824 60.0053 31.5073C59.9145 26.0464 57.2683 23.5559 54.8427 23.5559ZM54.8427 37.3055C53.4029 37.3055 51.8334 34.9058 51.8334 31.4684C51.8334 28.031 53.4159 25.6313 54.8427 25.6313C56.2696 25.6313 57.852 28.031 57.852 31.4684C57.852 34.9058 56.2696 37.3055 54.8427 37.3055ZM28.2256 14.7873C25.8129 14.7873 23.1538 17.2648 23.063 22.7257C23.063 27.1749 25.333 30.6901 28.2256 30.6901C31.1182 30.6901 33.3882 27.1749 33.3882 22.7128C33.2974 17.2648 30.6512 14.7873 28.2256 14.7873ZM28.2256 28.5499C26.8117 28.5499 25.2162 26.1502 25.2162 22.7128C25.2162 19.2754 26.8117 16.8757 28.2256 16.8757C29.6395 16.8757 31.2609 19.2754 31.2609 22.7128C31.2609 26.1502 29.6654 28.5499 28.2256 28.5499ZM16.0066 23.5559C13.5939 23.5559 10.9348 26.0334 10.844 31.5073C10.9348 36.9293 13.581 39.4198 16.0066 39.4198C18.4322 39.4198 21.0784 36.9423 21.1692 31.4943C21.0784 26.0464 18.4322 23.5689 16.0066 23.5689V23.5559ZM16.0196 37.3055C14.5798 37.3055 12.9843 34.9058 12.9843 31.4684C12.9843 28.031 14.5798 25.6313 16.0196 25.6313C17.4594 25.6313 19.0289 28.031 19.0289 31.4684C19.0289 34.9058 17.4464 37.3055 16.0196 37.3055Z" fill="#273B70"/>
</svg>
