<svg width="163" height="102" viewBox="0 0 163 102" fill="none" xmlns="http://www.w3.org/2000/svg">
<rect width="162.683" height="101.49" rx="12.597" fill="url(#paint0_linear_431_987)" fill-opacity="0.7"/>
<path d="M65.721 47.1354C69.836 55.2181 76.4658 61.8157 84.553 65.957L90.8398 59.6736C91.6114 58.9025 92.7545 58.6454 93.7546 58.9881C96.9552 60.0449 100.413 60.6161 103.956 60.6161C105.528 60.6161 106.814 61.9013 106.814 63.4722V73.4399C106.814 75.0107 105.528 76.296 103.956 76.296C77.123 76.296 55.3762 54.5612 55.3762 27.7427C55.3762 26.1718 56.6622 24.8866 58.2339 24.8866H68.2357C69.8074 24.8866 71.0934 26.1718 71.0934 27.7427C71.0934 31.3128 71.6649 34.7401 72.7222 37.9389C73.0366 38.9385 72.808 40.0524 72.0078 40.8521L65.721 47.1354ZM104.414 26.8573L102.385 24.858L83.9528 42.8513V30.5987H81.0952V47.7352H98.2412V44.8791H86.3819L104.414 26.8573Z" fill="black"/>
<defs>
<linearGradient id="paint0_linear_431_987" x1="-9.77867e-10" y1="50.745" x2="190.055" y2="50.721" gradientUnits="userSpaceOnUse">
<stop stop-color="#F3AE49"/>
<stop offset="0.5" stop-color="#F3AE49"/>
<stop offset="1" stop-color="#AD7930"/>
</linearGradient>
</defs>
</svg>
