<svg width="109" height="81" viewBox="0 0 109 81" fill="none" xmlns="http://www.w3.org/2000/svg">
<path d="M101.838 32.2852H99.1527L99.6197 31.3512C100.1 30.3914 100.1 29.6909 100.1 28.6273V15.189C100.1 11.3884 96.9995 8.17152 93.3416 8.17152H82.2511L78.7748 0.946498C78.5932 0.57033 78.243 0.259017 77.8408 0.103361C77.4258 -0.0522947 76.9977 -0.0263537 76.6345 0.142273L59.3567 8.17152H7.03045C3.29471 8.17152 0 11.4533 0 15.189V73.3005C0 76.9584 3.22985 80.0456 7.03045 80.0456H93.3416C97.0643 80.0456 100.1 77.0232 100.1 73.3005V59.8752C100.1 58.8375 100.1 57.8776 99.6586 57.216L98.9841 56.2043H101.838C105.586 56.2043 108.868 52.9225 108.868 49.1738V39.0432C108.868 35.3724 105.651 32.2852 101.838 32.2852ZM93.3416 11.5311C95.3262 11.5311 97.0124 13.2044 97.0124 15.189V16.9401H86.6484L83.7687 11.5311H93.3416ZM76.3621 3.91692L82.8737 16.9401H48.7721L76.3621 3.91692ZM97.0124 73.3005C97.0124 75.2851 95.3262 76.9584 93.3416 76.9584H7.03045C5.04584 76.9584 3.37254 75.2851 3.37254 73.3005V15.189C3.37254 13.2044 5.04584 11.5311 7.03045 11.5311H52.6765L40.9893 16.9401H10.87C9.84522 16.9401 9.05397 17.7314 9.05397 18.7561C9.05397 19.4695 9.84522 20.2997 10.87 20.2997H97.0124V28.6273C97.0124 30.3784 95.6245 31.6626 94.3274 31.9868L94.1977 32.0128L87.8677 32.2852C82.5105 32.2852 77.2701 32.804 77.2701 39.0432V49.1738C77.2701 53.1171 80.2405 56.2043 84.0282 56.2043H93.3416C95.3262 56.2043 97.0124 57.8776 97.0124 59.8752V73.3005ZM105.496 49.1738C105.496 51.1714 103.809 52.8447 101.825 52.8447H84.0152C82.0825 52.8447 80.6167 51.2622 80.6167 49.1738V39.0432C80.6167 37.0457 82.0176 35.6448 84.0152 35.6448H101.825C103.913 35.6448 105.496 37.1105 105.496 39.0432V49.1738Z" fill="#273B70"/>
</svg>
