<svg width="69" height="96" viewBox="0 0 69 96" fill="none" xmlns="http://www.w3.org/2000/svg">
<path d="M33.012 75.104H21.3378C11.3499 75.104 3.21688 66.984 3.21688 56.9831V35.6582C3.21688 34.7762 2.50346 34.0498 1.60844 34.0498C0.713419 34.0498 0 34.7632 0 35.6582V56.9831C0 68.7351 9.55985 78.3079 21.3248 78.3079H32.999C33.8811 78.3079 34.6075 77.5945 34.6075 76.6995C34.6075 75.8045 33.894 75.091 32.999 75.091L33.012 75.104Z" fill="#273B70"/>
<path d="M26.6822 22.5441C32.8955 22.5441 37.9543 17.4853 37.9543 11.2721C37.9543 5.05882 32.8955 0 26.6822 0C20.469 0 15.4102 5.05882 15.4102 11.2721C15.4102 17.4853 20.469 22.5441 26.6822 22.5441ZM26.6822 3.21688C31.1314 3.21688 34.7374 6.83588 34.7374 11.2721C34.7374 15.7083 31.1184 19.3273 26.6822 19.3273C22.246 19.3273 18.627 15.7083 18.627 11.2721C18.627 6.83588 22.246 3.21688 26.6822 3.21688Z" fill="#273B70"/>
<path d="M38.849 47.2416L55.1669 48.5776C56.8791 48.7203 58.5913 48.1236 59.8496 46.9692C61.1207 45.8018 61.8342 44.1544 61.8342 42.4292C61.8342 39.3032 59.4863 36.657 56.3862 36.2938L40.8725 34.4649L29.8339 28.3165L29.6394 28.2127C26.2798 26.3189 24.3341 25.5146 23.1018 25.5146H22.2457C18.5619 25.5146 15.332 26.8896 12.621 29.5876C9.96189 32.2468 8.27561 35.9176 7.88647 39.9258C7.28979 46.165 6.97849 50.0953 6.97849 51.6129C6.97849 52.015 6.97849 52.3912 6.97849 52.7674C6.96552 55.5432 6.95254 57.9429 7.97727 61.0301C9.89703 66.7764 15.8638 71.2904 21.5453 71.2904H39.0565V88.7109C39.0565 90.5269 39.77 92.2391 41.0541 93.5232C42.3253 94.7944 43.9986 95.4949 45.7886 95.5208C45.8146 95.5208 45.8405 95.5208 45.8665 95.5208C47.6176 95.5208 49.2779 94.8204 50.5751 93.5492C51.9241 92.2131 52.6894 90.3842 52.6894 88.5163V69.682C52.6894 66.2186 51.3404 62.9758 48.9018 60.5372C46.4632 58.0986 43.2074 56.7496 39.757 56.7496H32.6098C32.2207 53.844 31.8834 49.5375 31.6629 44.6214L38.408 47.1638C38.5507 47.2157 38.6933 47.2546 38.849 47.2675V47.2416ZM29.6523 58.5915C29.7821 59.3698 30.4566 59.9275 31.2348 59.9275H39.77C42.3642 59.9275 44.8028 60.9393 46.6448 62.7812C48.4867 64.6102 49.4855 67.0488 49.4855 69.656V88.4904C49.4855 89.5021 49.0574 90.5139 48.3181 91.2403C47.6306 91.9278 46.7485 92.3039 45.8276 92.278C44.8806 92.278 43.9986 91.8889 43.3241 91.2273C42.6366 90.5398 42.2604 89.6448 42.2604 88.672V69.6431C42.2604 68.761 41.547 68.0346 40.652 68.0346H21.5453C17.3037 68.0346 12.4783 64.3378 11.0126 59.9665C10.1435 57.3852 10.1565 55.4395 10.1824 52.7414C10.1824 52.3653 10.1824 51.9761 10.1824 51.574C10.1824 50.6012 10.3381 47.8383 11.0774 40.1982C11.3887 36.9424 12.7507 33.959 14.878 31.8317C16.9794 29.7303 19.392 28.7056 22.2328 28.7056H23.0889C23.2575 28.7056 24.2563 28.8483 28.0569 30.9885L39.5884 37.4093C39.77 37.5131 39.9775 37.578 40.185 37.6039L56.023 39.4718C57.5147 39.6534 58.6432 40.9116 58.6432 42.4163C58.6432 43.2594 58.306 44.0247 57.6833 44.5954C57.0607 45.1662 56.2695 45.4386 55.4263 45.3737L39.3289 44.0636L27.538 39.6145C26.7078 39.3032 25.7869 39.7182 25.4756 40.5484C25.1643 41.3786 25.5794 42.2995 26.4095 42.6108L28.4071 43.3632C28.6665 49.7969 29.1335 55.4395 29.6523 58.5915Z" fill="#273B70"/>
<path d="M62.1065 50.731C58.5265 50.731 55.6079 53.6495 55.6079 57.2296V59.772C55.6079 60.654 56.3213 61.3804 57.2164 61.3804C58.1114 61.3804 58.8248 60.667 58.8248 59.772V57.2296C58.8248 55.4136 60.3035 53.9478 62.1065 53.9478C63.9096 53.9478 65.3883 55.4266 65.3883 57.2296V93.3158C65.3883 94.1978 66.1017 94.9242 66.9967 94.9242C67.8917 94.9242 68.6052 94.2108 68.6052 93.3158V57.2296C68.6052 53.6495 65.6866 50.731 62.1065 50.731Z" fill="#273B70"/>
</svg>
