<svg width="94" height="106" viewBox="0 0 94 106" fill="none" xmlns="http://www.w3.org/2000/svg">
<path d="M93.3503 28.0849L91.5602 25.0885L91.8197 24.7383C94.1026 21.9624 93.5449 16.4885 90.4577 11.4297C87.617 6.53952 83.7256 3.5172 80.2622 3.5172C80.0936 3.5172 79.7434 3.51721 79.6137 3.58206L79.0818 3.84148L77.3437 0.676486C77.1491 0.339232 76.8248 0.118719 76.4876 0.0279203C76.2671 -0.0239649 75.9428 -0.0239657 75.6055 0.209518C75.2034 0.443002 74.9699 0.754316 74.8921 1.10454C74.8532 1.32505 74.8402 1.64933 75.0867 1.99956L76.734 4.95702L39.5582 27.7865C38.6632 28.3702 38.3519 29.6155 38.8448 30.5235L39.1302 31.0423L4.87296 52.4061C4.28925 52.8082 3.97794 53.3789 3.97794 54.1313V54.4945L1.00752 56.1159C0.514606 56.4142 0.164374 56.8812 0.047632 57.426C-0.0691098 57.9059 0.0346638 58.3859 0.29409 58.8009L4.28926 65.7147C4.5876 66.2076 5.05456 66.5448 5.59935 66.6745C6.09226 66.7783 6.59815 66.6875 6.97432 66.441L9.99664 64.7677L10.3079 64.9883C10.9435 65.4033 11.3975 65.3385 12.2796 65.0401L31.3085 54.9095L31.4901 55.7008C31.8274 57.1147 32.3073 58.9047 33.2672 60.3964C34.4994 62.4848 36.069 64.1581 38.1055 65.5201L38.5724 65.8184L20.0624 103.111C19.8808 103.422 19.8419 103.747 19.9456 104.058C20.0624 104.434 20.3218 104.732 20.7109 104.94L20.8925 105.018L20.9963 105.212C20.9963 105.134 21.3465 105.173 21.7097 105.044C21.9302 104.966 22.2286 104.797 22.3713 104.447L40.7646 66.9729L41.2964 67.1674C42.3082 67.5306 43.3329 67.803 44.3317 67.9198L44.8765 67.9846V103.747C44.8765 104.46 45.5251 105.121 46.2385 105.121C46.9519 105.121 47.6005 104.46 47.6005 103.747V67.9846L48.1453 67.9198C49.157 67.803 50.1688 67.5436 51.1805 67.1674L51.7124 66.9729L70.0927 104.278C70.3132 104.616 70.6505 104.875 71.0396 104.953C71.338 105.018 71.6233 104.966 71.8568 104.823C72.5183 104.447 72.8297 103.578 72.5573 102.929L54.3066 65.7925L54.7866 65.4941C57.8997 63.5095 60.1048 60.4742 61.1425 56.7255C62.1543 52.7823 61.6225 48.6703 59.6119 45.1681C59.4952 44.9865 59.3525 44.753 59.2098 44.5065C59.0801 44.286 58.9633 44.0526 58.8336 43.871L58.4574 43.3132L89.394 26.671L91.0025 29.5895C91.3138 30.0824 91.8845 30.6013 92.8444 30.1343C93.48 29.6674 93.7264 28.8113 93.3632 28.0719L93.3503 28.0849ZM6.2998 63.9765L3.04401 58.2691L6.36466 56.3104L9.63343 62.0178L6.2998 63.9765ZM11.4624 62.368L6.88352 54.4426L41.6985 32.8583L47.6394 43.1057L11.4624 62.368ZM47.821 47.7494C49.1311 48.1255 50.2077 49.0076 50.7784 50.1361C52.3869 53.366 50.6487 56.3883 48.7938 57.3352C48.0804 57.7892 47.1984 58.0097 46.2904 58.0097C45.7715 58.0097 45.2656 57.9319 44.7468 57.7892C43.3199 57.3871 42.1785 56.492 41.5947 55.3117C40.5051 52.3801 41.4002 49.4356 43.722 48.2812C44.9673 47.5159 46.4201 47.3343 47.834 47.7364L47.821 47.7494ZM58.4704 56.1029C57.5884 59.3328 55.5389 62.0308 52.6463 63.6652C50.7266 64.7807 48.5863 65.3514 46.4071 65.3514C45.3305 65.3514 44.215 65.1958 43.1383 64.8975C39.9085 64.0413 37.1975 61.9659 35.5112 59.0604C34.4605 57.2573 34.0844 55.4673 33.8509 53.9367L33.786 53.5086L38.4816 51.07L38.4038 52.1856C38.2741 53.9497 38.5854 55.5062 39.3766 56.8423C40.4014 58.6453 42.1525 59.9813 44.189 60.5261C46.2255 61.0579 48.3528 60.7596 50.1558 59.683C52.0107 58.6064 53.3468 56.8812 53.9045 54.8058C54.4623 52.7304 54.1899 50.5771 53.1262 48.7352C52.8798 48.2682 52.5296 47.7753 52.1664 47.4121L51.5697 46.8284L55.6297 44.6233L55.941 44.9346C56.4728 45.4664 56.9398 45.9334 57.2511 46.543C58.9114 49.4616 59.3525 52.8601 58.4574 56.1029H58.4704ZM50.1039 44.6233L41.5558 29.823L78.096 7.18808L87.9931 24.1935L50.091 44.6233H50.1039ZM90.4058 20.9896L90.1593 22.7926L80.4179 5.78718L82.4414 6.78597C82.6879 6.90271 83.0511 7.07134 83.3364 7.34374C84.867 8.27767 86.5403 10.1585 88.058 12.7657C89.8351 15.5416 90.7171 18.6158 90.3928 20.9766L90.4058 20.9896Z" fill="#273B70"/>
</svg>
