<svg width="112" height="89" viewBox="0 0 112 89" fill="none" xmlns="http://www.w3.org/2000/svg">
<path fill-rule="evenodd" clip-rule="evenodd" d="M33.3326 69.6172V69.6302L33.3066 69.6172H33.3326Z" fill="#EBE8E1"/>
<path fill-rule="evenodd" clip-rule="evenodd" d="M111.225 70.7066C111.122 70.5769 100.783 59.0065 77.8632 60.122C77.3573 60.148 76.8514 60.1739 76.3715 60.2128L75.5283 60.2777V14.489C75.5413 11.285 76.8384 8.15895 79.1084 5.90195C81.4043 3.61899 84.4526 2.3478 87.7084 2.3478H89.0704C92.3262 2.3478 95.3745 3.61899 97.6704 5.91492C99.9404 8.14598 101.237 11.285 101.237 14.489C101.237 15.6304 102.366 15.7991 102.483 15.812C103.028 15.7991 103.559 15.2802 103.559 14.6446C103.559 10.6235 102.042 6.97857 99.3047 4.24162C96.5548 1.51764 92.9229 0 89.0574 0H87.6825C83.817 0 80.1721 1.51764 77.4351 4.24162C74.6982 6.97857 73.1935 10.6235 73.1935 14.489V27.3435H32.5284L32.4766 14.5019C32.4766 7.80873 37.9375 2.36078 44.6436 2.36078H46.0056C49.2485 2.36078 52.2967 3.63196 54.6056 5.91492C56.8756 8.17192 58.1727 11.298 58.1727 14.5019C58.1727 15.5915 59.2234 15.7991 59.418 15.825C59.9628 15.812 60.4816 15.2932 60.4816 14.6576C60.4816 10.6365 58.9769 7.00451 56.253 4.25459C53.5031 1.51764 49.8581 0.0129691 45.9927 0.0129691H44.6307C36.6404 0.0129691 30.1288 6.49863 30.1288 14.476V70.4083H29.3245C9.40059 69.9673 2.38311 61.1986 2.09774 60.8225C1.8902 60.5501 1.61781 60.3944 1.31947 60.3555C1.25461 60.3425 1.2157 60.3425 1.16381 60.3425C0.917358 60.3425 0.657931 60.4204 0.463361 60.576C-0.0554914 60.9652 -0.146291 61.7045 0.229877 62.2234C0.307705 62.3531 8.5834 73.262 32.3858 72.7301C42.8925 72.5096 49.3263 70.084 55.5266 67.7232L56.0065 67.5546C61.9863 65.2716 68.1736 62.9238 77.9021 62.4698C99.4215 61.4581 109.007 71.8092 109.396 72.2632C109.837 72.7431 110.564 72.795 111.057 72.367C111.537 71.9259 111.589 71.1995 111.161 70.7066H111.225ZM32.5284 29.7043H73.1935V45.9703H32.5284V29.7043ZM73.2065 52.3911H73.1935V60.5241L72.6357 60.602C65.4367 61.51 60.1962 63.4946 55.1374 65.4403L54.7613 65.5829C49.1966 67.6973 43.4373 69.8635 34.6039 70.3434C34.4352 70.3564 34.2796 70.3564 34.1239 70.3694C33.6959 70.3823 33.3456 70.3953 33.0084 70.4212H32.5544V48.3181H73.2194V52.4041L73.2065 52.3911Z" fill="#273B70"/>
<path fill-rule="evenodd" clip-rule="evenodd" d="M111.485 87.2451C111.472 87.5564 111.329 87.8418 111.095 88.0363C110.862 88.2439 110.564 88.3476 110.252 88.3347C109.941 88.3087 109.656 88.166 109.448 87.9326L108.073 86.4019V86.6614C104.727 83.8207 95.1537 77.335 77.9408 78.1522C68.2123 78.6192 62.038 80.967 56.0452 83.2499L55.5783 83.4185C49.352 85.7793 42.9442 88.205 32.4115 88.4255C8.59618 88.9054 0.34643 78.0354 0.255631 77.9187C-0.120537 77.3999 -0.00379742 76.6735 0.502084 76.2714C0.709625 76.1157 0.943107 76.0379 1.18956 76.0379C1.25442 76.0379 1.31928 76.0379 1.35819 76.0508C1.6695 76.1027 1.9419 76.2584 2.13647 76.5178C2.44778 76.9199 10.1398 86.5057 32.3726 86.0777C42.5291 85.8701 48.7294 83.5093 54.7351 81.2134L55.0983 81.0837C61.3116 78.7229 67.7324 76.2713 77.8241 75.7784C100.757 74.6888 111.095 86.2593 111.186 86.363C111.407 86.5965 111.498 86.9078 111.485 87.2191V87.2451Z" fill="#273B70"/>
</svg>
