<svg width="89" height="86" viewBox="0 0 89 86" fill="none" xmlns="http://www.w3.org/2000/svg">
<path d="M12.3487 49.2891C13.5939 50.1971 15.2153 50.4305 16.6811 49.9376C34.9966 43.7373 53.5845 43.7373 71.9 49.9376C72.3929 50.1063 72.9247 50.1971 73.4435 50.1971C76.0897 50.1971 78.217 48.0308 78.2299 45.3847V4.81044C78.2299 3.26685 77.4906 1.84001 76.2453 0.919042C75.0001 0.0240215 73.4046 -0.235405 71.9389 0.244533C70.6806 0.659615 69.4095 1.03579 68.1512 1.39898C67.788 1.50275 67.4897 1.73624 67.3081 2.06052C67.1265 2.3848 67.0876 2.77394 67.1784 3.13714C67.2822 3.50034 67.5157 3.79867 67.8399 3.98027C68.1642 4.16187 68.5534 4.20079 68.9165 4.10999C70.2137 3.74679 71.5238 3.34468 72.8209 2.9296C73.4306 2.73503 74.0921 2.82583 74.598 3.21496C75.1168 3.59113 75.4152 4.18781 75.4152 4.83638V45.3977C75.4152 46.0462 75.1039 46.6429 74.585 47.0191C74.0662 47.3953 73.3917 47.499 72.782 47.2915C63.3259 44.0876 53.7401 42.4662 44.2711 42.4662C34.802 42.4662 25.2162 44.0876 15.7731 47.2785C15.1634 47.486 14.5019 47.3823 13.983 47.0061C13.4642 46.6299 13.1529 46.0333 13.1529 45.3847V4.81044C13.1529 4.17484 13.4512 3.56519 13.9701 3.18902C14.4889 2.81285 15.1505 2.70909 15.7601 2.90366C30.2102 7.63819 44.8677 8.76669 59.3307 6.26323C60.0961 6.13351 60.6019 5.40712 60.4722 4.64181C60.3295 3.8765 59.6161 3.37062 58.8508 3.50034C44.8418 5.913 30.6382 4.81044 16.6292 0.231564C15.1764 -0.235403 13.568 0.0110523 12.3357 0.906073C11.0904 1.80109 10.3511 3.25388 10.3511 4.78449V45.3588C10.3511 46.9023 11.0904 48.3681 12.3616 49.2631V49.2891H12.3487Z" fill="#273B70"/>
<path d="M12.3487 49.2891C13.5939 50.1971 15.2153 50.4305 16.6811 49.9376C34.9966 43.7373 53.5845 43.7373 71.9 49.9376C72.3929 50.1063 72.9247 50.1971 73.4435 50.1971C76.0897 50.1971 78.217 48.0308 78.2299 45.3847V4.81044C78.2299 3.26685 77.4906 1.84001 76.2453 0.919042C75.0001 0.0240215 73.4046 -0.235405 71.9389 0.244533C70.6806 0.659615 69.4095 1.03579 68.1512 1.39898C67.788 1.50275 67.4897 1.73624 67.3081 2.06052C67.1265 2.3848 67.0876 2.77394 67.1784 3.13714C67.2822 3.50034 67.5157 3.79867 67.8399 3.98027C68.1642 4.16187 68.5534 4.20079 68.9165 4.10999C70.2137 3.74679 71.5238 3.34468 72.8209 2.9296C73.4306 2.73503 74.0921 2.82583 74.598 3.21496C75.1168 3.59113 75.4152 4.18781 75.4152 4.83638V45.3977C75.4152 46.0462 75.1039 46.6429 74.585 47.0191C74.0662 47.3953 73.3917 47.499 72.782 47.2915C63.3259 44.0876 53.7401 42.4662 44.2711 42.4662C34.802 42.4662 25.2162 44.0876 15.7731 47.2785C15.1634 47.486 14.5019 47.3823 13.983 47.0061C13.4642 46.6299 13.1529 46.0333 13.1529 45.3847V4.81044C13.1529 4.17484 13.4512 3.56519 13.9701 3.18902C14.4889 2.81285 15.1505 2.70909 15.7601 2.90366C30.2102 7.63819 44.8677 8.76669 59.3307 6.26323C60.0961 6.13351 60.6019 5.40712 60.4722 4.64181C60.3295 3.8765 59.6161 3.37062 58.8508 3.50034C44.8418 5.913 30.6382 4.81044 16.6292 0.231564C15.1764 -0.235403 13.568 0.0110523 12.3357 0.906073C11.0904 1.80109 10.3511 3.25388 10.3511 4.78449V45.3588C10.3511 46.9023 11.0904 48.3681 12.3616 49.2631V49.2891H12.3487Z" fill="#273B70"/>
<path d="M51.0549 25.3699L37.8371 32.997C37.7334 33.0619 37.6296 33.0619 37.5258 32.997C37.422 32.9322 37.3572 32.8284 37.3572 32.7246V17.4574C37.3572 17.3406 37.422 17.2498 37.5258 17.185C37.6296 17.1201 37.7334 17.1201 37.8371 17.185L51.0549 24.8121C51.1587 24.877 51.2105 24.9678 51.2105 25.0845C51.2105 25.2013 51.1457 25.2921 51.0549 25.3569V25.3699ZM39.238 14.7723C38.2782 14.2146 37.0978 14.2146 36.1249 14.7723C35.165 15.3301 34.5684 16.3548 34.5684 17.4833V32.7506C34.5684 34.4757 35.9693 35.8637 37.6815 35.8767C38.2263 35.8767 38.7711 35.721 39.238 35.4486L52.4558 27.8215C53.4157 27.2637 54.0124 26.239 54.0124 25.1105C54.0124 23.982 53.4157 22.9702 52.4558 22.4124L39.238 14.7853V14.7723Z" fill="#273B70"/>
<path d="M51.0549 25.3699L37.8371 32.997C37.7334 33.0619 37.6296 33.0619 37.5258 32.997C37.422 32.9322 37.3572 32.8284 37.3572 32.7246V17.4574C37.3572 17.3406 37.422 17.2498 37.5258 17.185C37.6296 17.1201 37.7334 17.1201 37.8371 17.185L51.0549 24.8121C51.1587 24.877 51.2105 24.9678 51.2105 25.0845C51.2105 25.2013 51.1457 25.2921 51.0549 25.3569V25.3699ZM39.238 14.7723C38.2782 14.2146 37.0978 14.2146 36.1249 14.7723C35.165 15.3301 34.5684 16.3548 34.5684 17.4833V32.7506C34.5684 34.4757 35.9693 35.8637 37.6815 35.8767C38.2263 35.8767 38.7711 35.721 39.238 35.4486L52.4558 27.8215C53.4157 27.2637 54.0124 26.239 54.0124 25.1105C54.0124 23.982 53.4157 22.9702 52.4558 22.4124L39.238 14.7853V14.7723Z" fill="#273B70"/>
<path d="M17.5113 66.3074C17.4724 64.1801 18.3025 62.1176 19.8072 60.6C21.2989 59.0824 23.3484 58.2262 25.4757 58.2262C27.603 58.2262 29.6524 59.0824 31.1441 60.6C32.6358 62.1176 33.479 64.1801 33.44 66.3074V82.4048H17.5113V66.3074ZM36.3197 66.3074C36.3197 61.9101 39.8868 58.343 44.2841 58.343C48.6813 58.343 52.2484 61.9101 52.2484 66.3074V76.425C52.2484 77.2033 52.8711 77.8389 53.6623 77.8389C54.4536 77.8389 55.0762 77.2162 55.0762 76.425V66.8133C55.141 66.6446 55.18 66.489 55.18 66.3074C55.141 64.1801 55.9842 62.1176 57.4759 60.6C58.9676 59.0824 61.0171 58.2262 63.1443 58.2262C65.2716 58.2262 67.3211 59.0824 68.8128 60.6C70.3045 62.1176 71.1476 64.1801 71.1087 66.3074V82.4048H36.3586V66.3074H36.3197ZM87.1542 82.4826H73.8716V66.3074C73.8716 61.3913 70.551 57.1107 65.8035 55.8914C61.056 54.6591 56.075 56.7994 53.6883 61.0929C51.7944 57.6815 48.1884 55.5542 44.2841 55.5542C40.3797 55.5542 36.7737 57.6685 34.8799 61.0929C32.5061 56.8124 27.5122 54.6591 22.7647 55.8914C18.0172 57.1237 14.6965 61.4172 14.6965 66.3074V82.4826H1.41387C0.635589 82.4826 0 83.1052 0 83.8965C0 84.6877 0.622618 85.3103 1.41387 85.3103H87.1542C87.9325 85.3103 88.5681 84.6748 88.5681 83.8965C88.5681 83.1182 87.9455 82.4826 87.1542 82.4826Z" fill="#273B70"/>
<path d="M17.5113 66.3074C17.4724 64.1801 18.3025 62.1176 19.8072 60.6C21.2989 59.0824 23.3484 58.2262 25.4757 58.2262C27.603 58.2262 29.6524 59.0824 31.1441 60.6C32.6358 62.1176 33.479 64.1801 33.44 66.3074V82.4048H17.5113V66.3074ZM36.3197 66.3074C36.3197 61.9101 39.8868 58.343 44.2841 58.343C48.6813 58.343 52.2484 61.9101 52.2484 66.3074V76.425C52.2484 77.2033 52.8711 77.8389 53.6623 77.8389C54.4536 77.8389 55.0762 77.2162 55.0762 76.425V66.8133C55.141 66.6446 55.18 66.489 55.18 66.3074C55.141 64.1801 55.9842 62.1176 57.4759 60.6C58.9676 59.0824 61.0171 58.2262 63.1443 58.2262C65.2716 58.2262 67.3211 59.0824 68.8128 60.6C70.3045 62.1176 71.1476 64.1801 71.1087 66.3074V82.4048H36.3586V66.3074H36.3197ZM87.1542 82.4826H73.8716V66.3074C73.8716 61.3913 70.551 57.1107 65.8035 55.8914C61.056 54.6591 56.075 56.7994 53.6883 61.0929C51.7944 57.6815 48.1884 55.5542 44.2841 55.5542C40.3797 55.5542 36.7737 57.6685 34.8799 61.0929C32.5061 56.8124 27.5122 54.6591 22.7647 55.8914C18.0172 57.1237 14.6965 61.4172 14.6965 66.3074V82.4826H1.41387C0.635589 82.4826 0 83.1052 0 83.8965C0 84.6877 0.622618 85.3103 1.41387 85.3103H87.1542C87.9325 85.3103 88.5681 84.6748 88.5681 83.8965C88.5681 83.1182 87.9455 82.4826 87.1542 82.4826Z" fill="#273B70"/>
</svg>
