<svg width="108" height="88" viewBox="0 0 108 88" fill="none" xmlns="http://www.w3.org/2000/svg">
<path fill-rule="evenodd" clip-rule="evenodd" d="M0 15.6649V69.4439C0 72.6608 2.28295 75.8518 6.70617 78.5239C15.5526 83.868 33.3492 87.6038 53.8699 87.6038C74.3905 87.6038 92.1741 83.868 101.021 78.5239C105.431 75.8518 107.727 72.6608 107.727 69.4439V15.6649C107.727 12.8371 106.002 10.0483 102.59 7.6097C98.2318 4.49658 90.9808 1.82449 81.8749 0.0344516C80.8632 -0.160118 79.8903 0.488449 79.6957 1.50021C79.6309 1.81152 79.6568 2.12284 79.7476 2.4082C79.6957 2.48603 79.6698 2.56386 79.6698 2.65466V27.9487C72.0946 29.3367 63.287 30.1279 53.8828 30.1279C44.4786 30.1279 35.6581 29.3367 28.0829 27.9487V2.65466C28.0829 2.56386 28.0569 2.48603 28.0051 2.4082C28.0959 2.12284 28.1088 1.81152 28.0569 1.50021C27.8624 0.488449 26.8766 -0.160118 25.8778 0.0344516C16.7849 1.83746 9.52094 4.49658 5.17556 7.6097C1.7641 10.0483 0.0389124 12.8371 0.0389124 15.6649H0ZM68.0475 83.2714L37.7465 56.0057C35.2949 53.8005 31.5722 53.8005 29.1076 56.0057L8.02924 74.9697C9.32637 75.8129 10.87 76.6041 12.6341 77.3564C21.9345 81.3386 36.9423 83.881 53.8699 83.881C58.786 83.881 63.5594 83.6605 68.0605 83.2584L68.0475 83.2714ZM99.6845 74.9697L78.6062 56.0057C76.1546 53.8005 72.4318 53.8005 69.9673 56.0057L56.6327 68.0041L73.0025 82.7395C81.8749 81.624 89.5021 79.7432 95.0797 77.3564C96.8308 76.6041 98.3744 75.8129 99.6845 74.9697ZM104.004 22.5786C103.148 23.3309 102.149 24.0573 101.008 24.7448C92.1612 30.089 74.3645 33.8247 53.8569 33.8247C33.3492 33.8247 15.5396 30.089 6.6932 24.7448C5.55172 24.0573 4.55293 23.3309 3.70979 22.5786V69.4439C3.70979 70.5465 4.22865 71.5842 5.12367 72.583L26.6171 53.2428C30.4826 49.7665 36.3586 49.7665 40.224 53.2428L53.8569 65.5136L67.4897 53.2428C71.3552 49.7665 77.2312 49.7665 81.0966 53.2428L102.59 72.583C103.485 71.5842 104.017 70.5465 104.017 69.4439V22.5786H104.004ZM53.8569 37.2102C49.0964 37.2102 45.2439 41.0757 45.2439 45.8232C45.2439 50.5707 49.1094 54.4361 53.8569 54.4361C58.6044 54.4361 62.4698 50.5707 62.4698 45.8232C62.4698 41.0757 58.6044 37.2102 53.8569 37.2102ZM53.8569 40.92C56.5549 40.92 58.76 43.1122 58.76 45.8232C58.76 48.5342 56.5679 50.7263 53.8569 50.7263C51.1459 50.7263 48.9537 48.5342 48.9537 45.8232C48.9537 43.1122 51.1459 40.92 53.8569 40.92ZM24.3472 4.14636C16.9276 5.78075 10.9867 8.01181 7.28988 10.645C5.08475 12.2145 3.70979 13.8489 3.70979 15.6779C3.70979 17.0269 4.48807 18.2721 5.77223 19.4784C7.36771 20.9701 9.70254 22.3451 12.6211 23.6033C15.8769 25.0042 19.8461 26.2235 24.3472 27.2094V4.15933V4.14636ZM83.3666 4.14636V27.1964C87.8677 26.1976 91.8239 24.9783 95.0927 23.5904C98.0112 22.3451 100.346 20.9702 101.942 19.4655C103.226 18.2591 104.004 17.0139 104.004 15.6649C104.004 13.8359 102.616 12.2015 100.424 10.632C96.74 7.99884 90.7862 5.76777 83.3666 4.13339V4.14636Z" fill="#273B70"/>
</svg>
