<svg width="71" height="107" viewBox="0 0 71 107" fill="none" xmlns="http://www.w3.org/2000/svg">
<path d="M69.0095 91.2402C67.3362 88.6719 64.6122 87.3618 61.2786 87.4526L60.7338 87.5045C59.6183 87.5953 58.4768 87.725 57.3094 87.8677L56.9981 87.9066L56.8554 87.6342C55.4285 85.2085 54.3779 82.5624 53.7163 79.7736C53.5347 79.0991 52.8213 78.658 52.1338 78.8267C51.4464 78.9953 50.9794 79.6828 51.135 80.3702C51.7188 82.8737 52.6267 85.3512 53.872 87.712L54.1703 88.2827L53.5347 88.3735C51.5501 88.6978 49.345 89.087 46.6081 89.6318C45.713 89.8134 45.4536 90.5397 45.5833 91.2013C45.713 91.8369 46.2449 92.4206 47.1269 92.239C51.1869 91.4218 55.9993 90.5397 60.9673 90.1247C63.5745 89.9042 65.7018 90.877 66.999 92.8616C68.3999 94.9889 68.5296 97.9464 67.3103 100.203C66.1818 102.279 64.1193 103.446 61.5121 103.446H56.8943L57.1667 102.811C57.8931 101.098 57.8023 99.1527 56.8684 97.5832C55.9993 96.0655 54.4946 95.1446 52.6397 94.937C45.4925 94.1847 38.5269 92.68 31.7818 91.2143C27.0473 90.1895 22.1442 89.1388 17.2929 88.3476L16.6573 88.2568L16.9556 87.6861C18.8884 84.0411 20.0428 80.0719 20.406 75.8951L20.4449 75.4541L30.7441 75.9989C32.3785 76.0897 33.9481 75.493 35.0766 74.3256L35.4008 74.0013L35.7251 74.3256C36.8796 75.493 38.4621 76.0897 40.0575 75.9989L62.2385 74.8185C64.3528 74.7148 66.3634 73.703 67.7383 72.1075C69.1003 70.4602 69.7619 68.3329 69.5024 66.2185C68.6982 59.3697 66.986 52.6506 64.4177 46.2427C63.2113 43.3242 60.6819 41.0801 57.5948 40.2759L46.634 37.4093L46.9842 36.8774C49.6433 32.9082 50.5773 27.4862 49.5007 22.4015C48.5667 17.9523 46.2189 14.3592 42.8983 12.2709L42.548 12.0503L42.7167 11.6871C43.936 9.15774 43.7544 6.20028 42.2627 3.81356C40.745 1.42684 38.1767 0 35.349 0C32.5212 0 29.9529 1.42684 28.4612 3.81356C26.9435 6.20028 26.7879 9.15774 27.9812 11.6871L28.1629 12.0503L27.8126 12.2709C21.1454 16.4865 19.5888 25.4497 21.5215 32.1299C23.4932 38.9528 28.6687 43.0258 35.336 43.0258C38.8772 43.0258 41.9384 41.9362 44.4159 39.796L44.5975 39.6533L56.9202 42.8572C59.1643 43.4409 61.0451 45.0753 61.9142 47.2156C64.3917 53.4159 66.0521 59.9015 66.8303 66.5428C66.999 67.9307 66.5709 69.3317 65.6629 70.4083C64.7549 71.4719 63.4448 72.1205 62.0569 72.1983L54.3779 72.6004L51.9782 66.5169L56.5052 65.6478C57.1926 65.5051 57.6596 64.8047 57.5299 64.1042C57.3872 63.3778 56.7127 62.9238 55.9863 63.0535L52.7435 63.6762V63.1054C52.8343 59.694 53.0159 56.2566 53.3272 52.8581C53.3661 52.1447 52.8343 51.522 52.1209 51.4572C51.4074 51.4053 50.7718 51.9112 50.681 52.6246C50.3308 56.3863 50.1362 60.148 50.0844 63.8059V64.195L43.4171 65.4921L41.2898 59.4216C40.9007 58.306 40.0316 57.4499 38.9161 57.1127C37.8005 56.7625 36.5812 56.944 35.6214 57.6056L35.349 57.7872L35.0895 57.6056C34.1426 56.9311 32.9233 56.7495 31.8078 57.1127C30.6793 57.4759 29.7972 58.332 29.4211 59.4475L27.2938 65.5181L20.6265 64.208V63.8448C20.5487 60.1609 20.3541 56.3863 20.0298 52.6505C20.0169 52.2873 19.8482 51.9631 19.5499 51.7166C19.2775 51.4961 18.9143 51.3664 18.5641 51.4053C18.2139 51.4442 17.8896 51.5999 17.6691 51.8982C17.4356 52.1576 17.3188 52.5208 17.3577 52.884C17.6691 56.2436 17.8507 59.681 17.9415 63.1314V63.7021L14.6986 63.0665C14.0111 62.9368 13.3107 63.4167 13.168 64.1302C13.0383 64.8436 13.4923 65.5311 14.2057 65.6997L18.6938 66.5558L16.2941 72.6653L8.64103 72.2632C7.2531 72.1853 5.943 71.5368 5.035 70.4731C4.13998 69.4095 3.7249 68.0086 3.86758 66.6207C4.67181 59.9664 6.33213 53.4548 8.80965 47.2934C9.67873 45.1402 11.5466 43.5058 13.8036 42.9221L19.6537 41.3914C20.0169 41.3136 20.3282 41.1061 20.5098 40.7948C20.6914 40.4705 20.7433 40.1073 20.6525 39.77C20.5617 39.4068 20.3411 39.0955 20.0298 38.9269C19.7056 38.7453 19.3424 38.7064 18.9792 38.8231L13.1032 40.3537C10.0549 41.132 7.51252 43.3761 6.30619 46.3205C3.73787 52.7154 2.02566 59.4475 1.22144 66.2964C0.96201 68.4107 1.62355 70.538 2.98553 72.1724C4.34752 73.7938 6.35808 74.7926 8.49834 74.8834L17.7209 75.3893L17.6691 75.8692C17.3059 80.02 16.0087 84.106 13.9074 87.6861L13.7388 87.9455L13.4404 87.9066C12.286 87.7639 11.1575 87.6342 10.016 87.5434C9.66576 87.5045 9.3285 87.4915 8.99125 87.4915C5.85219 87.4915 3.2709 88.8275 1.62354 91.3051C-0.361067 94.3533 -0.542664 98.5301 1.16955 101.695C2.71314 104.588 5.60574 106.183 9.22473 106.183H61.3953C65.0403 106.183 67.9069 104.601 69.4505 101.695C71.1887 98.5171 70.9812 94.3533 68.9966 91.3051L69.0095 91.2402ZM30.7571 5.26635C31.7429 3.68385 33.533 2.67209 35.4268 2.67209C37.3206 2.67209 39.1106 3.67088 40.0965 5.27932C41.0952 6.88777 41.1861 8.92426 40.3689 10.6235L40.2002 10.9478L39.8111 10.844C36.9444 10.0009 33.9091 10.0009 31.0295 10.844L30.6663 10.9478L30.4847 10.5976C29.6416 8.88535 29.7324 6.87479 30.7571 5.25338V5.26635ZM23.9212 22.8555C25.3092 16.6163 29.6156 12.8805 35.4268 12.8805H35.4398C41.2509 12.8805 45.5574 16.6163 46.9453 22.8555L47.0491 23.3484L46.5432 23.4002C46.0373 23.4781 45.5185 23.491 45.0256 23.491C41.3287 23.491 38.2286 21.9475 36.5423 19.2105C36.0624 18.4452 34.7782 18.4452 34.2983 19.2105C32.4045 22.2717 28.5779 23.8932 24.3104 23.4002L23.8045 23.3484L23.9083 22.8555H23.9212ZM44.3121 36.2029C42.1589 38.9399 39.0977 40.3927 35.4398 40.3927C32.2877 40.3927 29.4989 39.2771 27.3975 37.1628C24.9071 34.6334 23.4802 30.742 23.4932 26.5134V26.0075L23.9991 26.0464C28.3704 26.5393 32.4174 25.2422 35.1025 22.4923L35.4268 22.168L35.7511 22.4923C38.4102 25.2422 42.4572 26.5523 46.8286 26.0464L47.3344 25.9945V26.5004C47.3734 30.1453 46.2578 33.6865 44.2862 36.2029H44.3121ZM36.7369 60.6539C36.7369 60.148 37.126 59.694 37.6319 59.5902C38.1248 59.5124 38.5918 59.7718 38.7993 60.1869L38.8512 60.3166L41.3677 67.4508C41.5882 68.0734 42.2238 68.4496 42.8853 68.3199L49.4099 67.0487L51.6669 72.7691L39.9408 73.3917H39.8111C39.0069 73.3917 38.2416 73.0933 37.6838 72.5485C37.0871 72.0037 36.7369 71.1995 36.7369 70.3434V60.6409V60.6539ZM21.3789 67.2562L21.5475 67.0876L21.8069 67.1265L27.9812 68.3329C28.6168 68.4755 29.2524 68.0994 29.473 67.4638L31.9894 60.3296C32.171 59.8237 32.6769 59.5124 33.2087 59.6032C33.7016 59.681 34.1037 60.148 34.1037 60.6798V70.3823C34.1037 71.2255 33.7405 72.0297 33.1309 72.5875C32.5601 73.1322 31.7948 73.4306 31.0165 73.4306H30.8868L19.1478 72.795L21.3659 67.2692L21.3789 67.2562ZM34.5707 95.0667C33.7535 97.5961 33.5849 100.294 34.1167 102.901L34.2464 103.446H9.34148C4.78855 103.446 2.70016 100.022 2.70016 96.8308C2.70016 95.0927 3.28387 93.4583 4.32158 92.213C5.50197 90.8121 7.1623 90.0857 9.12097 90.0857H10.2495L10.1716 90.1636C11.4169 90.2674 13.181 90.4879 14.3225 90.6435C20.2244 91.4607 24.7384 92.4465 30.4328 93.6658C31.6392 93.9253 32.8974 94.1977 34.2205 94.483L34.7134 94.5738L34.5447 95.0667H34.5707ZM52.2506 103.433L36.9704 103.446L36.8796 103.122C36.2051 100.605 36.3088 97.9593 37.2039 95.5078L37.3465 95.1446L37.7357 95.2224C41.7049 96.0396 46.9972 97.0513 52.3803 97.6091C54.2741 97.8037 55.0653 99.3473 55.0005 100.67C54.9227 101.967 54.0406 103.355 52.2506 103.446V103.433Z" fill="#273B70"/>
</svg>
