<svg width="91" height="91" viewBox="0 0 91 91" fill="none" xmlns="http://www.w3.org/2000/svg">
<path d="M17.2389 84.2097C20.1704 85.6236 23.5429 86.0906 27.3306 86.4927C41.2747 87.9974 55.9712 88.8016 69.0333 84.2357C73.8327 82.5754 76.7902 80.5 78.1262 77.9057C79.5141 75.1817 79.0342 71.5757 76.9069 68.6831C74.4813 65.4014 70.5639 63.5465 67.6973 62.5736C63.5854 61.1727 59.5902 60.4333 55.4653 60.3296C53.9088 60.3036 52.43 60.2777 50.9773 60.2777C41.8325 60.2777 34.2053 61.1338 26.3577 64.2728C22.3625 65.8813 17.187 69.3446 14.5927 72.1594C12.8935 74.0143 11.9855 75.9859 12.0633 77.763C12.1541 80.2276 14.1906 82.731 17.2259 84.2097H17.2389ZM24.8141 55.6988C26.2669 56.2566 27.8624 56.4511 29.3541 56.5809C33.8681 56.983 38.6675 57.0478 43.6225 56.7754C44.9067 56.7106 46.2038 56.6457 47.5139 56.5938C52.6376 56.3863 57.9299 56.1658 62.8719 55.0373C65.2198 54.5054 67.3211 53.2602 68.9296 51.4702C68.9944 51.3923 69.0722 51.3015 69.1501 51.2237C69.5522 50.7567 70.2137 49.7969 70.1489 48.7073C70.1099 47.7474 69.4743 46.8005 68.9685 46.1908C67.5805 44.5564 65.4922 43.2982 62.9238 42.5329C60.4333 41.8065 57.7353 41.573 55.1021 41.3655C53.9347 41.2747 52.7543 41.1709 51.5999 41.0412C48.8759 40.7169 46.1519 40.5483 43.3761 40.5483C40.1073 40.5483 36.8126 40.7818 33.5308 41.2358C29.8859 41.7417 25.8259 42.6237 23.1538 45.192C21.2081 47.0729 20.0277 50.5233 21.4156 53.0008C22.0642 54.1682 23.2576 55.1151 24.7882 55.6988H24.8141ZM34.0886 34.3091C35.9824 35.7749 38.7323 36.5791 42.481 36.7477C48.0976 37.0071 53.7531 35.9565 59.24 34.9317C59.8885 34.802 60.3944 34.4129 60.6668 33.8421C60.8095 33.5438 60.9911 32.9342 60.6409 32.2726C59.2919 29.7951 56.6068 27.7327 53.2732 26.5782C50.186 25.4886 46.8394 25.2162 43.7263 25.2162C42.6237 25.2162 41.5731 25.2422 40.5354 25.2941C38.888 25.3719 37.1239 25.4886 35.5673 25.9815C34.0108 26.4744 32.8434 27.2916 32.2467 28.2904C31.0533 30.2361 32.2467 32.8823 34.0886 34.2961V34.3091ZM38.3821 18.6138C38.5118 18.8603 39.0955 19.1846 39.316 19.3272C42.1568 20.9487 46.4243 22.6609 50.5751 21.5972C51.4961 21.3637 52.1317 21.0265 52.4171 20.5984C52.8062 20.0407 52.6116 19.0159 51.976 18.3414C51.3275 17.641 50.2509 17.3556 49.3688 17.1221L49.0575 17.0443C47.6307 16.6292 46.1519 16.4346 44.6602 16.4346C43.3112 16.4346 41.9622 16.6033 40.6651 16.9276C40.0035 17.0962 39.1993 17.3426 38.7194 17.8096C38.421 18.1079 38.3173 18.4971 38.3951 18.6138M90.9808 89.3334C90.9808 90.2414 90.2414 90.9808 89.3334 90.9808H1.64735C0.73936 90.9808 0 90.2414 0 89.3334C0 88.4254 0.73936 87.6861 1.64735 87.6861H16.9794C16.5773 87.5304 16.2012 87.3618 15.825 87.1802C11.6353 85.1437 8.93723 81.6155 8.79455 77.9187C8.65186 74.5202 10.5716 71.7054 12.206 69.9543C15.1505 66.7763 20.7152 63.0406 25.1773 61.2505C26.4874 60.7317 27.7845 60.2647 29.0817 59.8626C27.4343 59.7199 25.5275 59.4735 23.6856 58.773C21.4286 57.9169 19.6386 56.4511 18.6138 54.6222C16.3568 50.6141 18.1209 45.5552 20.9227 42.8313C24.2563 39.6014 28.9779 38.5767 33.1158 37.98C33.3103 37.9541 33.4919 37.9411 33.6735 37.9151C33.1158 37.6168 32.5839 37.2795 32.091 36.9034C28.6407 34.2443 27.4992 29.7951 29.4708 26.5782C30.4826 24.9049 32.3115 23.5818 34.6075 22.8554C35.6452 22.5312 36.7088 22.3496 37.7465 22.2069C37.7206 22.2069 37.7076 22.1809 37.6946 22.1809C36.7996 21.6751 35.9046 21.0524 35.4117 20.0147C34.7242 18.536 35.1393 16.707 36.4494 15.4359C37.4871 14.4371 38.8231 14.009 39.8738 13.7496C43.1815 12.9065 46.6837 12.9583 49.9655 13.8793L50.2509 13.9571C51.3275 14.2425 53.1175 14.7354 54.4017 16.1233C56.088 17.9393 56.4122 20.5984 55.141 22.4533C54.9076 22.8165 54.5833 23.1278 54.2201 23.4132C54.272 23.4392 54.3239 23.4392 54.3887 23.4651C58.4617 24.8919 61.8083 27.5121 63.5335 30.6901C64.3118 32.104 64.3507 33.7643 63.6632 35.256C62.9498 36.7607 61.5359 37.8503 59.9015 38.1486C59.4475 38.2265 58.9935 38.3173 58.5395 38.3951C60.3166 38.5897 62.0937 38.862 63.8578 39.3809C67.0617 40.3148 69.6949 41.9362 71.4979 44.0635C72.7301 45.5163 73.3917 47.0469 73.4565 48.5646C73.5214 50.173 72.8988 51.8463 71.7054 53.2991C71.6146 53.4288 71.5108 53.5326 71.4071 53.6493C69.4484 55.8674 66.919 57.3851 64.0783 58.1115C65.6348 58.4617 67.2044 58.9027 68.7739 59.4475C73.5084 61.0689 77.2312 63.5854 79.553 66.7244C82.4197 70.6028 83.0034 75.5709 81.0448 79.3844C79.3196 82.7959 75.7265 85.3772 70.1099 87.3358C69.7597 87.4656 69.4225 87.5564 69.0852 87.6601H89.3204C90.2284 87.6861 90.9678 88.4124 90.9678 89.3334L90.9938 89.3075L90.9808 89.3334ZM27.9532 73.4436C28.1737 73.4436 28.3942 73.4046 28.6147 73.3009C35.8397 70.1618 44.3749 68.6701 52.6506 69.1371C53.5585 69.189 54.3368 68.4885 54.3757 67.5805C54.4146 66.6855 53.7272 65.8943 52.8192 65.8553C44.0506 65.3624 34.9707 66.9449 27.3046 70.2786C26.4615 70.6288 26.0853 71.6146 26.4485 72.4318C26.7079 73.0674 27.3176 73.4306 27.9402 73.4306M3.80059 63.6891C1.28416 57.9558 0 51.8334 0 45.4904C0 20.4039 20.4168 0 45.4904 0C70.5639 0 90.9808 20.4168 90.9808 45.4904C90.9808 50.1601 90.2803 54.7519 88.8924 59.1232C88.62 59.9923 87.699 60.4722 86.83 60.1999C85.9609 59.9275 85.4809 59.0065 85.7533 58.1374C87.0245 54.0774 87.6861 49.7969 87.6861 45.4774C87.6861 22.2069 68.7609 3.28174 45.4904 3.28174C22.2199 3.28174 3.29471 22.2069 3.29471 45.4774C3.29471 51.3664 4.4751 57.0478 6.80994 62.3531C7.17314 63.1962 6.80994 64.1561 5.9668 64.5193C5.74629 64.6101 5.52577 64.649 5.30526 64.649C4.66967 64.649 4.073 64.2728 3.81357 63.6632H3.78762L3.80059 63.6891Z" fill="#273B70"/>
<path d="M17.2389 84.2097C20.1704 85.6236 23.5429 86.0906 27.3306 86.4927C41.2747 87.9974 55.9712 88.8016 69.0333 84.2357C73.8327 82.5754 76.7902 80.5 78.1262 77.9057C79.5141 75.1817 79.0342 71.5757 76.9069 68.6831C74.4813 65.4014 70.5639 63.5465 67.6973 62.5736C63.5854 61.1727 59.5902 60.4333 55.4653 60.3296C53.9088 60.3036 52.43 60.2777 50.9773 60.2777C41.8325 60.2777 34.2053 61.1338 26.3577 64.2728C22.3625 65.8813 17.187 69.3446 14.5927 72.1594C12.8935 74.0143 11.9855 75.9859 12.0633 77.763C12.1541 80.2276 14.1906 82.731 17.2259 84.2097H17.2389ZM24.8141 55.6988C26.2669 56.2566 27.8624 56.4511 29.3541 56.5809C33.8681 56.983 38.6675 57.0478 43.6225 56.7754C44.9067 56.7106 46.2038 56.6457 47.5139 56.5938C52.6376 56.3863 57.9299 56.1658 62.8719 55.0373C65.2198 54.5054 67.3211 53.2602 68.9296 51.4702C68.9944 51.3923 69.0722 51.3015 69.1501 51.2237C69.5522 50.7567 70.2137 49.7969 70.1489 48.7073C70.1099 47.7474 69.4743 46.8005 68.9685 46.1908C67.5805 44.5564 65.4922 43.2982 62.9238 42.5329C60.4333 41.8065 57.7353 41.573 55.1021 41.3655C53.9347 41.2747 52.7543 41.1709 51.5999 41.0412C48.8759 40.7169 46.1519 40.5483 43.3761 40.5483C40.1073 40.5483 36.8126 40.7818 33.5308 41.2358C29.8859 41.7417 25.8259 42.6237 23.1538 45.192C21.2081 47.0729 20.0277 50.5233 21.4156 53.0008C22.0642 54.1682 23.2576 55.1151 24.7882 55.6988H24.8141ZM34.0886 34.3091C35.9824 35.7749 38.7323 36.5791 42.481 36.7477C48.0976 37.0071 53.7531 35.9565 59.24 34.9317C59.8885 34.802 60.3944 34.4129 60.6668 33.8421C60.8095 33.5438 60.9911 32.9342 60.6409 32.2726C59.2919 29.7951 56.6068 27.7327 53.2732 26.5782C50.186 25.4886 46.8394 25.2162 43.7263 25.2162C42.6237 25.2162 41.5731 25.2422 40.5354 25.2941C38.888 25.3719 37.1239 25.4886 35.5673 25.9815C34.0108 26.4744 32.8434 27.2916 32.2467 28.2904C31.0533 30.2361 32.2467 32.8823 34.0886 34.2961V34.3091ZM38.3821 18.6138C38.5118 18.8603 39.0955 19.1846 39.316 19.3272C42.1568 20.9487 46.4243 22.6609 50.5751 21.5972C51.4961 21.3637 52.1317 21.0265 52.4171 20.5984C52.8062 20.0407 52.6116 19.0159 51.976 18.3414C51.3275 17.641 50.2509 17.3556 49.3688 17.1221L49.0575 17.0443C47.6307 16.6292 46.1519 16.4346 44.6602 16.4346C43.3112 16.4346 41.9622 16.6033 40.6651 16.9276C40.0035 17.0962 39.1993 17.3426 38.7194 17.8096C38.421 18.1079 38.3173 18.4971 38.3951 18.6138H38.3821ZM90.9808 89.3334C90.9808 90.2414 90.2414 90.9808 89.3334 90.9808H1.64735C0.73936 90.9808 0 90.2414 0 89.3334C0 88.4254 0.73936 87.6861 1.64735 87.6861H16.9794C16.5773 87.5304 16.2012 87.3618 15.825 87.1802C11.6353 85.1437 8.93723 81.6155 8.79455 77.9187C8.65186 74.5202 10.5716 71.7054 12.206 69.9543C15.1505 66.7763 20.7152 63.0406 25.1773 61.2505C26.4874 60.7317 27.7845 60.2647 29.0817 59.8626C27.4343 59.7199 25.5275 59.4735 23.6856 58.773C21.4286 57.9169 19.6386 56.4511 18.6138 54.6222C16.3568 50.6141 18.1209 45.5552 20.9227 42.8313C24.2563 39.6014 28.9779 38.5767 33.1158 37.98C33.3103 37.9541 33.4919 37.9411 33.6735 37.9151C33.1158 37.6168 32.5839 37.2795 32.091 36.9034C28.6407 34.2443 27.4992 29.7951 29.4708 26.5782C30.4826 24.9049 32.3115 23.5818 34.6075 22.8554C35.6452 22.5312 36.7088 22.3496 37.7465 22.2069C37.7206 22.2069 37.7076 22.1809 37.6946 22.1809C36.7996 21.6751 35.9046 21.0524 35.4117 20.0147C34.7242 18.536 35.1393 16.707 36.4494 15.4359C37.4871 14.4371 38.8231 14.009 39.8738 13.7496C43.1815 12.9065 46.6837 12.9583 49.9655 13.8793L50.2509 13.9571C51.3275 14.2425 53.1175 14.7354 54.4017 16.1233C56.088 17.9393 56.4122 20.5984 55.141 22.4533C54.9076 22.8165 54.5833 23.1278 54.2201 23.4132C54.272 23.4392 54.3239 23.4392 54.3887 23.4651C58.4617 24.8919 61.8083 27.5121 63.5335 30.6901C64.3118 32.104 64.3507 33.7643 63.6632 35.256C62.9498 36.7607 61.5359 37.8503 59.9015 38.1486C59.4475 38.2265 58.9935 38.3173 58.5395 38.3951C60.3166 38.5897 62.0937 38.862 63.8578 39.3809C67.0617 40.3148 69.6949 41.9362 71.4979 44.0635C72.7301 45.5163 73.3917 47.0469 73.4565 48.5646C73.5214 50.173 72.8988 51.8463 71.7054 53.2991C71.6146 53.4288 71.5108 53.5326 71.4071 53.6493C69.4484 55.8674 66.919 57.3851 64.0783 58.1115C65.6348 58.4617 67.2044 58.9027 68.7739 59.4475C73.5084 61.0689 77.2312 63.5854 79.553 66.7244C82.4197 70.6028 83.0034 75.5709 81.0448 79.3844C79.3196 82.7959 75.7265 85.3772 70.1099 87.3358C69.7597 87.4656 69.4225 87.5564 69.0852 87.6601H89.3204C90.2284 87.6861 90.9678 88.4124 90.9678 89.3334L90.9938 89.3075L90.9808 89.3334ZM27.9532 73.4436C28.1737 73.4436 28.3942 73.4046 28.6147 73.3009C35.8397 70.1618 44.3749 68.6701 52.6506 69.1371C53.5585 69.189 54.3368 68.4885 54.3757 67.5805C54.4146 66.6855 53.7272 65.8943 52.8192 65.8553C44.0506 65.3624 34.9707 66.9449 27.3046 70.2786C26.4615 70.6288 26.0853 71.6146 26.4485 72.4318C26.7079 73.0674 27.3176 73.4306 27.9402 73.4306L27.9532 73.4436ZM3.80059 63.6891C1.28416 57.9558 0 51.8334 0 45.4904C0 20.4039 20.4168 0 45.4904 0C70.5639 0 90.9808 20.4168 90.9808 45.4904C90.9808 50.1601 90.2803 54.7519 88.8924 59.1232C88.62 59.9923 87.699 60.4722 86.83 60.1999C85.9609 59.9275 85.4809 59.0065 85.7533 58.1374C87.0245 54.0774 87.6861 49.7969 87.6861 45.4774C87.6861 22.2069 68.7609 3.28174 45.4904 3.28174C22.2199 3.28174 3.29471 22.2069 3.29471 45.4774C3.29471 51.3664 4.4751 57.0478 6.80994 62.3531C7.17314 63.1962 6.80994 64.1561 5.9668 64.5193C5.74629 64.6101 5.52577 64.649 5.30526 64.649C4.66967 64.649 4.073 64.2728 3.81357 63.6632H3.78762L3.80059 63.6891Z" fill="#273B70"/>
</svg>
